{
.appVersion = "3106";
DisplayStrings = (
"/brm_R/brm_RR",
"/anusvara",
"/brm_RR"
);
classes = (
{
code = "SA brm_AU brm_BHA brm_CHA brm_DA brm_DDHA brm_GHA brm_HA brm_KA brm_LLA brm_NA brm_NGA brm_NNA brm_NYA brm_O brm_PA brm_PHA brm_R brm_RR brm_SSA brm_TA brm_TTA brm_U brm_UU brm_VA brm_YA";
name = class1;
},
{
code = "brm_CA brm_CHA brm_DDHA brm_GHA brm_HA brm_JA brm_MA brm_PA brm_PHA brm_SSA brm_THA brm_TTA brm_TTHA brm_VA brm_YA";
name = class2;
},
{
code = "brm_A brm_AA brm_AI brm_AU brm_BA brm_BAU brm_BHAU brm_BO brm_BU brm_BUU brm_CHU brm_CHUU brm_CU brm_CUU brm_DA brm_DAU brm_DDA brm_DDHA brm_DDHU brm_DDHUU brm_DHA brm_DHAU brm_DHO brm_DHU brm_DHUU brm_E brm_GA brm_GHA brm_GHU brm_GHUU brm_HA brm_HU brm_HUU brm_I brm_II brm_JA brm_JAA brm_JAU brm_JHA brm_JHAU brm_JHO brm_JNYA brm_JO brm_JU brm_JUU brm_KHA brm_KSSA brm_L brm_LL brm_LLLAU brm_LLLO brm_LLU brm_LLUU brm_LU brm_LUU brm_MA brm_MAU brm_MO brm_MU brm_MUU brm_NGA brm_NGU brm_NGUU brm_NNA brm_NNNA brm_NNNAU brm_NNNO brm_NNNU brm_NNNUU brm_NNU brm_NNUU brm_NU brm_NUU brm_NYA brm_NYAU brm_NYO brm_O brm_PA brm_PHA brm_PHU brm_PHUU brm_PU brm_PUU brm_R brm_RA brm_RR brm_RRA brm_RRAU brm_RRO brm_SHA brm_SSA brm_SSU brm_SSUU brm_SU brm_SUU brm_SVA brm_THA brm_THAI brm_THAU brm_THEE brm_THO brm_THR brm_THRR brm_THU brm_THUU brm_TRR brm_TTA brm_TTHA brm_TTHAI brm_TTHAU brm_TTHEE brm_TTHO brm_TTHR brm_TTHRR brm_TTHU brm_TTHUU brm_TTU brm_TTUU brm_TUU brm_U brm_UU brm_VA brm_VU brm_VUU brm_YU brm_YUU";
name = class4;
},
{
code = "brm_BHA brm_CA brm_DDA brm_DDHA brm_JHA brm_KHA brm_LA brm_LLLA brm_MA brm_NNNA brm_RA brm_RRA brm_THA brm_TTA brm_TTHA brm_VA";
name = class5;
},
{

glyphs = (
{
glyphname = .notdef;
lastChange = "2019-09-20 20:39:33 +0000";
layers = (
{
layerId = UUID0;
paths = (
{
closed = 1;
nodes = (
"505 0 LINE",
"505 714 LINE",
"94 714 LINE",
"94 0 LINE"
);
},
{
closed = 1;
nodes = (
"145 663 LINE",
"454 663 LINE",
"454 51 LINE",
"145 51 LINE"
);
}
);
width = 600;
}
);
},
{
glyphname = candrabindu;
lastChange = "2019-09-20 20:39:33 +0000";
layers = (
{
layerId = UUID0;
paths = (
{
closed = 1;
nodes = (
"10 506 OFFCURVE",
"32 480 OFFCURVE",
"71 480 CURVE SMOOTH",
"110 480 OFFCURVE",
"134 507 OFFCURVE",
"134 548 CURVE SMOOTH",
"134 592 OFFCURVE",
"112 616 OFFCURVE",
"71 616 CURVE SMOOTH",
"30 616 OFFCURVE",
"10 591 OFFCURVE",
"10 548 CURVE SMOOTH"
);
}
);
width = 183;
}
);
unicode = 11000;
category = Letter;
},
{
glyphname = anusvara;
lastChange = "2021-12-13 13:56:05 +0000";
layers = (
{
anchors = (
{
name = _Anchor16;
position = "{68, 786}";
},
{
name = _Anchor29;
position = "{68, 786}";
},
{
name = _Anchor33;
position = "{68, 786}";
}
);
layerId = UUID0;
paths = (
{
closed = 1;
nodes = (
"10 816 OFFCURVE",
"32 791 OFFCURVE",
"71 791 CURVE SMOOTH",
"110 791 OFFCURVE",
"134 817 OFFCURVE",
"134 859 CURVE SMOOTH",
"134 902 OFFCURVE",
"112 927 OFFCURVE",
"71 927 CURVE SMOOTH",
"30 927 OFFCURVE",
"10 902 OFFCURVE",
"10 859 CURVE SMOOTH"
);
}
);
width = 0;
}
);
unicode = 11001;
category = Mark;
subCategory = Nonspacing;
},
{
glyphname = visarga;
lastChange = "2019-09-20 20:39:33 +0000";
layers = (
{
layerId = UUID0;
paths = (
{
closed = 1;
nodes = (
"10 11 OFFCURVE",
"32 -14 OFFCURVE",
"71 -14 CURVE SMOOTH",
"110 -14 OFFCURVE",
"134 12 OFFCURVE",
"134 54 CURVE SMOOTH",
"134 97 OFFCURVE",
"110 121 OFFCURVE",
"71 121 CURVE SMOOTH",
"32 121 OFFCURVE",
"10 97 OFFCURVE",
"10 54 CURVE SMOOTH"
);
},
{
closed = 1;
nodes = (
"10 506 OFFCURVE",
"32 480 OFFCURVE",
"71 480 CURVE SMOOTH",
"110 480 OFFCURVE",
"134 507 OFFCURVE",
"134 548 CURVE SMOOTH",
"134 592 OFFCURVE",
"112 616 OFFCURVE",
"71 616 CURVE SMOOTH",
"30 616 OFFCURVE",
"10 591 OFFCURVE",
"10 548 CURVE SMOOTH"
);
}
);
width = 144;
}
);
unicode = 11002;
category = Letter;
},
{
glyphname = u11003;
lastChange = "2019-09-20 20:39:33 +0000";
layers = (
{
layerId = UUID0;
paths = (
{
closed = 1;
nodes = (
"29 0 LINE",
"522 0 LINE",
"327 292 LINE",
"512 572 LINE",
"38 572 LINE",
"223 292 LINE"
);
},
{
closed = 1;
nodes = (
"276 232 LINE",
"375 76 LINE",
"177 76 LINE"
);
},
{
closed = 1;
nodes = (
"186 496 LINE",
"366 496 LINE",
"276 353 LINE"
);
}
);
width = 552;
}
);
unicode = 11003;
category = Letter;
},
{
glyphname = u11004;
lastChange = "2019-09-20 20:39:33 +0000";
layers = (
{
layerId = UUID0;
paths = (
{
closed = 1;
nodes = (
"609 470 OFFCURVE",
"504 584 OFFCURVE",
"345 584 CURVE SMOOTH",
"171 584 OFFCURVE",
"78 467 OFFCURVE",
"78 287 CURVE SMOOTH",
"78 102 OFFCURVE",
"186 -12 OFFCURVE",
"341 -12 CURVE SMOOTH",
"515 -12 OFFCURVE",
"609 103 OFFCURVE",
"609 287 CURVE SMOOTH"
);
},
{
closed = 1;
nodes = (
"168 342 OFFCURVE",
"177 387 OFFCURVE",
"195 421 CURVE",
"292 285 LINE",
"196 150 LINE",
"177 186 OFFCURVE",
"168 231 OFFCURVE",
"168 287 CURVE SMOOTH"
);
},
{
closed = 1;
nodes = (
"520 232 OFFCURVE",
"510 187 OFFCURVE",
"491 151 CURVE",
"396 285 LINE",
"492 421 LINE",
"510 386 OFFCURVE",
"520 341 OFFCURVE",
"520 287 CURVE SMOOTH"
);
},
{
closed = 1;
nodes = (
"250 482 LINE",
"276 497 OFFCURVE",
"307 505 OFFCURVE",
"342 505 CURVE SMOOTH",
"379 505 OFFCURVE",
"411 497 OFFCURVE",
"437 480 CURVE",
"345 345 LINE"
);
},
{
closed = 1;
nodes = (
"345 225 LINE",
"436 91 LINE",
"409 75 OFFCURVE",
"379 67 OFFCURVE",
"344 67 CURVE SMOOTH",
"308 67 OFFCURVE",
"277 75 OFFCURVE",
"252 90 CURVE"
);
}
);
width = 687;
}
);
unicode = 11004;
category = Letter;
},
{
glyphname = brm_A;
lastChange = "2021-12-13 14:35:13 +0000";
layers = (
{
anchors = (
{
name = Anchor29;
position = "{292, 786}";
}
);
layerId = UUID0;
paths = (
{
closed = 1;
nodes = (
"405 0 LINE",
"495 0 LINE",
"495 714 LINE",
"405 714 LINE",
"405 398 LINE",
"387 398 LINE SMOOTH",
"264 398 OFFCURVE",
"178 471 OFFCURVE",
"178 593 CURVE SMOOTH",
"178 714 LINE",
"88 714 LINE",
"88 591 LINE SMOOTH",
"88 486 OFFCURVE",
"138 398 OFFCURVE",
"229 352 CURVE",
"134 292 OFFCURVE",
"78 179 OFFCURVE",
"78 64 CURVE SMOOTH",
"78 0 LINE",
"168 0 LINE",
"168 62 LINE SMOOTH",
"168 205 OFFCURVE",
"263 322 OFFCURVE",
"397 322 CURVE SMOOTH",
"405 322 LINE"
);
}
);
width = 593;
}
);
unicode = 11005;
category = Letter;
subCategory = Other;
},
{
glyphname = brm_AA;
lastChange = "2019-09-20 20:39:33 +0000";
layers = (
{
anchors = (
{
name = Anchor29;
position = "{292, 786}";
}
);
layerId = UUID0;
paths = (
{
closed = 1;
nodes = (
"168 0 LINE",
"168 65 LINE SMOOTH",
"168 206 OFFCURVE",
"268 322 OFFCURVE",
"397 322 CURVE SMOOTH",
"405 322 LINE",
"405 0 LINE",
"495 0 LINE",
"495 322 LINE",
"617 322 LINE",
"617 398 LINE",
"495 398 LINE",
"495 714 LINE",
"405 714 LINE",
"405 398 LINE",
"387 398 LINE SMOOTH",
"260 398 OFFCURVE",
"178 474 OFFCURVE",
"178 593 CURVE SMOOTH",
"178 714 LINE",
"88 714 LINE",
"88 591 LINE SMOOTH",
"88 484 OFFCURVE",
"141 396 OFFCURVE",
"229 352 CURVE",
"137 295 OFFCURVE",
"78 184 OFFCURVE",
"78 64 CURVE SMOOTH",
"78 0 LINE"
);
}
);
width = 637;
}
);
unicode = 11006;
category = Letter;
},
{
glyphname = brm_I;
lastChange = "2021-12-13 14:35:49 +0000";
layers = (
{
anchors = (
{
name = Anchor29;
position = "{292, 786}";
}
);
layerId = UUID0;
paths = (
{
closed = 1;
nodes = (
"98 11 OFFCURVE",
"120 -14 OFFCURVE",
"159 -14 CURVE SMOOTH",
"198 -14 OFFCURVE",
"222 12 OFFCURVE",
"222 54 CURVE SMOOTH",
"222 97 OFFCURVE",
"198 121 OFFCURVE",
"159 121 CURVE SMOOTH",
"120 121 OFFCURVE",
"98 97 OFFCURVE",
"98 54 CURVE SMOOTH"
);
},
{
closed = 1;
nodes = (
"98 506 OFFCURVE",
"120 480 OFFCURVE",
"159 480 CURVE SMOOTH",
"198 480 OFFCURVE",
"222 507 OFFCURVE",
"222 548 CURVE SMOOTH",
"222 592 OFFCURVE",
"200 616 OFFCURVE",
"159 616 CURVE SMOOTH",
"118 616 OFFCURVE",
"98 591 OFFCURVE",
"98 548 CURVE SMOOTH"
);
},
{
closed = 1;
nodes = (
"322 258 OFFCURVE",
"345 233 OFFCURVE",
"383 233 CURVE SMOOTH",
"423 233 OFFCURVE",
"446 259 OFFCURVE",
"446 301 CURVE SMOOTH",
"446 344 OFFCURVE",
"424 369 OFFCURVE",
"383 369 CURVE SMOOTH",
"343 369 OFFCURVE",
"322 344 OFFCURVE",
"322 301 CURVE SMOOTH"
);
}
);
width = 544;
}
);
unicode = 11007;
category = Letter;
subCategory = Other;
},
{
glyphname = brm_II;
lastChange = "2019-09-20 20:39:33 +0000";
layers = (
{
anchors = (
{
name = Anchor29;
position = "{322, 786}";
}
);
layerId = UUID0;
paths = (
{
closed = 1;
nodes = (
"78 319 OFFCURVE",
"100 294 OFFCURVE",
"139 294 CURVE SMOOTH",
"178 294 OFFCURVE",
"202 320 OFFCURVE",
"202 362 CURVE SMOOTH",
"202 405 OFFCURVE",
"178 429 OFFCURVE",
"139 429 CURVE SMOOTH",
"100 429 OFFCURVE",
"78 405 OFFCURVE",
"78 362 CURVE SMOOTH"
);
},
{
closed = 1;
nodes = (
"435 319 OFFCURVE",
"457 294 OFFCURVE",
"496 294 CURVE SMOOTH",
"536 294 OFFCURVE",
"559 320 OFFCURVE",
"559 362 CURVE SMOOTH",
"559 405 OFFCURVE",
"536 429 OFFCURVE",
"496 429 CURVE SMOOTH",
"457 429 OFFCURVE",
"435 405 OFFCURVE",
"435 362 CURVE SMOOTH"
);
},
{
closed = 1;
nodes = (
"274 714 LINE",
"274 0 LINE",
"364 0 LINE",
"364 714 LINE"
);
}
);
width = 637;
}
);
unicode = 11008;
category = Letter;
},
{
glyphname = brm_U;
lastChange = "2021-12-13 14:35:21 +0000";
layers = (
{
anchors = (
{
name = Anchor29;
position = "{263, 786}";
},
{
name = Anchor31;
position = "{263, 478}";
}
);
layerId = UUID0;
paths = (
{
closed = 1;
nodes = (
"451 0 LINE",
"451 80 LINE",
"187 80 LINE",
"187 714 LINE",
"98 714 LINE",
"98 0 LINE"
);
}
);
width = 500;
}
);
unicode = 11009;
category = Letter;
subCategory = Other;
},
{
glyphname = brm_UU;
lastChange = "2019-09-20 20:39:33 +0000";
layers = (
{
anchors = (
{
name = Anchor29;
position = "{263, 786}";
},
{
name = Anchor31;
position = "{263, 478}";
}
);
layerId = UUID0;
paths = (
{
closed = 1;
nodes = (
"451 190 LINE",
"451 271 LINE",
"187 271 LINE",
"187 714 LINE",
"98 714 LINE",
"98 0 LINE",
"451 0 LINE",
"451 80 LINE",
"187 80 LINE",
"187 190 LINE"
);
}
);
width = 500;
}
);
unicode = 1100A;
category = Letter;
},
{
glyphname = brm_R;
lastChange = "2021-12-13 14:13:37 +0000";
layers = (
{
anchors = (
{
name = Anchor29;
position = "{292, 786}";
},
{
name = Anchor31;
position = "{449, 229}";
}
);
layerId = UUID0;
paths = (
{
closed = 1;
nodes = (
"59 0 LINE",
"158 0 LINE",
"306 232 LINE",
"452 0 LINE",
"552 0 LINE",
"356 292 LINE",
"542 572 LINE",
"442 572 LINE",
"306 353 LINE",
"167 572 LINE",
"67 572 LINE",
"252 292 LINE"
);
}
);
width = 610;
}
);
unicode = 1100B;
category = Letter;
subCategory = Spacing;
},
{
glyphname = brm_RR;
lastChange = "2019-09-20 20:39:33 +0000";
layers = (
{
anchors = (
{
name = Anchor29;
position = "{292, 786}";
},
{
name = Anchor31;
position = "{449, 229}";
}
);
layerId = UUID0;
paths = (
{
closed = 1;
nodes = (
"586 -12 OFFCURVE",
"627 10 OFFCURVE",
"665 54 CURVE",
"615 109 LINE",
"596 88 OFFCURVE",
"575 67 OFFCURVE",
"544 67 CURVE SMOOTH",
"516 67 OFFCURVE",
"494 83 OFFCURVE",
"457 139 CURVE SMOOTH",
"356 292 LINE",
"542 572 LINE",
"442 572 LINE",
"306 353 LINE",
"167 572 LINE",
"67 572 LINE",
"252 292 LINE",
"59 0 LINE",
"158 0 LINE",
"306 232 LINE",
"411 69 LINE SMOOTH",
"449 10 OFFCURVE",
"487 -12 OFFCURVE",
"542 -12 CURVE SMOOTH"
);
}
);
width = 680;
}
);
unicode = 1100C;
category = Letter;
},
{
glyphname = brm_L;
lastChange = "2021-12-13 14:35:58 +0000";
layers = (
{
anchors = (
{
name = Anchor29;
position = "{292, 786}";
}
);
layerId = UUID0;
paths = (
{
closed = 1;
nodes = (
"393 -15 OFFCURVE",
"443 17 OFFCURVE",
"496 104 CURVE",
"424 143 LINE",
"386 87 OFFCURVE",
"362 64 OFFCURVE",
"324 64 CURVE SMOOTH",
"296 64 OFFCURVE",
"284 78 OFFCURVE",
"284 105 CURVE SMOOTH",
"284 140 OFFCURVE",
"317 184 OFFCURVE",
"375 251 CURVE SMOOTH",
"447 335 OFFCURVE",
"497 424 OFFCURVE",
"497 528 CURVE SMOOTH",
"497 649 OFFCURVE",
"418 726 OFFCURVE",
"293 726 CURVE SMOOTH",
"166 726 OFFCURVE",
"78 647 OFFCURVE",
"78 523 CURVE SMOOTH",
"78 499 OFFCURVE",
"81 477 OFFCURVE",
"87 457 CURVE",
"175 468 LINE",
"170 487 OFFCURVE",
"168 506 OFFCURVE",
"168 526 CURVE SMOOTH",
"168 602 OFFCURVE",
"211 642 OFFCURVE",
"292 642 CURVE SMOOTH",
"359 642 OFFCURVE",
"401 593 OFFCURVE",
"401 521 CURVE SMOOTH",
"401 440 OFFCURVE",
"366 361 OFFCURVE",
"298 282 CURVE SMOOTH",
"239 213 OFFCURVE",
"194 159 OFFCURVE",
"194 104 CURVE SMOOTH",
"194 43 OFFCURVE",
"238 -15 OFFCURVE",
"321 -15 CURVE SMOOTH"
);
}
);
width = 575;
}
);
unicode = 1100D;
category = Letter;
subCategory = Other;
},
{
glyphname = brm_LL;
lastChange = "2021-12-13 14:36:02 +0000";
layers = (
{
anchors = (
{
name = Anchor29;
position = "{292, 786}";
}
);
layerId = UUID0;
paths = (
{
closed = 1;
nodes = (
"393 -15 OFFCURVE",
"443 17 OFFCURVE",
"496 104 CURVE",
"424 143 LINE",
"386 87 OFFCURVE",
"362 64 OFFCURVE",
"324 64 CURVE SMOOTH",
"296 64 OFFCURVE",
"284 78 OFFCURVE",
"284 105 CURVE SMOOTH",
"284 139 OFFCURVE",
"311 177 OFFCURVE",
"349 220 CURVE SMOOTH",
"371 245 OFFCURVE",
"394 273 OFFCURVE",
"416 304 CURVE",
"527 224 LINE",
"573 289 LINE",
"456 369 LINE",
"483 422 OFFCURVE",
"497 475 OFFCURVE",
"497 528 CURVE SMOOTH",
"497 649 OFFCURVE",
"418 726 OFFCURVE",
"293 726 CURVE SMOOTH",
"165 726 OFFCURVE",
"78 647 OFFCURVE",
"78 523 CURVE SMOOTH",
"78 499 OFFCURVE",
"81 477 OFFCURVE",
"87 457 CURVE",
"175 468 LINE",
"170 487 OFFCURVE",
"168 506 OFFCURVE",
"168 526 CURVE SMOOTH",
"168 602 OFFCURVE",
"211 642 OFFCURVE",
"292 642 CURVE SMOOTH",
"359 642 OFFCURVE",
"401 593 OFFCURVE",
"401 521 CURVE SMOOTH",
"401 440 OFFCURVE",
"366 362 OFFCURVE",
"298 282 CURVE SMOOTH",
"239 213 OFFCURVE",
"194 159 OFFCURVE",
"194 104 CURVE SMOOTH",
"194 43 OFFCURVE",
"238 -15 OFFCURVE",
"321 -15 CURVE SMOOTH"
);
}
);
width = 603;
}
);
unicode = 1100E;
category = Letter;
subCategory = Other;
},
{
glyphname = brm_E;
lastChange = "2021-12-13 14:36:08 +0000";
layers = (
{
anchors = (
{
name = Anchor29;
position = "{332, 786}";
}
);
layerId = UUID0;
paths = (
{
closed = 1;
nodes = (
"49 0 LINE",
"610 0 LINE",
"375 719 LINE",
"284 719 LINE"
);
},
{
closed = 1;
nodes = (
"329 604 LINE",
"485 80 LINE",
"172 80 LINE"
);
}
);
width = 659;
}
);
unicode = 1100F;
category = Letter;
subCategory = Other;
},
{
glyphname = brm_AI;
lastChange = "2019-09-20 20:39:33 +0000";
layers = (
{
anchors = (
{
name = Anchor29;
position = "{332, 786}";
}
);
layerId = UUID0;
paths = (
{
closed = 1;
nodes = (
"104 634 LINE",
"258 634 LINE",
"49 0 LINE",
"610 0 LINE",
"375 714 LINE",
"104 714 LINE"
);
},
{
closed = 1;
nodes = (
"329 599 LINE",
"485 80 LINE",
"172 80 LINE"
);
}
);
width = 659;
}
);
unicode = 11010;
category = Letter;
},
{
glyphname = brm_O;
lastChange = "2021-12-13 14:36:15 +0000";
layers = (
{
anchors = (
{
name = Anchor29;
position = "{361, 786}";
},
{
name = Anchor31;
position = "{371, 478}";
}
);
layerId = UUID0;
paths = (
{
closed = 1;
nodes = (
"49 714 LINE",
"49 634 LINE",
"205 634 LINE",
"205 0 LINE",
"558 0 LINE",
"558 80 LINE",
"294 80 LINE",
"294 714 LINE"
);
}
);
width = 606;
}
);
unicode = 11011;
category = Letter;
subCategory = Other;
},
{
glyphname = brm_AU;
lastChange = "2019-09-20 20:39:33 +0000";
layers = (
{
anchors = (
{
name = Anchor29;
position = "{361, 786}";
},
{
name = Anchor31;
position = "{371, 478}";
}
);
layerId = UUID0;
paths = (
{
closed = 1;
nodes = (
"49 714 LINE",
"49 634 LINE",
"205 634 LINE",
"205 0 LINE",
"558 0 LINE",
"558 80 LINE",
"294 80 LINE",
"294 190 LINE",
"558 190 LINE",
"558 271 LINE",
"294 271 LINE",
"294 714 LINE"
);
}
);
width = 606;
}
);
unicode = 11012;
category = Letter;
},
{
glyphname = brm_KA;
lastChange = "2019-09-20 20:39:33 +0000";
layers = (
{
anchors = (
{
name = Anchor13;
position = "{341, 717}";
},
{
name = Anchor14;
position = "{341, 717}";
},
{
name = Anchor15;
position = "{375, 717}";
},
{
name = Anchor16;
position = "{375, 786}";
},
{
name = Anchor17;
position = "{380, 717}";
},
{
name = Anchor18;
position = "{375, 754}";
},
{
name = Anchor19;
position = "{380, 593}";
},
{
name = Anchor21;
position = "{375, 0}";
},
{
name = Anchor23;
position = "{375, 0}";
},
{
name = Anchor26;
position = "{380, 0}";
},
{
name = Anchor31;
position = "{498, 478}";
}
);
layerId = UUID0;
paths = (
{
closed = 1;
nodes = (
"422 0 LINE",
"422 333 LINE",
"676 333 LINE",
"676 412 LINE",
"422 412 LINE",
"422 714 LINE",
"332 714 LINE",
"332 412 LINE",
"78 412 LINE",
"78 333 LINE",
"332 333 LINE",
"332 0 LINE"
);
}
);
width = 754;
}
);
unicode = 11013;
category = Letter;
},
{
glyphname = brm_KHA;
lastChange = "2019-09-20 20:39:33 +0000";
layers = (
{
anchors = (
{
name = Anchor13;
position = "{346, 717}";
},
{
name = Anchor14;
position = "{370, 717}";
},
{
name = Anchor15;
position = "{390, 673}";
},
{
name = Anchor16;
position = "{292, 786}";
},
{
name = Anchor17;
position = "{468, 341}";
},
{
name = Anchor18;
position = "{468, 292}";
},
{
name = Anchor19;
position = "{468, 268}";
},
{
name = Anchor21;
position = "{468, 0}";
},
{
name = Anchor23;
position = "{438, 0}";
},
{
name = Anchor26;
position = "{468, 0}";
}
);
layerId = UUID0;
paths = (
{
closed = 1;
nodes = (
"148 461 LINE",
"148 464 LINE SMOOTH",
"148 580 OFFCURVE",
"168 642 OFFCURVE",
"278 642 CURVE SMOOTH",
"384 642 OFFCURVE",
"402 586 OFFCURVE",
"402 465 CURVE SMOOTH",
"402 0 LINE",
"492 0 LINE",
"492 462 LINE SMOOTH",
"492 634 OFFCURVE",
"446 726 OFFCURVE",
"278 726 CURVE SMOOTH",
"179 726 OFFCURVE",
"120 696 OFFCURVE",
"87 632 CURVE SMOOTH",
"66 591 OFFCURVE",
"59 534 OFFCURVE",
"59 464 CURVE SMOOTH",
"59 461 LINE"
);
}
);
width = 589;
}
);
unicode = 11014;
category = Letter;
},
{
glyphname = brm_GA;
lastChange = "2019-09-20 20:39:33 +0000";
layers = (
{
anchors = (
{
name = Anchor13;
position = "{332, 717}";
},
{
name = Anchor14;
position = "{332, 717}";
},
{
name = Anchor15;
position = "{330, 717}";
},
{
name = Anchor16;
position = "{332, 786}";
},
{
name = Anchor17;
position = "{317, 717}";
},
{
name = Anchor18;
position = "{317, 754}";
},
{
name = Anchor19;
position = "{322, 593}";
},
{
name = Anchor21;
position = "{332, 0}";
},
{
name = Anchor23;
position = "{531, 0}";
},
{
name = Anchor26;
position = "{140, 0}";
}
);
layerId = UUID0;
paths = (
{
closed = 1;
nodes = (
"49 0 LINE",
"148 0 LINE",
"329 599 LINE",
"510 0 LINE",
"610 0 LINE",
"375 714 LINE",
"284 714 LINE"
);
}
);
width = 659;
}
);
unicode = 11015;
category = Letter;
},
{
glyphname = brm_GHA;
lastChange = "2019-09-20 20:39:33 +0000";
layers = (
{
anchors = (
{
name = Anchor13;
position = "{146, 717}";
},
{
name = Anchor14;
position = "{146, 717}";
},
{
name = Anchor15;
position = "{146, 717}";
},
{
name = Anchor16;
position = "{361, 786}";
},
{
name = Anchor17;
position = "{146, 717}";
},
{
name = Anchor18;
position = "{185, 754}";
},
{
name = Anchor19;
position = "{146, 593}";
},
{
name = Anchor21;
position = "{361, 0}";
},
{
name = Anchor23;
position = "{371, 0}";
},
{
name = Anchor26;
position = "{156, 0}";
},
{
name = Anchor31;
position = "{292, 478}";
}
);
layerId = UUID0;
paths = (
{
closed = 1;
nodes = (
"481 -12 OFFCURVE",
"558 21 OFFCURVE",
"595 92 CURVE SMOOTH",
"614 128 OFFCURVE",
"624 181 OFFCURVE",
"624 250 CURVE SMOOTH",
"624 277 LINE",
"534 277 LINE",
"534 250 LINE SMOOTH",
"532 121 OFFCURVE",
"506 89 OFFCURVE",
"406 75 CURVE",
"406 274 LINE",
"316 274 LINE",
"316 74 LINE",
"221 82 OFFCURVE",
"187 123 OFFCURVE",
"187 249 CURVE SMOOTH",
"187 714 LINE",
"98 714 LINE",
"98 244 LINE SMOOTH",
"98 60 OFFCURVE",
"178 -12 OFFCURVE",
"360 -12 CURVE SMOOTH"
);
}
);
width = 702;
}
);
unicode = 11016;
category = Letter;
},
{
glyphname = brm_NGA;
lastChange = "2019-09-20 20:39:33 +0000";
layers = (
{
anchors = (
{
name = Anchor13;
position = "{156, 717}";
},
{
name = Anchor14;
position = "{156, 419}";
},
{
name = Anchor15;
position = "{400, 717}";
},
{
name = Anchor16;
position = "{268, 786}";
},
{
name = Anchor17;
position = "{156, 390}";
},
{
name = Anchor18;
position = "{185, 361}";
},
{
name = Anchor19;
position = "{156, 361}";
},
{
name = Anchor21;
position = "{273, 0}";
},
{
name = Anchor23;
position = "{439, 0}";
},
{
name = Anchor26;
position = "{156, 0}";
},
{
name = Anchor31;
position = "{292, 312}";
}
);
layerId = UUID0;
paths = (
{
closed = 1;
nodes = (
"451 0 LINE",
"451 80 LINE",
"187 80 LINE",
"187 634 LINE",
"451 634 LINE",
"451 714 LINE",
"98 714 LINE",
"98 0 LINE"
);
}
);
width = 529;
}
);
unicode = 11017;
category = Letter;
},
{
glyphname = brm_CA;
lastChange = "2019-09-20 20:39:33 +0000";
layers = (
{
anchors = (
{
name = Anchor13;
position = "{371, 717}";
},
{
name = Anchor14;
position = "{371, 717}";
},
{
name = Anchor15;
position = "{400, 717}";
},
{
name = Anchor16;
position = "{395, 786}";
},
{
name = Anchor17;
position = "{395, 717}";
},
{
name = Anchor18;
position = "{410, 754}";
},
{
name = Anchor19;
position = "{395, 593}";
},
{
name = Anchor21;
position = "{283, 0}";
},
{
name = Anchor23;
position = "{419, 0}";
},
{
name = Anchor26;
position = "{136, 0}";
}
);
layerId = UUID0;
paths = (
{
closed = 1;
nodes = (
"444 0 LINE",
"444 714 LINE",
"354 714 LINE",
"354 345 LINE",
"346 345 LINE SMOOTH",
"163 345 OFFCURVE",
"78 288 OFFCURVE",
"78 165 CURVE SMOOTH",
"78 61 OFFCURVE",
"166 0 OFFCURVE",
"315 0 CURVE SMOOTH"
);
},
{
closed = 1;
nodes = (
"234 80 OFFCURVE",
"173 107 OFFCURVE",
"173 168 CURVE SMOOTH",
"173 189 OFFCURVE",
"179 226 OFFCURVE",
"205 242 CURVE SMOOTH",
"231 258 OFFCURVE",
"276 265 OFFCURVE",
"354 265 CURVE",
"354 80 LINE"
);
}
);
width = 542;
}
);
unicode = 11018;
category = Letter;
},
{
glyphname = brm_CHA;
lastChange = "2019-09-20 20:39:33 +0000";
layers = (
{
anchors = (
{
name = Anchor13;
position = "{292, 717}";
},
{
name = Anchor14;
position = "{292, 717}";
},
{
name = Anchor15;
position = "{300, 717}";
},
{
name = Anchor16;
position = "{302, 786}";
},
{
name = Anchor17;
position = "{307, 717}";
},
{
name = Anchor18;
position = "{307, 754}";
},
{
name = Anchor19;
position = "{307, 593}";
},
{
name = Anchor21;
position = "{302, 0}";
},
{
name = Anchor23;
position = "{322, 0}";
},
{
name = Anchor26;
position = "{146, 0}";
},
{
name = Anchor31;
position = "{390, 478}";
}
);
layerId = UUID0;
paths = (
{
closed = 1;
nodes = (
"439 -12 OFFCURVE",
"546 92 OFFCURVE",
"546 222 CURVE SMOOTH",
"546 337 OFFCURVE",
"461 433 OFFCURVE",
"350 451 CURVE",
"350 714 LINE",
"260 714 LINE",
"260 451 LINE",
"145 433 OFFCURVE",
"63 336 OFFCURVE",
"63 222 CURVE SMOOTH",
"63 92 OFFCURVE",
"171 -12 OFFCURVE",
"305 -12 CURVE SMOOTH"
);
},
{
closed = 1;
nodes = (
"197 95 OFFCURVE",
"153 157 OFFCURVE",
"153 224 CURVE SMOOTH",
"153 289 OFFCURVE",
"196 349 OFFCURVE",
"260 369 CURVE",
"260 75 LINE"
);
},
{
closed = 1;
nodes = (
"350 369 LINE",
"411 349 OFFCURVE",
"456 291 OFFCURVE",
"456 224 CURVE SMOOTH",
"456 156 OFFCURVE",
"413 95 OFFCURVE",
"350 74 CURVE"
);
}
);
width = 609;
}
);
unicode = 11019;
category = Letter;
},
{
glyphname = brm_JA;
lastChange = "2019-09-20 20:39:33 +0000";
layers = (
{
anchors = (
{
name = Anchor13;
position = "{283, 717}";
},
{
name = Anchor14;
position = "{244, 717}";
},
{
name = Anchor15;
position = "{400, 707}";
},
{
name = Anchor16;
position = "{283, 786}";
},
{
name = Anchor17;
position = "{146, 561}";
},
{
name = Anchor18;
position = "{146, 537}";
},
{
name = Anchor19;
position = "{0, 0}";
},
{
name = Anchor21;
position = "{292, 0}";
},
{
name = Anchor23;
position = "{419, 0}";
},
{
name = Anchor26;
position = "{166, 0}";
}
);
layerId = UUID0;
paths = (
{
closed = 1;
nodes = (
"440 0 LINE",
"440 80 LINE",
"317 80 LINE SMOOTH",
"228 80 OFFCURVE",
"173 120 OFFCURVE",
"173 188 CURVE SMOOTH",
"173 279 OFFCURVE",
"235 320 OFFCURVE",
"358 320 CURVE SMOOTH",
"422 320 LINE",
"422 400 LINE",
"358 400 LINE SMOOTH",
"231 400 OFFCURVE",
"173 437 OFFCURVE",
"173 526 CURVE SMOOTH",
"173 593 OFFCURVE",
"231 634 OFFCURVE",
"322 634 CURVE SMOOTH",
"440 634 LINE",
"440 714 LINE",
"330 714 LINE SMOOTH",
"177 714 OFFCURVE",
"78 635 OFFCURVE",
"78 526 CURVE SMOOTH",
"78 451 OFFCURVE",
"115 393 OFFCURVE",
"179 360 CURVE",
"115 327 OFFCURVE",
"78 266 OFFCURVE",
"78 187 CURVE SMOOTH",
"78 76 OFFCURVE",
"169 0 OFFCURVE",
"320 0 CURVE SMOOTH"
);
}
);
width = 514;
}
);
unicode = 1101A;
category = Letter;
},
{
glyphname = brm_JHA;
lastChange = "2019-09-20 20:39:33 +0000";
layers = (
{
anchors = (
{
name = Anchor13;
position = "{429, 717}";
},
{
name = Anchor14;
position = "{429, 717}";
},
{
name = Anchor15;
position = "{463, 717}";
},
{
name = Anchor16;
position = "{292, 786}";
},
{
name = Anchor17;
position = "{146, 717}";
},
{
name = Anchor18;
position = "{175, 754}";
},
{
name = Anchor19;
position = "{0, 0}";
},
{
name = Anchor21;
position = "{292, 0}";
},
{
name = Anchor23;
position = "{146, 0}";
},
{
name = Anchor26;
position = "{156, 0}";
}
);
layerId = UUID0;
paths = (
{
closed = 1;
nodes = (
"187 0 LINE",
"187 340 LINE",
"219 319 OFFCURVE",
"268 306 OFFCURVE",
"316 306 CURVE SMOOTH",
"447 306 OFFCURVE",
"516 365 OFFCURVE",
"516 502 CURVE SMOOTH",
"516 714 LINE",
"426 714 LINE",
"426 519 LINE SMOOTH",
"426 428 OFFCURVE",
"394 390 OFFCURVE",
"306 390 CURVE SMOOTH",
"258 390 OFFCURVE",
"215 408 OFFCURVE",
"187 432 CURVE",
"187 714 LINE",
"98 714 LINE",
"98 0 LINE"
);
}
);
width = 594;
}
);
unicode = 1101B;
category = Letter;
},
{
glyphname = brm_NYA;
lastChange = "2019-09-20 20:39:33 +0000";
layers = (
{
anchors = (
{
name = Anchor13;
position = "{244, 717}";
},
{
name = Anchor14;
position = "{244, 644}";
},
{
name = Anchor15;
position = "{244, 717}";
},
{
name = Anchor16;
position = "{341, 786}";
},
{
name = Anchor17;
position = "{256, 488}";
},
{
name = Anchor18;
position = "{244, 754}";
},
{
name = Anchor19;
position = "{0, 0}";
},
{
name = Anchor21;
position = "{400, 0}";
},
{
name = Anchor23;
position = "{205, 0}";
},
{
name = Anchor26;
position = "{294, 0}";
},
{
name = Anchor31;
position = "{351, 566}";
}
);
layerId = UUID0;
paths = (
{
closed = 1;
nodes = (
"294 0 LINE",
"294 413 LINE",
"313 419 OFFCURVE",
"335 422 OFFCURVE",
"359 422 CURVE SMOOTH",
"446 422 OFFCURVE",
"479 383 OFFCURVE",
"479 292 CURVE SMOOTH",
"479 170 LINE",
"569 170 LINE",
"569 310 LINE SMOOTH",
"569 446 OFFCURVE",
"499 505 OFFCURVE",
"370 505 CURVE SMOOTH",
"344 505 OFFCURVE",
"319 501 OFFCURVE",
"294 494 CURVE",
"294 714 LINE",
"49 714 LINE",
"49 634 LINE",
"205 634 LINE",
"205 0 LINE"
);
}
);
width = 647;
}
);
unicode = 1101C;
category = Letter;
},
{
glyphname = brm_TTA;
lastChange = "2019-09-20 20:39:33 +0000";
layers = (
{
anchors = (
{
name = Anchor13;
position = "{346, 717}";
},
{
name = Anchor14;
position = "{137, 390}";
},
{
name = Anchor15;
position = "{395, 717}";
},
{
name = Anchor16;
position = "{292, 786}";
},
{
name = Anchor17;
position = "{139, 400}";
},
{
name = Anchor18;
position = "{146, 361}";
},
{
name = Anchor19;
position = "{139, 351}";
},
{
name = Anchor21;
position = "{273, 0}";
},
{
name = Anchor23;
position = "{429, 0}";
},
{
name = Anchor26;
position = "{190, 0}";
},
{
name = Anchor31;
position = "{292, 312}";
}
);
layerId = UUID0;
paths = (
{
closed = 1;
nodes = (
"447 80 LINE",
"386 80 LINE SMOOTH",
"264 80 OFFCURVE",
"173 180 OFFCURVE",
"173 357 CURVE SMOOTH",
"173 531 OFFCURVE",
"263 634 OFFCURVE",
"386 634 CURVE SMOOTH",
"447 634 LINE",
"447 714 LINE",
"386 714 LINE SMOOTH",
"204 714 OFFCURVE",
"78 580 OFFCURVE",
"78 358 CURVE SMOOTH",
"78 127 OFFCURVE",
"209 0 OFFCURVE",
"386 0 CURVE SMOOTH",
"447 0 LINE"
);
}
);
width = 515;
}
);
unicode = 1101D;
category = Letter;
},
{
glyphname = brm_TTHA;
lastChange = "2019-09-20 20:39:33 +0000";
layers = (
{
anchors = (
{
name = Anchor13;
position = "{488, 683}";
},
{
name = Anchor14;
position = "{649, 439}";
},
{
name = Anchor15;
position = "{488, 654}";
},
{
name = Anchor16;
position = "{395, 786}";
},
{
name = Anchor17;
position = "{292, 683}";
},
{
name = Anchor18;
position = "{185, 754}";
},
{
name = Anchor19;
position = "{0, 0}";
},
{
name = Anchor21;
position = "{415, 0}";
},
{
name = Anchor23;
position = "{410, 0}";
}
);
layerId = UUID0;
paths = (
{
closed = 1;
nodes = (
"603 27 OFFCURVE",
"740 174 OFFCURVE",
"740 358 CURVE SMOOTH",
"740 543 OFFCURVE",
"602 689 OFFCURVE",
"409 689 CURVE SMOOTH",
"217 689 OFFCURVE",
"78 546 OFFCURVE",
"78 358 CURVE SMOOTH",
"78 173 OFFCURVE",
"215 27 OFFCURVE",
"409 27 CURVE SMOOTH"
);
},
{
closed = 1;
nodes = (
"279 111 OFFCURVE",
"173 221 OFFCURVE",
"173 359 CURVE SMOOTH",
"173 493 OFFCURVE",
"275 605 OFFCURVE",
"409 605 CURVE SMOOTH",
"544 605 OFFCURVE",
"645 493 OFFCURVE",
"645 359 CURVE SMOOTH",
"645 220 OFFCURVE",
"537 111 OFFCURVE",
"409 111 CURVE SMOOTH"
);
}
);
width = 818;
}
);
unicode = 1101E;
category = Letter;
},
{
glyphname = brm_DDA;
lastChange = "2019-09-20 20:39:33 +0000";
layers = (
{
anchors = (
{
name = Anchor13;
position = "{332, 717}";
},
{
name = Anchor14;
position = "{332, 717}";
},
{
name = Anchor15;
position = "{356, 717}";
},
{
name = Anchor16;
position = "{356, 786}";
},
{
name = Anchor17;
position = "{380, 717}";
},
{
name = Anchor18;
position = "{361, 754}";
},
{
name = Anchor19;
position = "{380, 593}";
},
{
name = Anchor21;
position = "{263, 0}";
},
{
name = Anchor23;
position = "{116, 0}";
},
{
name = Anchor26;
position = "{156, 0}";
}
);
layerId = UUID0;
paths = (
{
closed = 1;
nodes = (
"407 332 LINE",
"407 714 LINE",
"317 714 LINE",
"317 412 LINE",
"78 412 LINE",
"78 0 LINE",
"168 0 LINE",
"168 332 LINE"
);
}
);
width = 485;
}
);
unicode = 1101F;
category = Letter;
},
{
glyphname = brm_DDHA;
lastChange = "2019-09-20 20:39:33 +0000";
layers = (
{
anchors = (
{
name = Anchor13;
position = "{292, 717}";
},
{
name = Anchor14;
position = "{292, 717}";
},
{
name = Anchor15;
position = "{312, 717}";
},
{
name = Anchor16;
position = "{312, 786}";
},
{
name = Anchor17;
position = "{312, 717}";
},
{
name = Anchor18;
position = "{312, 754}";
},
{
name = Anchor19;
position = "{312, 593}";
},
{
name = Anchor21;
position = "{312, 0}";
},
{
name = Anchor23;
position = "{332, 0}";
},
{
name = Anchor26;
position = "{146, 0}";
},
{
name = Anchor31;
position = "{400, 478}";
}
);
layerId = UUID0;
paths = (
{
closed = 1;
nodes = (
"449 -12 OFFCURVE",
"537 51 OFFCURVE",
"537 162 CURVE SMOOTH",
"537 245 OFFCURVE",
"480 299 OFFCURVE",
"393 299 CURVE SMOOTH",
"314 299 OFFCURVE",
"266 257 OFFCURVE",
"243 194 CURVE",
"327 155 LINE",
"341 198 OFFCURVE",
"365 220 OFFCURVE",
"399 220 CURVE SMOOTH",
"427 220 OFFCURVE",
"447 201 OFFCURVE",
"447 162 CURVE SMOOTH",
"447 103 OFFCURVE",
"395 72 OFFCURVE",
"310 72 CURVE SMOOTH",
"215 72 OFFCURVE",
"159 124 OFFCURVE",
"159 211 CURVE SMOOTH",
"159 295 OFFCURVE",
"226 362 OFFCURVE",
"310 362 CURVE SMOOTH",
"355 362 LINE",
"355 714 LINE",
"265 714 LINE",
"265 437 LINE",
"148 419 OFFCURVE",
"63 323 OFFCURVE",
"63 209 CURVE SMOOTH",
"63 84 OFFCURVE",
"164 -12 OFFCURVE",
"300 -12 CURVE SMOOTH"
);
}
);
width = 600;
}
);
unicode = 11020;
category = Letter;
},
{
glyphname = brm_NNA;
lastChange = "2019-09-20 20:39:33 +0000";
layers = (
{
anchors = (
{
name = Anchor13;
position = "{224, 717}";
},
{
name = Anchor14;
position = "{224, 419}";
},
{
name = Anchor15;
position = "{444, 717}";
},
{
name = Anchor16;
position = "{273, 786}";
},
{
name = Anchor17;
position = "{273, 429}";
},
{
name = Anchor18;
position = "{273, 371}";
},
{
name = Anchor19;
position = "{273, 361}";
},
{
name = Anchor21;
position = "{263, 0}";
},
{
name = Anchor23;
position = "{478, 0}";
},
{
name = Anchor26;
position = "{273, 0}";
},
{
name = Anchor31;
position = "{371, 312}";
}
);
layerId = UUID0;
paths = (
{
closed = 1;
nodes = (
"49 714 LINE",
"49 634 LINE",
"224 634 LINE",
"224 80 LINE",
"49 80 LINE",
"49 0 LINE",
"489 0 LINE",
"489 80 LINE",
"314 80 LINE",
"314 634 LINE",
"489 634 LINE",
"489 714 LINE"
);
}
);
width = 538;
}
);
unicode = 11021;
category = Letter;
},
{
glyphname = brm_TA;
lastChange = "2019-09-20 20:39:33 +0000";
layers = (
{
anchors = (
{
name = Anchor13;
position = "{283, 717}";
},
{
name = Anchor14;
position = "{283, 717}";
},
{
name = Anchor15;
position = "{312, 717}";
},
{
name = Anchor16;
position = "{312, 786}";
},
{
name = Anchor17;
position = "{322, 717}";
},
{
name = Anchor18;
position = "{322, 754}";
},
{
name = Anchor19;
position = "{322, 593}";
},
{
name = Anchor21;
position = "{312, 0}";
},
{
name = Anchor23;
position = "{506, 0}";
},
{
name = Anchor26;
position = "{120, 0}";
},
{
name = Anchor31;
position = "{410, 478}";
}
);
layerId = UUID0;
paths = (
{
closed = 1;
nodes = (
"312 351 LINE",
"499 0 LINE",
"595 0 LINE",
"357 437 LINE",
"357 714 LINE",
"267 714 LINE",
"267 441 LINE",
"29 0 LINE",
"127 0 LINE"
);
}
);
width = 625;
}
);
unicode = 11022;
category = Letter;
},
{
glyphname = brm_THA;
lastChange = "2019-09-20 20:39:33 +0000";
layers = (
{
anchors = (
{
name = Anchor13;
position = "{488, 683}";
},
{
name = Anchor14;
position = "{649, 439}";
},
{
name = Anchor15;
position = "{488, 654}";
},
{
name = Anchor16;
position = "{395, 786}";
},
{
name = Anchor17;
position = "{292, 683}";
},
{
name = Anchor18;
position = "{185, 754}";
},
{
name = Anchor19;
position = "{0, 0}";
},
{
name = Anchor21;
position = "{415, 0}";
},
{
name = Anchor23;
position = "{415, 0}";
}
);
layerId = UUID0;
paths = (
{
closed = 1;
nodes = (
"448 294 OFFCURVE",
"471 320 OFFCURVE",
"471 362 CURVE SMOOTH",
"471 405 OFFCURVE",
"449 430 OFFCURVE",
"408 430 CURVE SMOOTH",
"368 430 OFFCURVE",
"347 405 OFFCURVE",
"347 362 CURVE SMOOTH",
"347 319 OFFCURVE",
"370 294 OFFCURVE",
"408 294 CURVE SMOOTH"
);
},
{
closed = 1;
nodes = (
"603 27 OFFCURVE",
"740 174 OFFCURVE",
"740 358 CURVE SMOOTH",
"740 543 OFFCURVE",
"602 689 OFFCURVE",
"409 689 CURVE SMOOTH",
"217 689 OFFCURVE",
"78 546 OFFCURVE",
"78 358 CURVE SMOOTH",
"78 173 OFFCURVE",
"215 27 OFFCURVE",
"409 27 CURVE SMOOTH"
);
},
{
closed = 1;
nodes = (
"279 111 OFFCURVE",
"173 221 OFFCURVE",
"173 359 CURVE SMOOTH",
"173 493 OFFCURVE",
"275 605 OFFCURVE",
"409 605 CURVE SMOOTH",
"544 605 OFFCURVE",
"645 493 OFFCURVE",
"645 359 CURVE SMOOTH",
"645 220 OFFCURVE",
"537 111 OFFCURVE",
"409 111 CURVE SMOOTH"
);
}
);
width = 818;
}
);
unicode = 11023;
category = Letter;
},
{
glyphname = brm_DA;
lastChange = "2019-09-20 20:39:33 +0000";
layers = (
{
anchors = (
{
name = Anchor13;
position = "{97, 717}";
},
{
name = Anchor14;
position = "{107, 717}";
},
{
name = Anchor15;
position = "{146, 717}";
},
{
name = Anchor16;
position = "{136, 786}";
},
{
name = Anchor17;
position = "{156, 717}";
},
{
name = Anchor18;
position = "{156, 754}";
},
{
name = Anchor19;
position = "{0, 0}";
},
{
name = Anchor21;
position = "{195, 0}";
},
{
name = Anchor23;
position = "{98, 0}";
},
{
name = Anchor26;
position = "{187, 0}";
},
{
name = Anchor31;
position = "{244, 566}";
}
);
layerId = UUID0;
paths = (
{
closed = 1;
nodes = (
"187 0 LINE",
"187 119 LINE",
"306 133 OFFCURVE",
"384 223 OFFCURVE",
"384 339 CURVE SMOOTH",
"384 400 OFFCURVE",
"366 452 OFFCURVE",
"329 493 CURVE SMOOTH",
"291 535 OFFCURVE",
"245 558 OFFCURVE",
"187 563 CURVE",
"187 714 LINE",
"98 714 LINE",
"98 493 LINE",
"129 493 LINE SMOOTH",
"226 493 OFFCURVE",
"294 430 OFFCURVE",
"294 341 CURVE SMOOTH",
"294 251 OFFCURVE",
"220 189 OFFCURVE",
"129 189 CURVE SMOOTH",
"98 189 LINE",
"98 0 LINE"
);
}
);
width = 462;
}
);
unicode = 11024;
category = Letter;
},
{
glyphname = brm_DHA;
lastChange = "2019-09-20 20:39:33 +0000";
layers = (
{
anchors = (
{
name = Anchor13;
position = "{268, 717}";
},
{
name = Anchor14;
position = "{292, 717}";
},
{
name = Anchor15;
position = "{332, 664}";
},
{
name = Anchor16;
position = "{253, 786}";
},
{
name = Anchor17;
position = "{185, 717}";
},
{
name = Anchor18;
position = "{185, 754}";
},
{
name = Anchor19;
position = "{0, 0}";
},
{
name = Anchor21;
position = "{273, 0}";
},
{
name = Anchor23;
position = "{244, 0}";
},
{
name = Anchor26;
position = "{176, 0}";
}
);
layerId = UUID0;
paths = (
{
closed = 1;
nodes = (
"202 0 LINE SMOOTH",
"415 0 OFFCURVE",
"530 127 OFFCURVE",
"530 358 CURVE SMOOTH",
"530 578 OFFCURVE",
"404 714 OFFCURVE",
"187 714 CURVE SMOOTH",
"98 714 LINE",
"98 0 LINE"
);
},
{
closed = 1;
nodes = (
"187 634 LINE",
"344 634 OFFCURVE",
"436 532 OFFCURVE",
"436 357 CURVE SMOOTH",
"436 180 OFFCURVE",
"349 80 OFFCURVE",
"189 80 CURVE SMOOTH",
"187 80 LINE"
);
}
);
width = 608;
}
);
unicode = 11025;
category = Letter;
},
{
glyphname = brm_NA;
lastChange = "2019-09-20 20:39:33 +0000";
layers = (
{
anchors = (
{
name = Anchor13;
position = "{234, 717}";
},
{
name = Anchor14;
position = "{234, 717}";
},
{
name = Anchor15;
position = "{268, 717}";
},
{
name = Anchor16;
position = "{263, 786}";
},
{
name = Anchor17;
position = "{273, 717}";
},
{
name = Anchor18;
position = "{273, 754}";
},
{
name = Anchor19;
position = "{273, 593}";
},
{
name = Anchor21;
position = "{273, 0}";
},
{
name = Anchor23;
position = "{478, 0}";
},
{
name = Anchor26;
position = "{290, 0}";
},
{
name = Anchor31;
position = "{371, 478}";
}
);
layerId = UUID0;
paths = (
{
closed = 1;
nodes = (
"224 714 LINE",
"224 80 LINE",
"49 80 LINE",
"49 0 LINE",
"489 0 LINE",
"489 80 LINE",
"314 80 LINE",
"314 714 LINE"
);
}
);
width = 538;
}
);
unicode = 11026;
category = Letter;
},
{
glyphname = brm_PA;
lastChange = "2019-09-20 20:39:33 +0000";
layers = (
{
anchors = (
{
name = Anchor13;
position = "{102, 717}";
},
{
name = Anchor14;
position = "{102, 717}";
},
{
name = Anchor15;
position = "{146, 717}";
},
{
name = Anchor16;
position = "{146, 786}";
},
{
name = Anchor17;
position = "{146, 717}";
},
{
name = Anchor18;
position = "{156, 754}";
},
{
name = Anchor19;
position = "{146, 593}";
},
{
name = Anchor21;
position = "{302, 0}";
},
{
name = Anchor23;
position = "{322, 0}";
},
{
name = Anchor26;
position = "{146, 0}";
},
{
name = Anchor31;
position = "{292, 478}";
}
);
layerId = UUID0;
paths = (
{
closed = 1;
nodes = (
"478 -12 OFFCURVE",
"531 73 OFFCURVE",
"531 250 CURVE SMOOTH",
"531 252 LINE",
"441 252 LINE",
"441 250 LINE SMOOTH",
"441 139 OFFCURVE",
"423 72 OFFCURVE",
"312 72 CURVE SMOOTH",
"204 72 OFFCURVE",
"187 127 OFFCURVE",
"187 248 CURVE SMOOTH",
"187 714 LINE",
"98 714 LINE",
"98 252 LINE SMOOTH",
"98 79 OFFCURVE",
"144 -12 OFFCURVE",
"311 -12 CURVE SMOOTH"
);
}
);
width = 609;
}
);
unicode = 11027;
category = Letter;
},
{
glyphname = brm_PHA;
lastChange = "2019-09-20 20:39:33 +0000";
layers = (
{
anchors = (
{
name = Anchor13;
position = "{117, 717}";
},
{
name = Anchor14;
position = "{117, 717}";
},
{
name = Anchor15;
position = "{146, 717}";
},
{
name = Anchor16;
position = "{146, 786}";
},
{
name = Anchor17;
position = "{146, 717}";
},
{
name = Anchor18;
position = "{156, 754}";
},
{
name = Anchor19;
position = "{146, 593}";
},
{
name = Anchor21;
position = "{302, 0}";
},
{
name = Anchor23;
position = "{322, 0}";
},
{
name = Anchor26;
position = "{146, 0}";
},
{
name = Anchor31;
position = "{263, 478}";
}
);
layerId = UUID0;
paths = (
{
closed = 1;
nodes = (
"430 -12 OFFCURVE",
"513 82 OFFCURVE",
"513 205 CURVE SMOOTH",
"513 323 OFFCURVE",
"432 400 OFFCURVE",
"312 400 CURVE SMOOTH",
"283 400 OFFCURVE",
"255 394 OFFCURVE",
"228 383 CURVE",
"265 308 LINE",
"284 313 OFFCURVE",
"302 316 OFFCURVE",
"321 316 CURVE SMOOTH",
"378 316 OFFCURVE",
"418 269 OFFCURVE",
"418 204 CURVE SMOOTH",
"418 117 OFFCURVE",
"381 72 OFFCURVE",
"302 72 CURVE SMOOTH",
"233 72 OFFCURVE",
"187 98 OFFCURVE",
"187 208 CURVE SMOOTH",
"187 714 LINE",
"98 714 LINE",
"98 215 LINE SMOOTH",
"98 63 OFFCURVE",
"161 -12 OFFCURVE",
"300 -12 CURVE SMOOTH"
);
}
);
width = 576;
}
);
unicode = 11028;
category = Letter;
},
{
glyphname = brm_BA;
lastChange = "2019-09-20 20:39:33 +0000";
layers = (
{
anchors = (
{
name = Anchor13;
position = "{166, 656}";
},
{
name = Anchor14;
position = "{585, 656}";
},
{
name = Anchor15;
position = "{624, 644}";
},
{
name = Anchor16;
position = "{375, 786}";
},
{
name = Anchor17;
position = "{175, 656}";
},
{
name = Anchor18;
position = "{175, 686}";
},
{
name = Anchor19;
position = "{0, 0}";
},
{
name = Anchor21;
position = "{375, 0}";
},
{
name = Anchor23;
position = "{585, 78}";
},
{
name = Anchor26;
position = "{175, 73}";
}
);
layerId = UUID0;
paths = (
{
closed = 1;
nodes = (
"675 70 LINE",
"675 652 LINE",
"98 652 LINE",
"98 70 LINE"
);
},
{
closed = 1;
nodes = (
"187 572 LINE",
"585 572 LINE",
"585 150 LINE",
"187 150 LINE"
);
}
);
width = 773;
}
);
unicode = 11029;
category = Letter;
},
{
glyphname = brm_BHA;
lastChange = "2019-09-20 20:39:33 +0000";
layers = (
{
anchors = (
{
name = Anchor13;
position = "{739, 717}";
},
{
name = Anchor14;
position = "{739, 717}";
},
{
name = Anchor15;
position = "{781, 717}";
},
{
name = Anchor16;
position = "{405, 786}";
},
{
name = Anchor17;
position = "{786, 717}";
},
{
name = Anchor18;
position = "{791, 754}";
},
{
name = Anchor19;
position = "{0, 0}";
},
{
name = Anchor21;
position = "{375, 0}";
},
{
name = Anchor23;
position = "{580, 0}";
},
{
name = Anchor26;
position = "{175, 0}";
},
{
name = Anchor31;
position = "{688, 185}";
}
);
layerId = UUID0;
paths = (
{
closed = 1;
nodes = (
"656 0 LINE",
"656 420 LINE",
"830 420 LINE",
"830 714 LINE",
"740 714 LINE",
"740 500 LINE",
"98 500 LINE",
"98 0 LINE",
"187 0 LINE",
"187 420 LINE",
"566 420 LINE",
"566 0 LINE"
);
}
);
width = 898;
}
);
unicode = 1102A;
category = Letter;
},
{
glyphname = brm_MA;
lastChange = "2019-09-20 20:39:33 +0000";
layers = (
{
anchors = (
{
name = Anchor13;
position = "{537, 717}";
},
{
name = Anchor14;
position = "{537, 717}";
},
{
name = Anchor15;
position = "{571, 717}";
},
{
name = Anchor16;
position = "{341, 786}";
},
{
name = Anchor17;
position = "{126, 717}";
},
{
name = Anchor18;
position = "{126, 754}";
},
{
name = Anchor19;
position = "{0, 0}";
},
{
name = Anchor21;
position = "{341, 0}";
},
{
name = Anchor23;
position = "{375, 0}";
},
{
name = Anchor26;
position = "{176, 0}";
}
);
layerId = UUID0;
paths = (
{
closed = 1;
nodes = (
"486 -12 OFFCURVE",
"562 55 OFFCURVE",
"562 174 CURVE SMOOTH",
"562 262 OFFCURVE",
"523 332 OFFCURVE",
"427 395 CURVE",
"553 472 OFFCURVE",
"620 538 OFFCURVE",
"620 674 CURVE SMOOTH",
"620 714 LINE",
"530 714 LINE",
"530 674 LINE SMOOTH",
"530 550 OFFCURVE",
"442 498 OFFCURVE",
"349 442 CURVE",
"256 497 OFFCURVE",
"168 550 OFFCURVE",
"168 674 CURVE SMOOTH",
"168 714 LINE",
"78 714 LINE",
"78 674 LINE SMOOTH",
"78 538 OFFCURVE",
"144 469 OFFCURVE",
"272 394 CURVE",
"179 333 OFFCURVE",
"136 263 OFFCURVE",
"136 174 CURVE SMOOTH",
"136 57 OFFCURVE",
"212 -12 OFFCURVE",
"347 -12 CURVE SMOOTH"
);
},
{
closed = 1;
nodes = (
"275 72 OFFCURVE",
"231 107 OFFCURVE",
"231 178 CURVE SMOOTH",
"231 246 OFFCURVE",
"270 299 OFFCURVE",
"351 350 CURVE",
"431 299 OFFCURVE",
"467 246 OFFCURVE",
"467 178 CURVE SMOOTH",
"467 106 OFFCURVE",
"423 72 OFFCURVE",
"347 72 CURVE SMOOTH"
);
}
);
width = 698;
}
);
unicode = 1102B;
category = Letter;
},
{
glyphname = brm_YA;
lastChange = "2019-09-20 20:39:33 +0000";
layers = (
{
anchors = (
{
name = Anchor13;
position = "{371, 717}";
},
{
name = Anchor14;
position = "{371, 717}";
},
{
name = Anchor15;
position = "{400, 717}";
},
{
name = Anchor16;
position = "{400, 786}";
},
{
name = Anchor17;
position = "{400, 717}";
},
{
name = Anchor18;
position = "{400, 754}";
},
{
name = Anchor19;
position = "{400, 593}";
},
{
name = Anchor21;
position = "{400, 0}";
},
{
name = Anchor23;
position = "{585, 0}";
},
{
name = Anchor26;
position = "{110, 15}";
},
{
name = Anchor31;
position = "{556, 478}";
}
);
layerId = UUID0;
paths = (
{
closed = 1;
nodes = (
"326 -12 OFFCURVE",
"374 6 OFFCURVE",
"403 42 CURVE",
"432 6 OFFCURVE",
"480 -12 OFFCURVE",
"547 -12 CURVE SMOOTH",
"683 -12 OFFCURVE",
"743 54 OFFCURVE",
"743 218 CURVE SMOOTH",
"743 251 LINE",
"653 251 LINE",
"653 218 LINE SMOOTH",
"653 110 OFFCURVE",
"628 72 OFFCURVE",
"553 72 CURVE SMOOTH",
"474 72 OFFCURVE",
"448 109 OFFCURVE",
"448 208 CURVE SMOOTH",
"448 714 LINE",
"358 714 LINE",
"358 208 LINE SMOOTH",
"358 112 OFFCURVE",
"331 72 OFFCURVE",
"254 72 CURVE SMOOTH",
"178 72 OFFCURVE",
"153 110 OFFCURVE",
"153 218 CURVE SMOOTH",
"153 251 LINE",
"63 251 LINE",
"63 218 LINE SMOOTH",
"63 53 OFFCURVE",
"124 -12 OFFCURVE",
"259 -12 CURVE SMOOTH"
);
}
);
width = 807;
}
);
unicode = 1102C;
category = Letter;
},
{
glyphname = brm_RA;
lastChange = "2019-09-20 20:39:33 +0000";
layers = (
{
anchors = (
{
name = Anchor13;
position = "{126, 717}";
},
{
name = Anchor14;
position = "{126, 717}";
},
{
name = Anchor15;
position = "{161, 717}";
},
{
name = Anchor16;
position = "{161, 786}";
},
{
name = Anchor17;
position = "{170, 717}";
},
{
name = Anchor18;
position = "{161, 754}";
},
{
name = Anchor19;
position = "{170, 593}";
},
{
name = Anchor21;
position = "{166, 0}";
},
{
name = Anchor23;
position = "{146, 0}";
},
{
name = Anchor26;
position = "{166, 0}";
}
);
layerId = UUID0;
paths = (
{
closed = 1;
nodes = (
"207 0 LINE",
"207 714 LINE",
"117 714 LINE",
"117 0 LINE"
);
}
);
width = 324;
}
);
unicode = 1102D;
category = Letter;
},
{
glyphname = brm_LA;
lastChange = "2019-09-20 20:39:33 +0000";
layers = (
{
anchors = (
{
name = Anchor13;
position = "{551, 717}";
},
{
name = Anchor14;
position = "{551, 717}";
},
{
name = Anchor15;
position = "{585, 717}";
},
{
name = Anchor16;
position = "{590, 786}";
},
{
name = Anchor17;
position = "{590, 717}";
},
{
name = Anchor18;
position = "{590, 754}";
},
{
name = Anchor19;
position = "{590, 593}";
},
{
name = Anchor21;
position = "{419, 0}";
},
{
name = Anchor23;
position = "{439, 0}";
},
{
name = Anchor26;
position = "{325, 80}";
}
);
layerId = UUID0;
paths = (
{
closed = 1;
nodes = (
"587 -12 OFFCURVE",
"635 78 OFFCURVE",
"635 254 CURVE SMOOTH",
"635 714 LINE",
"545 714 LINE",
"545 251 LINE SMOOTH",
"545 134 OFFCURVE",
"528 73 OFFCURVE",
"421 73 CURVE SMOOTH",
"311 73 OFFCURVE",
"291 133 OFFCURVE",
"291 251 CURVE SMOOTH",
"291 255 LINE",
"49 255 LINE",
"49 175 LINE",
"205 175 LINE",
"220 44 OFFCURVE",
"286 -12 OFFCURVE",
"421 -12 CURVE SMOOTH"
);
}
);
width = 732;
}
);
unicode = 1102E;
category = Letter;
},
{
glyphname = brm_VA;
lastChange = "2019-09-20 20:39:33 +0000";
layers = (
{
anchors = (
{
name = Anchor13;
position = "{249, 717}";
},
{
name = Anchor14;
position = "{249, 717}";
},
{
name = Anchor15;
position = "{249, 717}";
},
{
name = Anchor16;
position = "{249, 786}";
},
{
name = Anchor17;
position = "{249, 717}";
},
{
name = Anchor18;
position = "{249, 754}";
},
{
name = Anchor19;
position = "{249, 593}";
},
{
name = Anchor21;
position = "{263, 0}";
},
{
name = Anchor23;
position = "{244, 0}";
},
{
name = Anchor26;
position = "{143, 0}";
},
{
name = Anchor31;
position = "{341, 478}";
}
);
layerId = UUID0;
paths = (
{
closed = 1;
nodes = (
"357 -12 OFFCURVE",
"445 68 OFFCURVE",
"445 171 CURVE SMOOTH",
"445 256 OFFCURVE",
"387 330 OFFCURVE",
"299 350 CURVE",
"299 714 LINE",
"209 714 LINE",
"209 350 LINE",
"122 329 OFFCURVE",
"63 256 OFFCURVE",
"63 171 CURVE SMOOTH",
"63 72 OFFCURVE",
"150 -12 OFFCURVE",
"254 -12 CURVE SMOOTH"
);
},
{
closed = 1;
nodes = (
"197 67 OFFCURVE",
"153 115 OFFCURVE",
"153 171 CURVE SMOOTH",
"153 230 OFFCURVE",
"197 276 OFFCURVE",
"254 276 CURVE SMOOTH",
"313 276 OFFCURVE",
"355 230 OFFCURVE",
"355 171 CURVE SMOOTH",
"355 114 OFFCURVE",
"311 67 OFFCURVE",
"254 67 CURVE SMOOTH"
);
}
);
width = 509;
}
);
unicode = 1102F;
category = Letter;
},
{
glyphname = brm_SHA;
lastChange = "2019-09-20 20:39:33 +0000";
layers = (
{
anchors = (
{
name = Anchor13;
position = "{292, 717}";
},
{
name = Anchor14;
position = "{292, 717}";
},
{
name = Anchor15;
position = "{327, 717}";
},
{
name = Anchor16;
position = "{327, 786}";
},
{
name = Anchor17;
position = "{327, 717}";
},
{
name = Anchor18;
position = "{307, 754}";
},
{
name = Anchor19;
position = "{327, 593}";
},
{
name = Anchor21;
position = "{327, 0}";
},
{
name = Anchor23;
position = "{289, 0}";
},
{
name = Anchor26;
position = "{367, 0}";
}
);
layerId = UUID0;
paths = (
{
closed = 1;
nodes = (
"367 0 LINE",
"367 547 LINE",
"391 445 LINE",
"534 0 LINE",
"629 0 LINE",
"372 714 LINE",
"287 714 LINE",
"29 0 LINE",
"124 0 LINE",
"269 451 LINE",
"289 537 LINE",
"289 0 LINE"
);
}
);
width = 659;
}
);
unicode = 11030;
category = Letter;
},
{
glyphname = brm_SSA;
lastChange = "2019-09-20 20:39:33 +0000";
layers = (
{
anchors = (
{
name = Anchor13;
position = "{102, 717}";
},
{
name = Anchor14;
position = "{102, 717}";
},
{
name = Anchor15;
position = "{146, 717}";
},
{
name = Anchor16;
position = "{141, 786}";
},
{
name = Anchor17;
position = "{141, 717}";
},
{
name = Anchor18;
position = "{146, 754}";
},
{
name = Anchor19;
position = "{141, 593}";
},
{
name = Anchor21;
position = "{312, 0}";
},
{
name = Anchor23;
position = "{439, 0}";
},
{
name = Anchor26;
position = "{146, 0}";
},
{
name = Anchor31;
position = "{263, 556}";
}
);
layerId = UUID0;
paths = (
{
closed = 1;
nodes = (
"478 -12 OFFCURVE",
"531 73 OFFCURVE",
"531 250 CURVE SMOOTH",
"531 252 LINE",
"441 252 LINE",
"441 250 LINE SMOOTH",
"441 139 OFFCURVE",
"423 72 OFFCURVE",
"312 72 CURVE SMOOTH",
"203 72 OFFCURVE",
"187 129 OFFCURVE",
"187 248 CURVE SMOOTH",
"187 365 LINE",
"466 456 LINE",
"441 531 LINE",
"187 448 LINE",
"187 714 LINE",
"98 714 LINE",
"98 252 LINE SMOOTH",
"98 79 OFFCURVE",
"144 -12 OFFCURVE",
"311 -12 CURVE SMOOTH"
);
}
);
width = 609;
}
);
unicode = 11031;
category = Letter;
},
{
glyphname = SA;
lastChange = "2019-09-20 20:39:33 +0000";
layers = (
{
anchors = (
{
name = Anchor13;
position = "{361, 717}";
},
{
name = Anchor14;
position = "{361, 717}";
},
{
name = Anchor15;
position = "{395, 717}";
},
{
name = Anchor16;
position = "{400, 786}";
},
{
name = Anchor17;
position = "{400, 717}";
},
{
name = Anchor18;
position = "{400, 754}";
},
{
name = Anchor19;
position = "{400, 593}";
},
{
name = Anchor21;
position = "{410, 0}";
},
{
name = Anchor23;
position = "{585, 0}";
},
{
name = Anchor26;
position = "{480, 80}";
},
{
name = Anchor31;
position = "{537, 478}";
}
);
layerId = UUID0;
paths = (
{
closed = 1;
nodes = (
"735 -12 OFFCURVE",
"814 60 OFFCURVE",
"814 250 CURVE SMOOTH",
"814 252 LINE",
"725 252 LINE",
"725 250 LINE SMOOTH",
"725 122 OFFCURVE",
"680 72 OFFCURVE",
"581 72 CURVE SMOOTH",
"481 72 OFFCURVE",
"442 117 OFFCURVE",
"442 249 CURVE SMOOTH",
"442 714 LINE",
"352 714 LINE",
"352 348 LINE",
"327 355 OFFCURVE",
"302 359 OFFCURVE",
"277 359 CURVE SMOOTH",
"148 359 OFFCURVE",
"78 300 OFFCURVE",
"78 163 CURVE SMOOTH",
"78 0 LINE",
"168 0 LINE",
"168 146 LINE SMOOTH",
"168 237 OFFCURVE",
"200 275 OFFCURVE",
"288 275 CURVE SMOOTH",
"313 275 OFFCURVE",
"334 272 OFFCURVE",
"352 267 CURVE",
"352 252 LINE SMOOTH",
"352 68 OFFCURVE",
"423 -12 OFFCURVE",
"577 -12 CURVE SMOOTH"
);
}
);
width = 878;
}
);
unicode = 11032;
category = Letter;
},
{
glyphname = brm_HA;
lastChange = "2019-09-20 20:39:33 +0000";
layers = (
{
anchors = (
{
name = Anchor13;
position = "{107, 717}";
},
{
name = Anchor14;
position = "{107, 717}";
},
{
name = Anchor15;
position = "{146, 717}";
},
{
name = Anchor16;
position = "{146, 786}";
},
{
name = Anchor17;
position = "{146, 717}";
},
{
name = Anchor18;
position = "{156, 754}";
},
{
name = Anchor19;
position = "{146, 593}";
},
{
name = Anchor21;
position = "{312, 0}";
},
{
name = Anchor23;
position = "{375, 0}";
},
{
name = Anchor26;
position = "{146, 0}";
},
{
name = Anchor31;
position = "{292, 478}";
}
);
layerId = UUID0;
paths = (
{
closed = 1;
nodes = (
"446 -12 OFFCURVE",
"514 44 OFFCURVE",
"527 175 CURVE",
"684 175 LINE",
"684 255 LINE",
"441 255 LINE",
"441 136 OFFCURVE",
"422 72 OFFCURVE",
"312 72 CURVE SMOOTH",
"202 72 OFFCURVE",
"187 129 OFFCURVE",
"187 249 CURVE SMOOTH",
"187 714 LINE",
"98 714 LINE",
"98 252 LINE SMOOTH",
"98 79 OFFCURVE",
"144 -12 OFFCURVE",
"311 -12 CURVE SMOOTH"
);
}
);
width = 732;
}
);
unicode = 11033;
category = Letter;
},
{
glyphname = brm_LLA;
lastChange = "2019-09-20 20:39:33 +0000";
layers = (
{
anchors = (
{
name = Anchor13;
position = "{595, 717}";
},
{
name = Anchor14;
position = "{595, 717}";
},
{
name = Anchor15;
position = "{590, 717}";
},
{
name = Anchor16;
position = "{590, 786}";
},
{
name = Anchor17;
position = "{590, 717}";
},
{
name = Anchor18;
position = "{590, 754}";
},
{
name = Anchor19;
position = "{590, 593}";
},
{
name = Anchor21;
position = "{429, 0}";
},
{
name = Anchor23;
position = "{478, 0}";
},
{
name = Anchor26;
position = "{320, 80}";
},
{
name = Anchor31;
position = "{693, 478}";
}
);
layerId = UUID0;
paths = (
{
closed = 1;
nodes = (
"587 -12 OFFCURVE",
"635 77 OFFCURVE",
"635 252 CURVE SMOOTH",
"635 266 LINE",
"654 272 OFFCURVE",
"676 275 OFFCURVE",
"701 275 CURVE SMOOTH",
"788 275 OFFCURVE",
"821 237 OFFCURVE",
"821 146 CURVE SMOOTH",
"821 0 LINE",
"911 0 LINE",
"911 163 LINE SMOOTH",
"911 300 OFFCURVE",
"842 359 OFFCURVE",
"711 359 CURVE SMOOTH",
"684 359 OFFCURVE",
"659 355 OFFCURVE",
"635 347 CURVE",
"635 714 LINE",
"545 714 LINE",
"545 247 LINE SMOOTH",
"545 130 OFFCURVE",
"524 72 OFFCURVE",
"428 72 CURVE SMOOTH",
"327 72 OFFCURVE",
"292 107 OFFCURVE",
"291 255 CURVE",
"49 255 LINE",
"49 175 LINE",
"205 175 LINE",
"220 44 OFFCURVE",
"288 -12 OFFCURVE",
"421 -12 CURVE SMOOTH"
);
}
);
width = 989;
}
);
unicode = 11034;
category = Letter;
},
{
glyphname = brm_LLLA;
lastChange = "2019-09-20 20:39:33 +0000";
layers = (
{
anchors = (
{
name = Anchor13;
position = "{463, 585}";
},
{
name = Anchor14;
position = "{463, 585}";
},
{
name = Anchor15;
position = "{322, 717}";
},
{
name = Anchor16;
position = "{322, 786}";
},
{
name = Anchor17;
position = "{185, 659}";
},
{
name = Anchor18;
position = "{185, 537}";
},
{
name = Anchor19;
position = "{0, 0}";
},
{
name = Anchor21;
position = "{244, 0}";
},
{
name = Anchor23;
position = "{63, 0}";
},
{
name = Anchor26;
position = "{153, 0}";
}
);
layerId = UUID0;
paths = (
{
closed = 1;
nodes = (
"153 0 LINE",
"153 179 LINE",
"373 179 LINE",
"373 333 LINE",
"462 352 OFFCURVE",
"533 429 OFFCURVE",
"533 527 CURVE SMOOTH",
"533 639 OFFCURVE",
"438 724 OFFCURVE",
"328 724 CURVE SMOOTH",
"218 724 OFFCURVE",
"122 637 OFFCURVE",
"122 526 CURVE SMOOTH",
"122 429 OFFCURVE",
"191 353 OFFCURVE",
"283 333 CURVE",
"283 259 LINE",
"63 259 LINE",
"63 0 LINE"
);
},
{
closed = 1;
nodes = (
"238 429 OFFCURVE",
"208 473 OFFCURVE",
"208 525 CURVE SMOOTH",
"208 580 OFFCURVE",
"238 624 OFFCURVE",
"286 640 CURVE",
"286 412 LINE"
);
},
{
closed = 1;
nodes = (
"370 640 LINE",
"417 623 OFFCURVE",
"448 580 OFFCURVE",
"448 525 CURVE SMOOTH",
"448 473 OFFCURVE",
"418 429 OFFCURVE",
"370 412 CURVE"
);
}
);
width = 582;
}
);
unicode = 11035;
category = Letter;
},
{
glyphname = brm_RRA;
lastChange = "2019-09-20 20:39:33 +0000";
layers = (
{
anchors = (
{
name = Anchor13;
position = "{292, 717}";
},
{
name = Anchor14;
position = "{292, 717}";
},
{
name = Anchor15;
position = "{390, 717}";
},
{
name = Anchor16;
position = "{322, 786}";
},
{
name = Anchor17;
position = "{224, 634}";
},
{
name = Anchor18;
position = "{253, 576}";
},
{
name = Anchor19;
position = "{0, 0}";
},
{
name = Anchor21;
position = "{244, 0}";
},
{
name = Anchor23;
position = "{370, 0}";
},
{
name = Anchor26;
position = "{146, 0}";
}
);
layerId = UUID0;
paths = (
{
closed = 1;
nodes = (
"153 0 LINE",
"153 122 LINE SMOOTH",
"153 209 OFFCURVE",
"184 246 OFFCURVE",
"273 246 CURVE SMOOTH",
"297 246 OFFCURVE",
"319 243 OFFCURVE",
"338 237 CURVE",
"338 0 LINE",
"428 0 LINE",
"428 513 LINE",
"344 513 LINE SMOOTH",
"277 513 OFFCURVE",
"243 532 OFFCURVE",
"243 569 CURVE SMOOTH",
"243 617 OFFCURVE",
"273 634 OFFCURVE",
"344 634 CURVE SMOOTH",
"428 634 LINE",
"428 714 LINE",
"342 714 LINE SMOOTH",
"222 714 OFFCURVE",
"153 666 OFFCURVE",
"153 569 CURVE SMOOTH",
"153 481 OFFCURVE",
"219 434 OFFCURVE",
"338 433 CURVE",
"338 318 LINE",
"313 326 OFFCURVE",
"288 330 OFFCURVE",
"263 330 CURVE SMOOTH",
"126 330 OFFCURVE",
"63 268 OFFCURVE",
"63 139 CURVE SMOOTH",
"63 0 LINE"
);
}
);
width = 525;
}
);
unicode = 11036;
category = Letter;
},
{
glyphname = brm_NNNA;
lastChange = "2019-09-20 20:39:33 +0000";
layers = (
{
anchors = (
{
name = Anchor13;
position = "{288, 727}";
},
{
name = Anchor14;
position = "{468, 566}";
},
{
name = Anchor15;
position = "{439, 683}";
},
{
name = Anchor16;
position = "{351, 786}";
},
{
name = Anchor17;
position = "{244, 585}";
},
{
name = Anchor18;
position = "{244, 488}";
},
{
name = Anchor19;
position = "{0, 0}";
},
{
name = Anchor21;
position = "{292, 0}";
},
{
name = Anchor23;
position = "{537, 0}";
},
{
name = Anchor26;
position = "{244, 0}";
}
);
layerId = UUID0;
paths = (
{
closed = 1;
nodes = (
"549 0 LINE",
"549 79 LINE",
"254 79 LINE",
"254 497 LINE SMOOTH",
"254 604 OFFCURVE",
"280 642 OFFCURVE",
"359 642 CURVE SMOOTH",
"435 642 OFFCURVE",
"459 604 OFFCURVE",
"459 496 CURVE SMOOTH",
"459 482 LINE",
"549 482 LINE",
"549 496 LINE SMOOTH",
"549 661 OFFCURVE",
"489 726 OFFCURVE",
"354 726 CURVE SMOOTH",
"221 726 OFFCURVE",
"165 659 OFFCURVE",
"165 494 CURVE SMOOTH",
"165 79 LINE",
"49 79 LINE",
"49 0 LINE"
);
}
);
width = 627;
}
);
unicode = 11037;
category = Letter;
},
{
glyphname = brm_vowelAA;
lastChange = "2019-09-20 20:39:33 +0000";
layers = (
{
anchors = (
{
name = Anchor33;
position = "{126, 786}";
},
{
name = _Anchor14;
position = "{-8, 717}";
}
);
layerId = UUID0;
paths = (
{
closed = 1;
nodes = (
"0 634 LINE",
"278 634 LINE",
"278 714 LINE",
"0 714 LINE"
);
}
);
width = 0;
}
);
unicode = 11038;
category = Mark;
subCategory = Nonspacing;
},
{
glyphname = brm_vowelBHATTIPROLUAA;
lastChange = "2019-09-20 20:39:33 +0000";
layers = (
{
anchors = (
{
name = Anchor33;
position = "{146, 917}";
},
{
name = _Anchor15;
position = "{241, 632}";
}
);
layerId = UUID0;
paths = (
{
closed = 1;
nodes = (
"0 759 LINE",
"201 759 LINE",
"201 624 LINE",
"286 624 LINE",
"286 839 LINE",
"0 839 LINE"
);
}
);
width = 0;
}
);
unicode = 11039;
category = Mark;
subCategory = Nonspacing;
},
{
glyphname = brm_vowelI;
lastChange = "2019-09-20 20:39:33 +0000";
layers = (
{
anchors = (
{
name = Anchor33;
position = "{126, 888}";
},
{
name = _Anchor13;
position = "{-5, 717}";
}
);
layerId = UUID0;
paths = (
{
closed = 1;
nodes = (
"0 634 LINE",
"286 634 LINE",
"286 839 LINE",
"201 839 LINE",
"201 714 LINE",
"0 714 LINE"
);
}
);
width = 0;
}
);
unicode = 1103A;
category = Mark;
subCategory = Nonspacing;
},
{
glyphname = brm_vowelII;
lastChange = "2019-09-20 20:39:33 +0000";
layers = (
{
anchors = (
{
name = Anchor33;
position = "{170, 888}";
},
{
name = _Anchor13;
position = "{-5, 717}";
}
);
layerId = UUID0;
paths = (
{
closed = 1;
nodes = (
"315 634 LINE",
"315 839 LINE",
"230 839 LINE",
"230 714 LINE",
"164 714 LINE",
"164 839 LINE",
"79 839 LINE",
"79 714 LINE",
"0 714 LINE",
"0 634 LINE"
);
}
);
width = 0;
}
);
unicode = 1103B;
category = Mark;
subCategory = Nonspacing;
},
{
glyphname = brm_vowelU;
lastChange = "2019-09-20 20:39:33 +0000";
layers = (
{
anchors = (
{
name = _Anchor23;
position = "{0, 0}";
}
);
layerId = UUID0;
paths = (
{
closed = 1;
nodes = (
"0 0 LINE",
"269 0 LINE",
"269 80 LINE",
"0 80 LINE"
);
}
);
width = 0;
}
);
unicode = 1103C;
category = Mark;
subCategory = Nonspacing;
},
{
glyphname = brm_vowelUU;
lastChange = "2019-09-20 20:39:33 +0000";
layers = (
{
anchors = (
{
name = _Anchor23;
position = "{0, 0}";
}
);
layerId = UUID0;
paths = (
{
closed = 1;
nodes = (
"0 0 LINE",
"269 0 LINE",
"269 80 LINE",
"0 80 LINE"
);
},
{
closed = 1;
nodes = (
"0 156 LINE",
"269 156 LINE",
"269 236 LINE",
"0 236 LINE"
);
}
);
width = 0;
}
);
unicode = 1103D;
category = Mark;
subCategory = Nonspacing;
},
{
glyphname = brm_VOCALIC_R;
lastChange = "2019-09-20 20:39:33 +0000";
layers = (
{
anchors = (
{
name = _Anchor26;
position = "{0, 0}";
}
);
layerId = UUID0;
paths = (
{
closed = 1;
nodes = (
"-269 0 LINE",
"0 0 LINE",
"0 80 LINE",
"-269 80 LINE"
);
}
);
width = 0;
}
);
unicode = 1103E;
category = Mark;
subCategory = Nonspacing;
},
{
glyphname = brm_VOCALIC_RR;
lastChange = "2019-09-20 20:39:33 +0000";
layers = (
{
anchors = (
{
name = _Anchor26;
position = "{0, 0}";
}
);
layerId = UUID0;
paths = (
{
closed = 1;
nodes = (
"-269 0 LINE",
"0 0 LINE",
"0 80 LINE",
"-269 80 LINE"
);
},
{
closed = 1;
nodes = (
"-269 156 LINE",
"0 156 LINE",
"0 236 LINE",
"-269 236 LINE"
);
}
);
width = 0;
}
);
unicode = 1103F;
category = Mark;
subCategory = Nonspacing;
},
{
glyphname = brm_VOCALIC_L;
lastChange = "2019-09-20 20:39:33 +0000";
layers = (
{
anchors = (
{
name = _Anchor21;
position = "{258, 24}";
}
);
layerId = UUID0;
paths = (
{
closed = 1;
nodes = (
"169 -273 OFFCURVE",
"184 -271 OFFCURVE",
"199 -266 CURVE",
"188 -199 LINE",
"179 -202 OFFCURVE",
"167 -204 OFFCURVE",
"152 -204 CURVE SMOOTH",
"109 -204 OFFCURVE",
"75 -175 OFFCURVE",
"75 -132 CURVE SMOOTH",
"75 -93 OFFCURVE",
"107 -64 OFFCURVE",
"147 -64 CURVE SMOOTH",
"191 -64 OFFCURVE",
"226 -89 OFFCURVE",
"277 -147 CURVE SMOOTH",
"325 -202 OFFCURVE",
"366 -229 OFFCURVE",
"414 -229 CURVE SMOOTH",
"478 -229 OFFCURVE",
"519 -190 OFFCURVE",
"519 -131 CURVE SMOOTH",
"519 -86 OFFCURVE",
"504 -53 OFFCURVE",
"475 -33 CURVE",
"414 -74 LINE",
"431 -86 OFFCURVE",
"444 -110 OFFCURVE",
"444 -126 CURVE SMOOTH",
"444 -150 OFFCURVE",
"431 -160 OFFCURVE",
"412 -160 CURVE SMOOTH",
"379 -160 OFFCURVE",
"351 -128 OFFCURVE",
"307 -78 CURVE SMOOTH",
"259 -24 OFFCURVE",
"205 5 OFFCURVE",
"143 5 CURVE SMOOTH",
"59 5 OFFCURVE",
"0 -51 OFFCURVE",
"0 -132 CURVE SMOOTH",
"0 -221 OFFCURVE",
"57 -273 OFFCURVE",
"152 -273 CURVE SMOOTH"
);
}
);
width = 0;
}
);
unicode = 11040;
category = Mark;
subCategory = Nonspacing;
},
{
glyphname = brm_VOCALIC_LL;
lastChange = "2019-09-20 20:39:33 +0000";
layers = (
{
anchors = (
{
name = _Anchor21;
position = "{258, 24}";
}
);
layerId = UUID0;
paths = (
{
closed = 1;
nodes = (
"169 -273 OFFCURVE",
"184 -271 OFFCURVE",
"199 -266 CURVE",
"188 -199 LINE",
"179 -202 OFFCURVE",
"167 -204 OFFCURVE",
"152 -204 CURVE SMOOTH",
"109 -204 OFFCURVE",
"75 -175 OFFCURVE",
"75 -132 CURVE SMOOTH",
"75 -93 OFFCURVE",
"107 -64 OFFCURVE",
"147 -64 CURVE SMOOTH",
"190 -64 OFFCURVE",
"226 -90 OFFCURVE",
"277 -147 CURVE SMOOTH",
"326 -202 OFFCURVE",
"366 -229 OFFCURVE",
"414 -229 CURVE SMOOTH",
"478 -229 OFFCURVE",
"519 -190 OFFCURVE",
"519 -131 CURVE SMOOTH",
"519 -86 OFFCURVE",
"504 -53 OFFCURVE",
"475 -33 CURVE",
"414 -74 LINE",
"431 -86 OFFCURVE",
"444 -110 OFFCURVE",
"444 -126 CURVE SMOOTH",
"444 -150 OFFCURVE",
"431 -160 OFFCURVE",
"412 -160 CURVE SMOOTH",
"383 -160 OFFCURVE",
"358 -135 OFFCURVE",
"333 -106 CURVE",
"388 -34 LINE",
"336 6 LINE",
"287 -58 LINE",
"244 -16 OFFCURVE",
"196 5 OFFCURVE",
"143 5 CURVE SMOOTH",
"59 5 OFFCURVE",
"0 -51 OFFCURVE",
"0 -132 CURVE SMOOTH",
"0 -221 OFFCURVE",
"57 -273 OFFCURVE",
"152 -273 CURVE SMOOTH"
);
}
);
width = 0;
}
);
unicode = 11041;
category = Mark;
subCategory = Nonspacing;
},
{
glyphname = brm_vowelEE;
lastChange = "2019-09-20 20:39:33 +0000";
layers = (
{
anchors = (
{
name = Anchor33;
position = "{-137, 786}";
},
{
name = _Anchor17;
position = "{9, 717}";
}
);
layerId = UUID0;
paths = (
{
closed = 1;
nodes = (
"-269 634 LINE",
"0 634 LINE",
"0 714 LINE",
"-269 714 LINE"
);
}
);
width = 0;
}
);
unicode = 11042;
category = Mark;
subCategory = Nonspacing;
},
{
glyphname = brm_vowelAI;
lastChange = "2019-09-20 20:39:33 +0000";
layers = (
{
anchors = (
{
name = Anchor33;
position = "{-137, 927}";
},
{
name = _Anchor18;
position = "{0, 751}";
}
);
layerId = UUID0;
paths = (
{
closed = 1;
nodes = (
"-259 634 LINE",
"0 634 LINE",
"0 714 LINE",
"-259 714 LINE"
);
},
{
closed = 1;
nodes = (
"-259 794 LINE",
"0 794 LINE",
"0 874 LINE",
"-259 874 LINE"
);
}
);
width = 0;
}
);
unicode = 11043;
category = Mark;
subCategory = Nonspacing;
},
{
glyphname = brm_vowelOO;
lastChange = "2019-09-20 20:39:33 +0000";
layers = (
{
anchors = (
{
name = Anchor33;
position = "{283, 786}";
},
{
name = _Anchor17;
position = "{273, 717}";
}
);
layerId = UUID0;
paths = (
{
closed = 1;
nodes = (
"0 634 LINE",
"259 634 LINE",
"259 714 LINE",
"0 714 LINE"
);
},
{
closed = 1;
nodes = (
"275 634 LINE",
"534 634 LINE",
"534 714 LINE",
"275 714 LINE"
);
}
);
width = 0;
}
);
unicode = 11044;
category = Mark;
subCategory = Nonspacing;
},
{
glyphname = brm_vowelAU;
lastChange = "2019-09-20 20:39:33 +0000";
layers = (
{
anchors = (
{
name = Anchor33;
position = "{283, 786}";
},
{
name = _Anchor19;
position = "{292, 593}";
}
);
layerId = UUID0;
paths = (
{
closed = 1;
nodes = (
"0 474 LINE",
"269 474 LINE",
"269 554 LINE",
"0 554 LINE"
);
},
{
closed = 1;
nodes = (
"0 634 LINE",
"269 634 LINE",
"269 714 LINE",
"0 714 LINE"
);
},
{
closed = 1;
nodes = (
"310 554 LINE",
"578 554 LINE",
"578 634 LINE",
"310 634 LINE"
);
}
);
width = 0;
}
);
unicode = 11045;
category = Mark;
subCategory = Nonspacing;
},
{
glyphname = brm_virama;
lastChange = "2019-09-20 20:39:33 +0000";
layers = (
{
anchors = (
{
name = _Anchor16;
position = "{145, 786}";
}
);
layerId = UUID0;
paths = (
{
closed = 1;
nodes = (
"0 801 LINE",
"290 801 LINE",
"290 881 LINE",
"0 881 LINE"
);
}
);
width = 0;
}
);
unicode = 11046;
category = Mark;
subCategory = Nonspacing;
},
{
glyphname = brm_danda;
lastChange = "2019-09-20 20:39:33 +0000";
layers = (
{
layerId = UUID0;
paths = (
{
closed = 1;
nodes = (
"137 0 LINE",
"208 0 LINE",
"208 825 LINE",
"137 825 LINE"
);
}
);
width = 345;
}
);
unicode = 11047;
category = Letter;
},
{
glyphname = brm_doubledanda;
lastChange = "2019-09-20 20:39:33 +0000";
layers = (
{
layerId = UUID0;
paths = (
{
closed = 1;
nodes = (
"137 0 LINE",
"208 0 LINE",
"208 825 LINE",
"137 825 LINE"
);
},
{
closed = 1;
nodes = (
"283 0 LINE",
"354 0 LINE",
"354 825 LINE",
"283 825 LINE"
);
}
);
width = 491;
}
);
unicode = 11048;
category = Letter;
},
{
glyphname = brm_punctDOT;
lastChange = "2019-09-20 20:39:33 +0000";
layers = (
{
layerId = UUID0;
paths = (
{
closed = 1;
nodes = (
"146 332 LINE",
"376 332 LINE",
"376 412 LINE",
"146 412 LINE"
);
}
);
width = 522;
}
);
unicode = 11049;
category = Letter;
},
{
glyphname = brm_punctDBLDOT;
lastChange = "2019-09-20 20:39:33 +0000";
layers = (
{
layerId = UUID0;
paths = (
{
closed = 1;
nodes = (
"146 412 LINE",
"376 412 LINE",
"376 492 LINE",
"146 492 LINE"
);
},
{
closed = 1;
nodes = (
"146 252 LINE",
"376 252 LINE",
"376 332 LINE",
"146 332 LINE"
);
}
);
width = 522;
}
);
unicode = 1104A;
category = Letter;
},
{
glyphname = brm_punctLINE;
lastChange = "2019-09-20 20:39:33 +0000";
layers = (
{
layerId = UUID0;
paths = (
{
closed = 1;
nodes = (
"49 332 LINE",
"913 332 LINE",
"913 412 LINE",
"49 412 LINE"
);
}
);
width = 962;
}
);
unicode = 1104B;
category = Letter;
},
{
glyphname = brm_punctBAR;
lastChange = "2019-09-20 20:39:33 +0000";
layers = (
{
layerId = UUID0;
paths = (
{
closed = 1;
nodes = (
"577 -10 OFFCURVE",
"692 126 OFFCURVE",
"700 333 CURVE",
"847 333 LINE",
"847 412 LINE",
"698 412 LINE",
"679 612 OFFCURVE",
"561 725 OFFCURVE",
"373 725 CURVE SMOOTH",
"238 725 OFFCURVE",
"141 671 OFFCURVE",
"89 574 CURVE",
"176 544 LINE",
"215 612 OFFCURVE",
"280 646 OFFCURVE",
"373 646 CURVE SMOOTH",
"511 646 OFFCURVE",
"588 568 OFFCURVE",
"603 412 CURVE",
"49 412 LINE",
"49 333 LINE",
"605 333 LINE",
"598 158 OFFCURVE",
"517 68 OFFCURVE",
"372 68 CURVE SMOOTH",
"262 68 OFFCURVE",
"190 118 OFFCURVE",
"156 218 CURVE",
"65 197 LINE",
"110 62 OFFCURVE",
"215 -10 OFFCURVE",
"372 -10 CURVE SMOOTH"
);
}
);
width = 896;
}
);
unicode = 1104C;
category = Letter;
},
{
glyphname = brm_Lotus;
lastChange = "2019-09-20 20:39:33 +0000";
layers = (
{
layerId = UUID0;
paths = (
{
closed = 1;
nodes = (
"482 -87 OFFCURVE",
"504 -67 OFFCURVE",
"533 -32 CURVE SMOOTH",
"562 3 OFFCURVE",
"581 28 OFFCURVE",
"590 45 CURVE",
"617 36 OFFCURVE",
"655 32 OFFCURVE",
"704 32 CURVE SMOOTH",
"717 32 OFFCURVE",
"773 33 OFFCURVE",
"778 35 CURVE",
"780 103 LINE SMOOTH",
"781 150 OFFCURVE",
"776 195 OFFCURVE",
"767 223 CURVE",
"820 248 OFFCURVE",
"892 331 OFFCURVE",
"904 345 CURVE",
"895 356 OFFCURVE",
"881 371 OFFCURVE",
"861 392 CURVE SMOOTH",
"841 413 OFFCURVE",
"823 429 OFFCURVE",
"806 442 CURVE SMOOTH",
"790 455 OFFCURVE",
"777 464 OFFCURVE",
"766 469 CURVE",
"775 495 OFFCURVE",
"781 536 OFFCURVE",
"780 587 CURVE SMOOTH",
"778 656 LINE",
"769 657 OFFCURVE",
"738 659 OFFCURVE",
"704 659 CURVE SMOOTH",
"655 659 OFFCURVE",
"617 655 OFFCURVE",
"590 646 CURVE",
"577 668 OFFCURVE",
"557 695 OFFCURVE",
"529 727 CURVE SMOOTH",
"501 760 OFFCURVE",
"480 779 OFFCURVE",
"467 785 CURVE",
"444 766 OFFCURVE",
"419 743 OFFCURVE",
"394 716 CURVE SMOOTH",
"369 689 OFFCURVE",
"352 667 OFFCURVE",
"344 648 CURVE",
"315 655 OFFCURVE",
"277 659 OFFCURVE",
"229 659 CURVE SMOOTH",
"195 659 OFFCURVE",
"163 657 OFFCURVE",
"156 656 CURVE",
"154 598 LINE SMOOTH",
"152 539 OFFCURVE",
"158 495 OFFCURVE",
"168 469 CURVE",
"149 460 OFFCURVE",
"125 444 OFFCURVE",
"97 417 CURVE SMOOTH",
"70 391 OFFCURVE",
"47 367 OFFCURVE",
"29 345 CURVE",
"40 331 OFFCURVE",
"60 309 OFFCURVE",
"91 279 CURVE SMOOTH",
"122 249 OFFCURVE",
"148 231 OFFCURVE",
"167 223 CURVE",
"158 195 OFFCURVE",
"151 159 OFFCURVE",
"154 87 CURVE SMOOTH",
"156 35 LINE",
"160 34 OFFCURVE",
"213 32 OFFCURVE",
"229 32 CURVE SMOOTH",
"267 32 OFFCURVE",
"305 37 OFFCURVE",
"342 46 CURVE",
"349 29 OFFCURVE",
"366 6 OFFCURVE",
"391 -22 CURVE SMOOTH",
"416 -50 OFFCURVE",
"442 -74 OFFCURVE",
"467 -94 CURVE"
);
},
{
closed = 1;
nodes = (
"403 250 OFFCURVE",
"457 305 OFFCURVE",
"457 328 CURVE SMOOTH",
"457 332 OFFCURVE",
"456 335 OFFCURVE",
"451 335 CURVE SMOOTH",
"434 335 OFFCURVE",
"378 278 OFFCURVE",
"378 257 CURVE SMOOTH",
"378 253 OFFCURVE",
"379 250 OFFCURVE",
"386 250 CURVE SMOOTH"
);
},
{
closed = 1;
nodes = (
"425 330 OFFCURVE",
"450 337 OFFCURVE",
"450 346 CURVE SMOOTH",
"450 355 OFFCURVE",
"423 361 OFFCURVE",
"394 361 CURVE SMOOTH",
"363 361 OFFCURVE",
"339 354 OFFCURVE",
"339 346 CURVE SMOOTH",
"339 337 OFFCURVE",
"363 330 OFFCURVE",
"394 330 CURVE SMOOTH"
);
},
{
closed = 1;
nodes = (
"476 218 OFFCURVE",
"482 242 OFFCURVE",
"482 273 CURVE SMOOTH",
"482 302 OFFCURVE",
"475 329 OFFCURVE",
"467 329 CURVE SMOOTH",
"458 329 OFFCURVE",
"452 301 OFFCURVE",
"452 273 CURVE SMOOTH",
"452 242 OFFCURVE",
"458 218 OFFCURVE",
"467 218 CURVE SMOOTH"
);
},
{
closed = 1;
nodes = (
"552 250 OFFCURVE",
"556 250 OFFCURVE",
"556 256 CURVE SMOOTH",
"556 278 OFFCURVE",
"501 335 OFFCURVE",
"483 335 CURVE SMOOTH",
"478 335 OFFCURVE",
"477 332 OFFCURVE",
"477 328 CURVE SMOOTH",
"477 306 OFFCURVE",
"528 250 OFFCURVE",
"548 250 CURVE SMOOTH"
);
},
{
closed = 1;
nodes = (
"448 -34 OFFCURVE",
"428 -15 OFFCURVE",
"407 10 CURVE SMOOTH",
"386 36 OFFCURVE",
"376 54 OFFCURVE",
"376 64 CURVE SMOOTH",
"376 87 OFFCURVE",
"397 139 OFFCURVE",
"430 196 CURVE",
"398 218 LINE",
"367 153 OFFCURVE",
"348 108 OFFCURVE",
"341 84 CURVE",
"334 79 OFFCURVE",
"319 75 OFFCURVE",
"295 70 CURVE SMOOTH",
"272 65 OFFCURVE",
"250 64 OFFCURVE",
"231 64 CURVE SMOOTH",
"214 64 OFFCURVE",
"200 65 OFFCURVE",
"189 68 CURVE",
"187 77 OFFCURVE",
"186 90 OFFCURVE",
"186 107 CURVE SMOOTH",
"186 158 OFFCURVE",
"195 205 OFFCURVE",
"205 215 CURVE SMOOTH",
"211 221 LINE",
"239 228 OFFCURVE",
"283 247 OFFCURVE",
"342 277 CURVE",
"319 310 LINE",
"270 279 OFFCURVE",
"215 256 OFFCURVE",
"187 256 CURVE SMOOTH",
"177 256 OFFCURVE",
"159 266 OFFCURVE",
"134 286 CURVE SMOOTH",
"109 306 OFFCURVE",
"90 326 OFFCURVE",
"76 346 CURVE",
"88 363 OFFCURVE",
"107 382 OFFCURVE",
"133 403 CURVE SMOOTH",
"159 424 OFFCURVE",
"177 436 OFFCURVE",
"187 436 CURVE SMOOTH",
"192 436 OFFCURVE",
"204 434 OFFCURVE",
"221 428 CURVE SMOOTH",
"240 421 OFFCURVE",
"276 407 OFFCURVE",
"329 386 CURVE",
"336 426 LINE",
"313 431 OFFCURVE",
"288 439 OFFCURVE",
"261 450 CURVE SMOOTH",
"234 461 OFFCURVE",
"216 471 OFFCURVE",
"205 481 CURVE SMOOTH",
"193 492 OFFCURVE",
"186 540 OFFCURVE",
"186 583 CURVE SMOOTH",
"186 601 OFFCURVE",
"187 615 OFFCURVE",
"189 624 CURVE",
"201 625 OFFCURVE",
"215 626 OFFCURVE",
"231 626 CURVE SMOOTH",
"248 626 OFFCURVE",
"267 624 OFFCURVE",
"290 620 CURVE SMOOTH",
"313 616 OFFCURVE",
"330 611 OFFCURVE",
"341 605 CURVE",
"352 571 OFFCURVE",
"371 527 OFFCURVE",
"398 473 CURVE",
"430 495 LINE",
"397 554 OFFCURVE",
"376 606 OFFCURVE",
"376 627 CURVE SMOOTH",
"376 638 OFFCURVE",
"386 656 OFFCURVE",
"407 681 CURVE SMOOTH",
"428 707 OFFCURVE",
"448 726 OFFCURVE",
"467 738 CURVE",
"486 725 OFFCURVE",
"506 705 OFFCURVE",
"526 680 CURVE SMOOTH",
"546 655 OFFCURVE",
"557 638 OFFCURVE",
"557 627 CURVE SMOOTH",
"557 603 OFFCURVE",
"536 554 OFFCURVE",
"503 495 CURVE",
"535 473 LINE",
"558 522 OFFCURVE",
"573 555 OFFCURVE",
"582 577 CURVE SMOOTH",
"597 613 OFFCURVE",
"611 618 OFFCURVE",
"646 622 CURVE SMOOTH",
"663 624 OFFCURVE",
"682 626 OFFCURVE",
"702 626 CURVE SMOOTH",
"718 626 OFFCURVE",
"732 625 OFFCURVE",
"745 624 CURVE",
"746 614 OFFCURVE",
"747 600 OFFCURVE",
"747 583 CURVE SMOOTH",
"747 536 OFFCURVE",
"738 490 OFFCURVE",
"729 481 CURVE SMOOTH",
"718 470 OFFCURVE",
"698 460 OFFCURVE",
"671 449 CURVE SMOOTH",
"644 438 OFFCURVE",
"620 431 OFFCURVE",
"597 426 CURVE",
"605 386 LINE",
"658 406 OFFCURVE",
"689 418 OFFCURVE",
"706 425 CURVE SMOOTH",
"722 432 OFFCURVE",
"741 436 OFFCURVE",
"746 436 CURVE SMOOTH",
"757 436 OFFCURVE",
"774 425 OFFCURVE",
"799 404 CURVE SMOOTH",
"824 383 OFFCURVE",
"844 364 OFFCURVE",
"857 346 CURVE",
"844 327 OFFCURVE",
"824 307 OFFCURVE",
"799 286 CURVE SMOOTH",
"774 265 OFFCURVE",
"757 256 OFFCURVE",
"746 256 CURVE SMOOTH",
"721 256 OFFCURVE",
"669 277 OFFCURVE",
"614 310 CURVE",
"591 277 LINE",
"646 249 OFFCURVE",
"690 230 OFFCURVE",
"722 221 CURVE",
"729 215 LINE SMOOTH",
"739 207 OFFCURVE",
"747 158 OFFCURVE",
"747 107 CURVE SMOOTH",
"747 91 OFFCURVE",
"746 78 OFFCURVE",
"745 68 CURVE",
"734 65 OFFCURVE",
"720 64 OFFCURVE",
"702 64 CURVE SMOOTH",
"655 64 OFFCURVE",
"616 71 OFFCURVE",
"604 81 CURVE SMOOTH",
"598 86 OFFCURVE",
"589 96 OFFCURVE",
"583 111 CURVE SMOOTH",
"574 133 OFFCURVE",
"564 156 OFFCURVE",
"553 179 CURVE SMOOTH",
"547 192 OFFCURVE",
"541 205 OFFCURVE",
"535 218 CURVE",
"503 196 LINE",
"536 139 OFFCURVE",
"557 88 OFFCURVE",
"557 64 CURVE SMOOTH",
"557 54 OFFCURVE",
"547 36 OFFCURVE",
"527 11 CURVE SMOOTH",
"507 -14 OFFCURVE",
"487 -33 OFFCURVE",
"467 -47 CURVE"
);
},
{
closed = 1;
nodes = (
"455 357 OFFCURVE",
"457 359 OFFCURVE",
"457 364 CURVE SMOOTH",
"457 381 OFFCURVE",
"404 441 OFFCURVE",
"384 441 CURVE SMOOTH",
"380 441 OFFCURVE",
"378 438 OFFCURVE",
"378 434 CURVE SMOOTH",
"378 412 OFFCURVE",
"432 357 OFFCURVE",
"449 357 CURVE SMOOTH"
);
},
{
closed = 1;
nodes = (
"570 330 OFFCURVE",
"595 337 OFFCURVE",
"595 346 CURVE SMOOTH",
"595 355 OFFCURVE",
"568 361 OFFCURVE",
"539 361 CURVE SMOOTH",
"508 361 OFFCURVE",
"484 354 OFFCURVE",
"484 346 CURVE SMOOTH",
"484 337 OFFCURVE",
"508 330 OFFCURVE",
"539 330 CURVE SMOOTH"
);
},
{
closed = 1;
nodes = (
"476 363 OFFCURVE",
"482 387 OFFCURVE",
"482 418 CURVE SMOOTH",
"482 447 OFFCURVE",
"475 474 OFFCURVE",
"467 474 CURVE SMOOTH",
"458 474 OFFCURVE",
"452 446 OFFCURVE",
"452 418 CURVE SMOOTH",
"452 387 OFFCURVE",
"458 363 OFFCURVE",
"467 363 CURVE SMOOTH"
);
},
{
closed = 1;
nodes = (
"503 357 OFFCURVE",
"556 413 OFFCURVE",
"556 435 CURVE SMOOTH",
"556 437 OFFCURVE",
"553 441 OFFCURVE",
"550 441 CURVE SMOOTH",
"531 441 OFFCURVE",
"477 385 OFFCURVE",
"477 364 CURVE SMOOTH",
"477 360 OFFCURVE",
"478 357 OFFCURVE",
"484 357 CURVE SMOOTH"
);
}
);
width = 934;
}
);
unicode = 1104D;
category = Letter;
},
{
glyphname = brm_num1;
lastChange = "2019-09-20 20:39:33 +0000";
layers = (
{
layerId = UUID0;
paths = (
{
closed = 1;
nodes = (
"671 381 LINE",
"98 381 LINE",
"98 301 LINE",
"671 301 LINE"
);
}
);
width = 769;
}
);
unicode = 11052;
category = Letter;
},
{
glyphname = brm_num2;
lastChange = "2019-09-20 20:39:33 +0000";
layers = (
{
layerId = UUID0;
paths = (
{
closed = 1;
nodes = (
"671 478 LINE",
"98 478 LINE",
"98 398 LINE",
"671 398 LINE"
);
},
{
closed = 1;
nodes = (
"671 283 LINE",
"98 283 LINE",
"98 203 LINE",
"671 203 LINE"
);
}
);
width = 769;
}
);
unicode = 11053;
category = Letter;
},
{
glyphname = brm_num3;
lastChange = "2019-09-20 20:39:33 +0000";
layers = (
{
layerId = UUID0;
paths = (
{
closed = 1;
nodes = (
"670 381 LINE",
"97 381 LINE",
"97 301 LINE",
"670 301 LINE"
);
},
{
closed = 1;
nodes = (
"670 576 LINE",
"97 576 LINE",
"97 496 LINE",
"670 496 LINE"
);
},
{
closed = 1;
nodes = (
"670 186 LINE",
"97 186 LINE",
"97 105 LINE",
"670 105 LINE"
);
}
);
width = 791;
}
);
unicode = 11054;
category = Letter;
},
{
glyphname = brm_num4;
lastChange = "2019-09-20 20:39:33 +0000";
layers = (
{
layerId = UUID0;
paths = (
{
closed = 1;
nodes = (
"441 36 LINE",
"441 301 LINE",
"695 301 LINE",
"695 381 LINE",
"441 381 LINE",
"441 634 LINE",
"352 634 LINE",
"352 381 LINE",
"98 381 LINE",
"98 301 LINE",
"352 301 LINE",
"352 36 LINE"
);
}
);
width = 793;
}
);
unicode = 11055;
category = Letter;
},
{
glyphname = brm_num5;
lastChange = "2019-09-20 20:39:33 +0000";
layers = (
{
layerId = UUID0;
paths = (
{
closed = 1;
nodes = (
"236 0 LINE",
"236 413 LINE",
"255 419 OFFCURVE",
"277 422 OFFCURVE",
"301 422 CURVE SMOOTH",
"388 422 OFFCURVE",
"421 383 OFFCURVE",
"421 292 CURVE SMOOTH",
"421 170 LINE",
"511 170 LINE",
"511 310 LINE SMOOTH",
"511 446 OFFCURVE",
"441 505 OFFCURVE",
"312 505 CURVE SMOOTH",
"286 505 OFFCURVE",
"261 501 OFFCURVE",
"236 494 CURVE",
"236 714 LINE",
"146 714 LINE",
"146 0 LINE"
);
}
);
width = 608;
}
);
unicode = 11056;
category = Letter;
},
{
glyphname = brm_num6;
lastChange = "2019-09-20 20:39:33 +0000";
layers = (
{
layerId = UUID0;
paths = (
{
closed = 1;
nodes = (
"443 -10 OFFCURVE",
"479 -8 OFFCURVE",
"516 -4 CURVE",
"516 77 LINE",
"481 72 OFFCURVE",
"447 70 OFFCURVE",
"414 70 CURVE SMOOTH",
"247 70 OFFCURVE",
"178 121 OFFCURVE",
"178 225 CURVE SMOOTH",
"178 289 OFFCURVE",
"233 334 OFFCURVE",
"295 334 CURVE SMOOTH",
"304 334 OFFCURVE",
"314 333 OFFCURVE",
"326 331 CURVE SMOOTH",
"374 321 LINE",
"374 401 LINE",
"326 411 LINE SMOOTH",
"253 426 OFFCURVE",
"196 477 OFFCURVE",
"196 550 CURVE SMOOTH",
"196 606 OFFCURVE",
"238 643 OFFCURVE",
"297 643 CURVE SMOOTH",
"353 643 OFFCURVE",
"393 626 OFFCURVE",
"436 589 CURVE",
"510 632 LINE",
"444 696 OFFCURVE",
"394 723 OFFCURVE",
"297 723 CURVE SMOOTH",
"181 723 OFFCURVE",
"105 635 OFFCURVE",
"105 549 CURVE SMOOTH",
"105 472 OFFCURVE",
"127 425 OFFCURVE",
"198 373 CURVE",
"129 342 OFFCURVE",
"88 285 OFFCURVE",
"88 217 CURVE SMOOTH",
"88 65 OFFCURVE",
"190 -10 OFFCURVE",
"409 -10 CURVE SMOOTH"
);
}
);
width = 604;
}
);
unicode = 11057;
category = Letter;
},
{
glyphname = brm_num7;
lastChange = "2019-09-20 20:39:33 +0000";
layers = (
{
layerId = UUID0;
paths = (
{
closed = 1;
nodes = (
"197 0 LINE",
"303 131 LINE SMOOTH",
"404 255 OFFCURVE",
"508 398 OFFCURVE",
"508 528 CURVE SMOOTH",
"508 649 OFFCURVE",
"427 726 OFFCURVE",
"304 726 CURVE SMOOTH",
"175 726 OFFCURVE",
"88 649 OFFCURVE",
"88 528 CURVE SMOOTH",
"88 504 OFFCURVE",
"91 482 OFFCURVE",
"97 461 CURVE",
"186 473 LINE",
"181 492 OFFCURVE",
"179 511 OFFCURVE",
"179 531 CURVE SMOOTH",
"179 607 OFFCURVE",
"224 646 OFFCURVE",
"304 646 CURVE SMOOTH",
"371 646 OFFCURVE",
"417 597 OFFCURVE",
"417 525 CURVE SMOOTH",
"417 414 OFFCURVE",
"321 284 OFFCURVE",
"216 155 CURVE SMOOTH",
"90 0 LINE"
);
}
);
width = 596;
}
);
unicode = 11058;
category = Letter;
},
{
glyphname = brm_num8;
lastChange = "2019-09-20 20:39:33 +0000";
layers = (
{
layerId = UUID0;
paths = (
{
closed = 1;
nodes = (
"293 0 LINE",
"399 131 LINE SMOOTH",
"466 213 OFFCURVE",
"515 276 OFFCURVE",
"515 348 CURVE SMOOTH",
"515 417 OFFCURVE",
"466 464 OFFCURVE",
"390 464 CURVE SMOOTH",
"293 464 LINE SMOOTH",
"208 464 OFFCURVE",
"178 499 OFFCURVE",
"178 592 CURVE SMOOTH",
"178 714 LINE",
"88 714 LINE",
"88 575 LINE SMOOTH",
"88 443 OFFCURVE",
"147 385 OFFCURVE",
"282 385 CURVE SMOOTH",
"374 385 LINE SMOOTH",
"403 385 OFFCURVE",
"424 367 OFFCURVE",
"424 339 CURVE SMOOTH",
"424 306 OFFCURVE",
"399 263 OFFCURVE",
"327 174 CURVE SMOOTH",
"186 0 LINE"
);
}
);
width = 603;
}
);
unicode = 11059;
category = Letter;
},
{
glyphname = brm_num9;
lastChange = "2019-09-20 20:39:33 +0000";
layers = (
{
layerId = UUID0;
paths = (
{
closed = 1;
nodes = (
"199 0 LINE",
"199 276 LINE SMOOTH",
"199 319 OFFCURVE",
"219 348 OFFCURVE",
"264 371 CURVE SMOOTH",
"363 422 OFFCURVE",
"405 464 OFFCURVE",
"405 571 CURVE SMOOTH",
"405 666 OFFCURVE",
"335 714 OFFCURVE",
"203 714 CURVE SMOOTH",
"98 714 LINE",
"98 634 LINE",
"192 634 LINE SMOOTH",
"276 634 OFFCURVE",
"314 614 OFFCURVE",
"314 561 CURVE SMOOTH",
"314 496 OFFCURVE",
"277 470 OFFCURVE",
"212 433 CURVE SMOOTH",
"150 398 OFFCURVE",
"109 370 OFFCURVE",
"109 308 CURVE SMOOTH",
"109 0 LINE"
);
}
);
width = 493;
}
);
unicode = 1105A;
category = Letter;
},
{
glyphname = brm_num10;
lastChange = "2019-09-20 20:39:33 +0000";
layers = (
{
layerId = UUID0;
paths = (
{
closed = 1;
nodes = (
"557 -15 OFFCURVE",
"662 32 OFFCURVE",
"717 117 CURVE",
"764 58 OFFCURVE",
"841 24 OFFCURVE",
"945 24 CURVE",
"945 104 LINE",
"830 104 OFFCURVE",
"759 170 OFFCURVE",
"759 266 CURVE SMOOTH",
"759 370 OFFCURVE",
"829 433 OFFCURVE",
"945 433 CURVE",
"945 512 LINE",
"844 512 OFFCURVE",
"765 477 OFFCURVE",
"718 417 CURVE",
"665 501 OFFCURVE",
"558 552 OFFCURVE",
"425 552 CURVE SMOOTH",
"219 552 OFFCURVE",
"88 441 OFFCURVE",
"88 269 CURVE SMOOTH",
"88 98 OFFCURVE",
"227 -15 OFFCURVE",
"421 -15 CURVE SMOOTH"
);
},
{
closed = 1;
nodes = (
"268 65 OFFCURVE",
"179 141 OFFCURVE",
"179 269 CURVE SMOOTH",
"179 400 OFFCURVE",
"269 472 OFFCURVE",
"422 472 CURVE SMOOTH",
"577 472 OFFCURVE",
"668 400 OFFCURVE",
"668 269 CURVE SMOOTH",
"668 140 OFFCURVE",
"579 65 OFFCURVE",
"424 65 CURVE SMOOTH"
);
}
);
width = 1033;
}
);
unicode = 1105B;
category = Letter;
},
{
glyphname = brm_num20;
lastChange = "2019-09-20 20:39:33 +0000";
layers = (
{
layerId = UUID0;
paths = (
{
closed = 1;
nodes = (
"619 -10 OFFCURVE",
"739 126 OFFCURVE",
"739 358 CURVE SMOOTH",
"739 590 OFFCURVE",
"620 725 OFFCURVE",
"415 725 CURVE SMOOTH",
"204 725 OFFCURVE",
"88 595 OFFCURVE",
"88 359 CURVE SMOOTH",
"88 122 OFFCURVE",
"205 -10 OFFCURVE",
"414 -10 CURVE SMOOTH"
);
},
{
closed = 1;
nodes = (
"269 68 OFFCURVE",
"187 160 OFFCURVE",
"179 333 CURVE",
"647 333 LINE",
"640 158 OFFCURVE",
"561 68 OFFCURVE",
"414 68 CURVE SMOOTH"
);
},
{
closed = 1;
nodes = (
"196 565 OFFCURVE",
"276 646 OFFCURVE",
"415 646 CURVE SMOOTH",
"554 646 OFFCURVE",
"631 568 OFFCURVE",
"646 412 CURVE",
"181 412 LINE"
);
}
);
width = 827;
}
);
unicode = 1105C;
category = Letter;
},
{
glyphname = brm_num30;
lastChange = "2019-09-20 20:39:33 +0000";
layers = (
{
layerId = UUID0;
paths = (
{
closed = 1;
nodes = (
"91 -107 LINE",
"91 -55 OFFCURVE",
"121 -14 OFFCURVE",
"178 21 CURVE SMOOTH",
"207 39 OFFCURVE",
"265 64 OFFCURVE",
"352 99 CURVE SMOOTH",
"527 169 OFFCURVE",
"612 232 OFFCURVE",
"612 353 CURVE SMOOTH",
"612 435 OFFCURVE",
"579 502 OFFCURVE",
"513 554 CURVE",
"773 554 LINE",
"773 634 LINE",
"254 634 LINE",
"254 554 LINE",
"383 554 LINE",
"463 520 OFFCURVE",
"521 434 OFFCURVE",
"521 367 CURVE SMOOTH",
"521 303 OFFCURVE",
"488 255 OFFCURVE",
"423 216 CURVE SMOOTH",
"390 196 OFFCURVE",
"336 173 OFFCURVE",
"261 144 CURVE SMOOTH",
"132 94 OFFCURVE",
"65 56 OFFCURVE",
"28 -4 CURVE SMOOTH",
"9 -35 OFFCURVE",
"0 -69 OFFCURVE",
"0 -107 CURVE"
);
}
);
width = 861;
}
);
unicode = 1105D;
category = Letter;
},
{
glyphname = brm_num40;
lastChange = "2019-09-20 20:39:33 +0000";
layers = (
{
layerId = UUID0;
paths = (
{
closed = 1;
nodes = (
"737 -107 LINE",
"737 -11 OFFCURVE",
"708 60 OFFCURVE",
"651 105 CURVE SMOOTH",
"595 150 OFFCURVE",
"511 172 OFFCURVE",
"364 172 CURVE SMOOTH",
"309 172 LINE",
"748 634 LINE",
"645 634 LINE",
"530 515 LINE",
"499 496 OFFCURVE",
"467 490 OFFCURVE",
"402 490 CURVE SMOOTH",
"252 490 OFFCURVE",
"159 513 OFFCURVE",
"159 634 CURVE",
"68 634 LINE",
"68 485 OFFCURVE",
"178 410 OFFCURVE",
"383 410 CURVE SMOOTH",
"399 410 OFFCURVE",
"415 411 OFFCURVE",
"431 413 CURVE",
"199 172 LINE",
"244 92 LINE",
"303 92 LINE SMOOTH",
"385 92 OFFCURVE",
"445 89 OFFCURVE",
"484 82 CURVE SMOOTH",
"597 62 OFFCURVE",
"646 7 OFFCURVE",
"646 -107 CURVE"
);
}
);
width = 796;
}
);
unicode = 1105E;
category = Letter;
},
{
glyphname = brm_num50;
lastChange = "2019-09-20 20:39:33 +0000";
layers = (
{
layerId = UUID0;
paths = (
{
closed = 1;
nodes = (
"412 -117 OFFCURVE",
"489 -25 OFFCURVE",
"531 104 CURVE SMOOTH",
"575 239 OFFCURVE",
"583 404 OFFCURVE",
"591 565 CURVE",
"591 634 LINE",
"135 634 LINE",
"135 554 LINE",
"505 554 LINE",
"497 393 OFFCURVE",
"484 272 OFFCURVE",
"467 192 CURVE SMOOTH",
"437 54 OFFCURVE",
"390 -33 OFFCURVE",
"269 -33 CURVE SMOOTH",
"186 -33 OFFCURVE",
"144 4 OFFCURVE",
"144 77 CURVE SMOOTH",
"144 97 OFFCURVE",
"146 116 OFFCURVE",
"151 135 CURVE",
"62 147 LINE",
"56 126 OFFCURVE",
"53 104 OFFCURVE",
"53 80 CURVE SMOOTH",
"53 20 OFFCURVE",
"73 -28 OFFCURVE",
"112 -63 CURVE SMOOTH",
"152 -99 OFFCURVE",
"204 -117 OFFCURVE",
"269 -117 CURVE SMOOTH"
);
}
);
width = 683;
}
);
unicode = 1105F;
category = Letter;
},
{
glyphname = brm_num60;
lastChange = "2019-09-20 20:39:33 +0000";
layers = (
{
layerId = UUID0;
paths = (
{
closed = 1;
nodes = (
"432 36 LINE",
"432 634 LINE",
"342 634 LINE",
"342 381 LINE",
"88 381 LINE",
"88 301 LINE",
"342 301 LINE",
"342 36 LINE"
);
}
);
width = 549;
}
);
unicode = 11060;
category = Letter;
},
{
glyphname = brm_num70;
lastChange = "2019-09-20 20:39:33 +0000";
layers = (
{
layerId = UUID0;
paths = (
{
closed = 1;
nodes = (
"450 -42 OFFCURVE",
"491 43 OFFCURVE",
"491 127 CURVE SMOOTH",
"491 204 OFFCURVE",
"439 279 OFFCURVE",
"362 311 CURVE",
"535 591 LINE",
"461 634 LINE",
"396 528 LINE",
"392 524 OFFCURVE",
"377 521 OFFCURVE",
"362 521 CURVE SMOOTH",
"295 521 OFFCURVE",
"248 566 OFFCURVE",
"240 634 CURVE",
"149 634 LINE",
"160 515 OFFCURVE",
"224 451 OFFCURVE",
"342 441 CURVE",
"88 29 LINE",
"161 -14 LINE",
"317 238 LINE",
"373 213 OFFCURVE",
"401 175 OFFCURVE",
"401 122 CURVE SMOOTH",
"401 61 OFFCURVE",
"367 -5 OFFCURVE",
"299 -75 CURVE",
"371 -117 LINE"
);
}
);
width = 623;
}
);
unicode = 11061;
category = Letter;
},
{
glyphname = brm_num80;
lastChange = "2019-09-20 20:39:33 +0000";
layers = (
{
layerId = UUID0;
paths = (
{
closed = 1;
nodes = (
"709 -10 OFFCURVE",
"911 75 OFFCURVE",
"911 269 CURVE SMOOTH",
"911 461 OFFCURVE",
"713 552 OFFCURVE",
"500 552 CURVE SMOOTH",
"287 552 OFFCURVE",
"88 461 OFFCURVE",
"88 269 CURVE SMOOTH",
"88 75 OFFCURVE",
"289 -10 OFFCURVE",
"499 -10 CURVE SMOOTH"
);
},
{
closed = 1;
nodes = (
"282 83 OFFCURVE",
"179 156 OFFCURVE",
"179 269 CURVE SMOOTH",
"179 386 OFFCURVE",
"279 459 OFFCURVE",
"455 470 CURVE",
"455 72 LINE"
);
},
{
closed = 1;
nodes = (
"544 470 LINE",
"721 457 OFFCURVE",
"820 385 OFFCURVE",
"820 269 CURVE SMOOTH",
"820 157 OFFCURVE",
"716 83 OFFCURVE",
"544 72 CURVE"
);
}
);
width = 999;
}
);
unicode = 11062;
category = Letter;
},
{
glyphname = brm_num90;
lastChange = "2019-09-20 20:39:33 +0000";
layers = (
{
layerId = UUID0;
paths = (
{
closed = 1;
nodes = (
"633 -10 OFFCURVE",
"747 137 OFFCURVE",
"747 358 CURVE SMOOTH",
"747 578 OFFCURVE",
"633 725 OFFCURVE",
"419 725 CURVE SMOOTH",
"206 725 OFFCURVE",
"88 591 OFFCURVE",
"88 359 CURVE SMOOTH",
"88 124 OFFCURVE",
"207 -10 OFFCURVE",
"418 -10 CURVE SMOOTH"
);
},
{
closed = 1;
nodes = (
"252 88 OFFCURVE",
"186 181 OFFCURVE",
"179 333 CURVE",
"373 333 LINE",
"373 71 LINE"
);
},
{
closed = 1;
nodes = (
"462 333 LINE",
"656 333 LINE",
"648 177 OFFCURVE",
"582 87 OFFCURVE",
"462 71 CURVE"
);
},
{
closed = 1;
nodes = (
"193 543 OFFCURVE",
"257 626 OFFCURVE",
"373 643 CURVE",
"373 412 LINE",
"181 412 LINE"
);
},
{
closed = 1;
nodes = (
"462 643 LINE",
"574 628 OFFCURVE",
"641 549 OFFCURVE",
"654 412 CURVE",
"462 412 LINE"
);
}
);
width = 835;
}
);
unicode = 11063;
category = Letter;
},
{
glyphname = brm_num100;
lastChange = "2019-09-20 20:39:33 +0000";
layers = (
{
layerId = UUID0;
paths = (
{
closed = 1;
nodes = (
"365 0 LINE",
"471 131 LINE SMOOTH",
"577 261 OFFCURVE",
"676 399 OFFCURVE",
"676 528 CURVE SMOOTH",
"676 646 OFFCURVE",
"598 726 OFFCURVE",
"472 726 CURVE SMOOTH",
"401 726 OFFCURVE",
"341 697 OFFCURVE",
"304 649 CURVE",
"279 672 OFFCURVE",
"241 684 OFFCURVE",
"189 684 CURVE SMOOTH",
"128 684 OFFCURVE",
"70 654 OFFCURVE",
"29 607 CURVE",
"92 557 LINE",
"117 588 OFFCURVE",
"148 604 OFFCURVE",
"184 604 CURVE SMOOTH",
"223 604 OFFCURVE",
"253 585 OFFCURVE",
"253 560 CURVE SMOOTH",
"253 543 OFFCURVE",
"249 509 OFFCURVE",
"247 493 CURVE",
"337 502 LINE",
"340 586 OFFCURVE",
"391 646 OFFCURVE",
"472 646 CURVE SMOOTH",
"539 646 OFFCURVE",
"585 597 OFFCURVE",
"585 525 CURVE SMOOTH",
"585 412 OFFCURVE",
"492 290 OFFCURVE",
"384 156 CURVE SMOOTH",
"258 0 LINE"
);
}
);
width = 764;
}
);
unicode = 11064;
category = Letter;
},
{
glyphname = brm_num1000;
lastChange = "2019-09-20 20:39:33 +0000";
layers = (
{
layerId = UUID0;
paths = (
{
closed = 1;
nodes = (
"348 115 OFFCURVE",
"486 328 OFFCURVE",
"486 544 CURVE SMOOTH",
"486 667 OFFCURVE",
"437 724 OFFCURVE",
"334 724 CURVE SMOOTH",
"228 724 OFFCURVE",
"158 640 OFFCURVE",
"158 541 CURVE SMOOTH",
"158 430 OFFCURVE",
"205 389 OFFCURVE",
"309 389 CURVE SMOOTH",
"324 389 OFFCURVE",
"346 392 OFFCURVE",
"375 397 CURVE",
"340 270 OFFCURVE",
"251 165 OFFCURVE",
"88 64 CURVE",
"109 -10 LINE"
);
},
{
closed = 1;
nodes = (
"261 470 OFFCURVE",
"246 489 OFFCURVE",
"246 533 CURVE SMOOTH",
"246 605 OFFCURVE",
"274 643 OFFCURVE",
"327 643 CURVE SMOOTH",
"376 643 OFFCURVE",
"396 617 OFFCURVE",
"396 558 CURVE SMOOTH",
"396 531 OFFCURVE",
"395 505 OFFCURVE",
"392 480 CURVE",
"353 473 OFFCURVE",
"325 470 OFFCURVE",
"308 470 CURVE SMOOTH"
);
}
);
width = 574;
}
);
unicode = 11065;
category = Letter;
},
{
glyphname = brm_digit0;
lastChange = "2019-09-20 20:39:33 +0000";
layers = (
{
layerId = UUID0;
paths = (
{
closed = 1;
nodes = (
"127 328 OFFCURVE",
"149 303 OFFCURVE",
"188 303 CURVE SMOOTH",
"228 303 OFFCURVE",
"251 329 OFFCURVE",
"251 371 CURVE SMOOTH",
"251 414 OFFCURVE",
"228 438 OFFCURVE",
"188 438 CURVE SMOOTH",
"149 438 OFFCURVE",
"127 414 OFFCURVE",
"127 371 CURVE SMOOTH"
);
}
);
width = 378;
}
);
unicode = 11066;
category = Letter;
},
{
glyphname = brm_digit1;
lastChange = "2019-09-20 20:39:33 +0000";
layers = (
{
layerId = UUID0;
paths = (
{
closed = 1;
nodes = (
"714 30 LINE",
"685 171 OFFCURVE",
"528 306 OFFCURVE",
"382 430 CURVE SMOOTH",
"257 536 OFFCURVE",
"141 635 OFFCURVE",
"119 724 CURVE",
"49 687 LINE",
"63 586 OFFCURVE",
"194 478 OFFCURVE",
"328 367 CURVE SMOOTH",
"458 259 OFFCURVE",
"601 129 OFFCURVE",
"631 -4 CURVE"
);
}
);
width = 763;
}
);
unicode = 11067;
category = Letter;
},
{
glyphname = brm_digit2;
lastChange = "2019-09-20 20:39:33 +0000";
layers = (
{
layerId = UUID0;
paths = (
{
closed = 1;
nodes = (
"583 24 LINE",
"551 175 OFFCURVE",
"441 304 OFFCURVE",
"285 372 CURVE",
"362 424 OFFCURVE",
"401 492 OFFCURVE",
"401 576 CURVE SMOOTH",
"401 669 OFFCURVE",
"338 724 OFFCURVE",
"233 724 CURVE SMOOTH",
"173 724 OFFCURVE",
"119 694 OFFCURVE",
"88 645 CURVE",
"147 591 LINE",
"167 630 OFFCURVE",
"195 649 OFFCURVE",
"230 649 CURVE SMOOTH",
"277 649 OFFCURVE",
"311 618 OFFCURVE",
"311 578 CURVE SMOOTH",
"311 490 OFFCURVE",
"247 413 OFFCURVE",
"146 380 CURVE",
"146 333 LINE",
"311 310 OFFCURVE",
"480 152 OFFCURVE",
"510 -5 CURVE"
);
}
);
width = 647;
}
);
unicode = 11068;
category = Letter;
},
{
glyphname = brm_digit3;
lastChange = "2019-09-20 20:39:33 +0000";
layers = (
{
layerId = UUID0;
paths = (
{
closed = 1;
nodes = (
"523 20 LINE",
"483 135 OFFCURVE",
"410 214 OFFCURVE",
"301 265 CURVE",
"360 291 OFFCURVE",
"389 334 OFFCURVE",
"389 394 CURVE SMOOTH",
"389 443 OFFCURVE",
"367 479 OFFCURVE",
"322 502 CURVE",
"359 530 OFFCURVE",
"373 562 OFFCURVE",
"373 609 CURVE SMOOTH",
"373 672 OFFCURVE",
"317 724 OFFCURVE",
"232 724 CURVE SMOOTH",
"172 724 OFFCURVE",
"132 709 OFFCURVE",
"88 664 CURVE",
"144 612 LINE",
"165 636 OFFCURVE",
"188 649 OFFCURVE",
"225 649 CURVE SMOOTH",
"258 649 OFFCURVE",
"283 635 OFFCURVE",
"283 595 CURVE SMOOTH",
"283 552 OFFCURVE",
"253 525 OFFCURVE",
"208 525 CURVE SMOOTH",
"177 525 LINE",
"177 452 LINE",
"208 452 LINE SMOOTH",
"268 452 OFFCURVE",
"298 429 OFFCURVE",
"298 389 CURVE SMOOTH",
"298 336 OFFCURVE",
"243 303 OFFCURVE",
"132 289 CURVE",
"132 237 LINE",
"276 221 OFFCURVE",
"400 125 OFFCURVE",
"448 -10 CURVE"
);
}
);
width = 611;
}
);
unicode = 11069;
category = Letter;
},
{
glyphname = brm_digit4;
lastChange = "2019-09-20 20:39:33 +0000";
layers = (
{
layerId = UUID0;
paths = (
{
closed = 1;
nodes = (
"749 161 LINE",
"714 230 OFFCURVE",
"660 289 OFFCURVE",
"588 337 CURVE SMOOTH",
"552 361 OFFCURVE",
"491 394 OFFCURVE",
"404 436 CURVE SMOOTH",
"257 507 OFFCURVE",
"163 577 OFFCURVE",
"156 724 CURVE",
"80 704 LINE",
"79 695 OFFCURVE",
"78 685 OFFCURVE",
"78 676 CURVE SMOOTH",
"78 576 OFFCURVE",
"124 501 OFFCURVE",
"245 432 CURVE",
"170 409 OFFCURVE",
"126 359 OFFCURVE",
"126 298 CURVE SMOOTH",
"126 203 OFFCURVE",
"196 136 OFFCURVE",
"324 136 CURVE SMOOTH",
"437 136 OFFCURVE",
"512 190 OFFCURVE",
"521 283 CURVE",
"592 234 OFFCURVE",
"642 177 OFFCURVE",
"672 110 CURVE"
);
},
{
closed = 1;
nodes = (
"256 211 OFFCURVE",
"217 240 OFFCURVE",
"217 292 CURVE SMOOTH",
"217 339 OFFCURVE",
"253 368 OFFCURVE",
"324 368 CURVE SMOOTH",
"395 368 OFFCURVE",
"431 339 OFFCURVE",
"431 292 CURVE SMOOTH",
"431 240 OFFCURVE",
"392 211 OFFCURVE",
"324 211 CURVE SMOOTH"
);
}
);
width = 797;
}
);
unicode = 1106A;
category = Letter;
},
{
glyphname = brm_digit5;
lastChange = "2019-09-20 20:39:33 +0000";
layers = (
{
layerId = UUID0;
paths = (
{
closed = 1;
nodes = (
"702 6 LINE",
"702 29 LINE SMOOTH",
"702 90 OFFCURVE",
"684 153 OFFCURVE",
"651 225 CURVE SMOOTH",
"634 262 OFFCURVE",
"610 312 OFFCURVE",
"572 375 CURVE SMOOTH",
"509 480 OFFCURVE",
"473 540 OFFCURVE",
"443 628 CURVE SMOOTH",
"433 657 OFFCURVE",
"428 686 OFFCURVE",
"425 714 CURVE",
"333 714 LINE",
"333 693 OFFCURVE",
"338 667 OFFCURVE",
"348 636 CURVE SMOOTH",
"358 605 OFFCURVE",
"363 585 OFFCURVE",
"363 574 CURVE SMOOTH",
"363 519 OFFCURVE",
"319 483 OFFCURVE",
"256 483 CURVE SMOOTH",
"189 483 OFFCURVE",
"149 512 OFFCURVE",
"149 564 CURVE SMOOTH",
"149 604 OFFCURVE",
"160 623 OFFCURVE",
"203 644 CURVE",
"173 712 LINE",
"106 692 OFFCURVE",
"59 635 OFFCURVE",
"59 570 CURVE SMOOTH",
"59 469 OFFCURVE",
"131 408 OFFCURVE",
"256 408 CURVE SMOOTH",
"325 408 OFFCURVE",
"379 432 OFFCURVE",
"415 477 CURVE",
"458 402 LINE SMOOTH",
"517 300 OFFCURVE",
"560 223 OFFCURVE",
"581 169 CURVE SMOOTH",
"602 116 OFFCURVE",
"612 66 OFFCURVE",
"612 19 CURVE SMOOTH",
"612 12 OFFCURVE",
"612 9 OFFCURVE",
"611 -3 CURVE"
);
}
);
width = 771;
}
);
unicode = 1106B;
category = Letter;
},
{
glyphname = brm_digit6;
lastChange = "2019-09-20 20:39:33 +0000";
layers = (
{
layerId = UUID0;
paths = (
{
closed = 1;
nodes = (
"429 -12 OFFCURVE",
"511 66 OFFCURVE",
"511 188 CURVE SMOOTH",
"511 325 OFFCURVE",
"390 513 OFFCURVE",
"175 714 CURVE",
"88 714 LINE",
"148 655 OFFCURVE",
"205 589 OFFCURVE",
"259 518 CURVE SMOOTH",
"335 418 OFFCURVE",
"420 285 OFFCURVE",
"420 191 CURVE SMOOTH",
"420 108 OFFCURVE",
"374 63 OFFCURVE",
"295 63 CURVE SMOOTH",
"212 63 OFFCURVE",
"181 94 OFFCURVE",
"181 153 CURVE SMOOTH",
"181 182 OFFCURVE",
"199 206 OFFCURVE",
"227 215 CURVE",
"199 289 LINE",
"130 265 OFFCURVE",
"90 216 OFFCURVE",
"90 149 CURVE SMOOTH",
"90 48 OFFCURVE",
"163 -12 OFFCURVE",
"290 -12 CURVE SMOOTH"
);
}
);
width = 599;
}
);
unicode = 1106C;
category = Letter;
},
{
glyphname = brm_digit7;
lastChange = "2019-09-20 20:39:33 +0000";
layers = (
{
layerId = UUID0;
paths = (
{
closed = 1;
nodes = (
"591 14 LINE",
"592 54 OFFCURVE",
"593 117 OFFCURVE",
"593 157 CURVE SMOOTH",
"593 453 OFFCURVE",
"532 724 OFFCURVE",
"294 724 CURVE SMOOTH",
"175 724 OFFCURVE",
"88 639 OFFCURVE",
"88 536 CURVE SMOOTH",
"88 445 OFFCURVE",
"156 379 OFFCURVE",
"242 379 CURVE SMOOTH",
"269 379 OFFCURVE",
"281 381 OFFCURVE",
"311 389 CURVE",
"284 457 LINE",
"266 455 OFFCURVE",
"259 455 OFFCURVE",
"246 455 CURVE SMOOTH",
"205 455 OFFCURVE",
"178 489 OFFCURVE",
"178 538 CURVE SMOOTH",
"178 606 OFFCURVE",
"223 648 OFFCURVE",
"302 648 CURVE SMOOTH",
"442 648 OFFCURVE",
"494 470 OFFCURVE",
"511 291 CURVE SMOOTH",
"518 217 OFFCURVE",
"523 119 OFFCURVE",
"523 -2 CURVE"
);
}
);
width = 681;
}
);
unicode = 1106D;
category = Letter;
},
{
glyphname = brm_digit8;
lastChange = "2019-09-20 20:39:33 +0000";
layers = (
{
layerId = UUID0;
paths = (
{
closed = 1;
nodes = (
"63 634 LINE",
"174 634 LINE",
"133 596 OFFCURVE",
"113 552 OFFCURVE",
"113 500 CURVE SMOOTH",
"113 388 OFFCURVE",
"219 295 OFFCURVE",
"431 221 CURVE",
"431 320 LINE",
"276 371 OFFCURVE",
"203 431 OFFCURVE",
"203 502 CURVE SMOOTH",
"203 557 OFFCURVE",
"236 608 OFFCURVE",
"286 634 CURVE",
"411 634 LINE",
"411 714 LINE",
"63 714 LINE"
);
}
);
width = 519;
}
);
unicode = 1106E;
category = Letter;
},
{
glyphname = brm_digit9;
lastChange = "2019-09-20 20:39:33 +0000";
layers = (
{
layerId = UUID0;
paths = (
{
closed = 1;
nodes = (
"614 155 LINE",
"615 183 OFFCURVE",
"615 203 OFFCURVE",
"615 227 CURVE SMOOTH",
"615 538 OFFCURVE",
"505 724 OFFCURVE",
"319 724 CURVE SMOOTH",
"173 724 OFFCURVE",
"86 631 OFFCURVE",
"86 514 CURVE SMOOTH",
"86 417 OFFCURVE",
"150 345 OFFCURVE",
"243 345 CURVE SMOOTH",
"336 345 OFFCURVE",
"391 399 OFFCURVE",
"394 494 CURVE",
"313 505 LINE",
"313 456 OFFCURVE",
"286 420 OFFCURVE",
"245 420 CURVE SMOOTH",
"202 420 OFFCURVE",
"177 460 OFFCURVE",
"177 521 CURVE SMOOTH",
"177 598 OFFCURVE",
"228 648 OFFCURVE",
"308 648 CURVE SMOOTH",
"451 648 OFFCURVE",
"525 494 OFFCURVE",
"525 217 CURVE SMOOTH",
"525 193 OFFCURVE",
"525 174 OFFCURVE",
"524 146 CURVE"
);
}
);
width = 703;
}
);
unicode = 1106F;
category = Letter;
},
{
glyphname = brm_GHU;
lastChange = "2019-09-20 20:39:33 +0000";
layers = (
{
layerId = UUID0;
paths = (
{
closed = 1;
nodes = (
"401 -159 LINE",
"401 -10 LINE",
"559 1 OFFCURVE",
"624 70 OFFCURVE",
"624 250 CURVE SMOOTH",
"624 277 LINE",
"534 277 LINE",
"534 250 LINE SMOOTH",
"534 130 OFFCURVE",
"507 85 OFFCURVE",
"406 75 CURVE",
"406 274 LINE",
"316 274 LINE",
"316 74 LINE",
"219 82 OFFCURVE",
"187 127 OFFCURVE",
"187 249 CURVE SMOOTH",
"187 714 LINE",
"98 714 LINE",
"98 252 LINE SMOOTH",
"98 76 OFFCURVE",
"161 0 OFFCURVE",
"321 -11 CURVE",
"321 -159 LINE"
);
}
);
width = 702;
}
);
category = Letter;
},
{
glyphname = brm_GHUU;
lastChange = "2019-09-20 20:39:33 +0000";
layers = (
{
layerId = UUID0;
paths = (
{
closed = 1;
nodes = (
"472 -159 LINE",
"472 1 LINE",
"577 28 OFFCURVE",
"624 93 OFFCURVE",
"624 250 CURVE SMOOTH",
"624 277 LINE",
"534 277 LINE",
"534 250 LINE SMOOTH",
"534 130 OFFCURVE",
"507 85 OFFCURVE",
"406 75 CURVE",
"406 274 LINE",
"316 274 LINE",
"316 74 LINE",
"219 82 OFFCURVE",
"187 127 OFFCURVE",
"187 249 CURVE SMOOTH",
"187 714 LINE",
"98 714 LINE",
"98 252 LINE SMOOTH",
"98 101 OFFCURVE",
"144 26 OFFCURVE",
"250 0 CURVE",
"250 -159 LINE",
"330 -159 LINE",
"330 -11 LINE",
"338 -12 OFFCURVE",
"346 -12 OFFCURVE",
"355 -12 CURVE SMOOTH",
"368 -12 OFFCURVE",
"381 -12 OFFCURVE",
"392 -11 CURVE",
"392 -159 LINE"
);
}
);
width = 702;
}
);
category = Letter;
},
{
glyphname = brm_NGU;
lastChange = "2019-09-20 20:39:33 +0000";
layers = (
{
layerId = UUID0;
paths = (
{
closed = 1;
nodes = (
"451 -159 LINE",
"451 80 LINE",
"187 80 LINE",
"187 634 LINE",
"451 634 LINE",
"451 714 LINE",
"98 714 LINE",
"98 0 LINE",
"371 0 LINE",
"371 -159 LINE"
);
}
);
width = 529;
}
);
category = Letter;
},
{
glyphname = brm_NGUU;
lastChange = "2019-09-20 20:39:33 +0000";
layers = (
{
layerId = UUID0;
paths = (
{
closed = 1;
nodes = (
"451 -159 LINE",
"451 80 LINE",
"187 80 LINE",
"187 634 LINE",
"451 634 LINE",
"451 714 LINE",
"98 714 LINE",
"98 0 LINE",
"229 0 LINE",
"229 -159 LINE",
"309 -159 LINE",
"309 0 LINE",
"371 0 LINE",
"371 -159 LINE"
);
}
);
width = 529;
}
);
category = Letter;
},
{
glyphname = brm_CU;
lastChange = "2019-09-20 20:39:33 +0000";
layers = (
{
layerId = UUID0;
paths = (
{
closed = 1;
nodes = (
"346 -159 LINE",
"346 0 LINE",
"444 0 LINE",
"444 714 LINE",
"354 714 LINE",
"354 345 LINE",
"346 345 LINE SMOOTH",
"164 345 OFFCURVE",
"78 288 OFFCURVE",
"78 165 CURVE SMOOTH",
"78 67 OFFCURVE",
"154 13 OFFCURVE",
"266 2 CURVE",
"266 -159 LINE"
);
},
{
closed = 1;
nodes = (
"234 80 OFFCURVE",
"173 106 OFFCURVE",
"173 168 CURVE SMOOTH",
"173 255 OFFCURVE",
"237 265 OFFCURVE",
"354 265 CURVE",
"354 80 LINE"
);
}
);
width = 542;
}
);
category = Letter;
},
{
glyphname = brm_CUU;
lastChange = "2019-09-20 20:39:33 +0000";
layers = (
{
layerId = UUID0;
paths = (
{
closed = 1;
nodes = (
"275 -159 LINE",
"275 1 LINE",
"288 0 OFFCURVE",
"301 0 OFFCURVE",
"315 0 CURVE SMOOTH",
"336 0 LINE",
"336 -159 LINE",
"417 -159 LINE",
"417 0 LINE",
"444 0 LINE",
"444 714 LINE",
"354 714 LINE",
"354 345 LINE",
"346 345 LINE SMOOTH",
"164 345 OFFCURVE",
"78 288 OFFCURVE",
"78 165 CURVE SMOOTH",
"78 92 OFFCURVE",
"124 37 OFFCURVE",
"195 17 CURVE",
"195 -159 LINE"
);
},
{
closed = 1;
nodes = (
"234 80 OFFCURVE",
"173 106 OFFCURVE",
"173 168 CURVE SMOOTH",
"173 254 OFFCURVE",
"236 265 OFFCURVE",
"354 265 CURVE",
"354 80 LINE"
);
}
);
width = 542;
}
);
category = Letter;
},
{
glyphname = brm_CHU;
lastChange = "2019-09-20 20:39:33 +0000";
layers = (
{
layerId = UUID0;
paths = (
{
closed = 1;
nodes = (
"345 -159 LINE",
"345 -9 LINE",
"463 10 OFFCURVE",
"546 109 OFFCURVE",
"546 222 CURVE SMOOTH",
"546 336 OFFCURVE",
"459 432 OFFCURVE",
"350 451 CURVE",
"350 714 LINE",
"260 714 LINE",
"260 451 LINE",
"148 432 OFFCURVE",
"63 338 OFFCURVE",
"63 222 CURVE SMOOTH",
"63 106 OFFCURVE",
"151 8 OFFCURVE",
"265 -9 CURVE",
"265 -159 LINE"
);
},
{
closed = 1;
nodes = (
"350 369 LINE",
"412 350 OFFCURVE",
"456 291 OFFCURVE",
"456 224 CURVE SMOOTH",
"456 158 OFFCURVE",
"417 95 OFFCURVE",
"350 74 CURVE"
);
},
{
closed = 1;
nodes = (
"260 75 LINE",
"198 95 OFFCURVE",
"153 158 OFFCURVE",
"153 224 CURVE SMOOTH",
"153 289 OFFCURVE",
"197 348 OFFCURVE",
"260 369 CURVE"
);
}
);
width = 609;
}
);
category = Letter;
},
{
glyphname = brm_CHUU;
lastChange = "2019-09-20 20:39:33 +0000";
layers = (
{
layerId = UUID0;
paths = (
{
closed = 1;
nodes = (
"274 -159 LINE",
"274 -10 LINE",
"284 -11 OFFCURVE",
"294 -12 OFFCURVE",
"305 -12 CURVE SMOOTH",
"315 -12 OFFCURVE",
"325 -11 OFFCURVE",
"335 -10 CURVE",
"335 -159 LINE",
"416 -159 LINE",
"416 14 LINE",
"473 42 OFFCURVE",
"546 111 OFFCURVE",
"546 222 CURVE SMOOTH",
"546 336 OFFCURVE",
"459 432 OFFCURVE",
"350 451 CURVE",
"350 714 LINE",
"260 714 LINE",
"260 451 LINE",
"148 432 OFFCURVE",
"63 338 OFFCURVE",
"63 222 CURVE SMOOTH",
"63 141 OFFCURVE",
"105 60 OFFCURVE",
"194 14 CURVE",
"194 -159 LINE"
);
},
{
closed = 1;
nodes = (
"198 95 OFFCURVE",
"153 158 OFFCURVE",
"153 224 CURVE SMOOTH",
"153 289 OFFCURVE",
"197 348 OFFCURVE",
"260 369 CURVE",
"260 75 LINE"
);
},
{
closed = 1;
nodes = (
"350 369 LINE",
"412 350 OFFCURVE",
"456 291 OFFCURVE",
"456 224 CURVE SMOOTH",
"456 158 OFFCURVE",
"413 95 OFFCURVE",
"350 74 CURVE"
);
}
);
width = 609;
}
);
category = Letter;
},
{
glyphname = brm_JAA;
lastChange = "2019-09-20 20:39:33 +0000";
layers = (
{
layerId = UUID0;
paths = (
{
closed = 1;
nodes = (
"440 0 LINE",
"440 80 LINE",
"317 80 LINE SMOOTH",
"228 80 OFFCURVE",
"173 120 OFFCURVE",
"173 188 CURVE SMOOTH",
"173 277 OFFCURVE",
"233 319 OFFCURVE",
"352 320 CURVE",
"352 252 LINE",
"432 252 LINE",
"432 320 LINE",
"568 320 LINE",
"568 400 LINE",
"432 400 LINE",
"432 464 LINE",
"352 464 LINE",
"352 400 LINE",
"229 401 OFFCURVE",
"173 439 OFFCURVE",
"173 526 CURVE SMOOTH",
"173 599 OFFCURVE",
"242 634 OFFCURVE",
"322 634 CURVE SMOOTH",
"440 634 LINE",
"440 714 LINE",
"330 714 LINE SMOOTH",
"179 714 OFFCURVE",
"78 633 OFFCURVE",
"78 526 CURVE SMOOTH",
"78 451 OFFCURVE",
"115 394 OFFCURVE",
"179 360 CURVE",
"116 327 OFFCURVE",
"78 266 OFFCURVE",
"78 187 CURVE SMOOTH",
"78 77 OFFCURVE",
"171 0 OFFCURVE",
"320 0 CURVE SMOOTH"
);
}
);
width = 593;
}
);
category = Letter;
},
{
glyphname = brm_JO;
lastChange = "2019-09-20 20:39:33 +0000";
layers = (
{
layerId = UUID0;
paths = (
{
closed = 1;
nodes = (
"49 512 LINE",
"224 512 LINE",
"228 443 OFFCURVE",
"263 392 OFFCURVE",
"324 360 CURVE",
"260 327 OFFCURVE",
"223 267 OFFCURVE",
"223 187 CURVE SMOOTH",
"223 77 OFFCURVE",
"316 0 OFFCURVE",
"465 0 CURVE SMOOTH",
"585 0 LINE",
"585 80 LINE",
"462 80 LINE SMOOTH",
"373 80 OFFCURVE",
"318 119 OFFCURVE",
"318 188 CURVE SMOOTH",
"318 277 OFFCURVE",
"377 319 OFFCURVE",
"497 320 CURVE",
"497 252 LINE",
"577 252 LINE",
"577 320 LINE",
"713 320 LINE",
"713 400 LINE",
"577 400 LINE",
"577 464 LINE",
"497 464 LINE",
"497 400 LINE",
"373 403 OFFCURVE",
"318 438 OFFCURVE",
"318 526 CURVE SMOOTH",
"318 599 OFFCURVE",
"387 634 OFFCURVE",
"467 634 CURVE SMOOTH",
"585 634 LINE",
"585 714 LINE",
"475 714 LINE SMOOTH",
"356 714 OFFCURVE",
"269 664 OFFCURVE",
"237 592 CURVE",
"49 592 LINE"
);
}
);
width = 738;
}
);
category = Letter;
},
{
glyphname = brm_JAU;
lastChange = "2019-09-20 20:39:33 +0000";
layers = (
{
layerId = UUID0;
paths = (
{
closed = 1;
nodes = (
"49 432 LINE",
"242 432 LINE",
"259 402 OFFCURVE",
"284 378 OFFCURVE",
"319 360 CURVE",
"255 327 OFFCURVE",
"218 267 OFFCURVE",
"218 187 CURVE SMOOTH",
"218 77 OFFCURVE",
"311 0 OFFCURVE",
"460 0 CURVE SMOOTH",
"581 0 LINE",
"581 80 LINE",
"457 80 LINE SMOOTH",
"368 80 OFFCURVE",
"313 119 OFFCURVE",
"313 188 CURVE SMOOTH",
"313 277 OFFCURVE",
"372 319 OFFCURVE",
"492 320 CURVE",
"492 252 LINE",
"572 252 LINE",
"572 320 LINE",
"708 320 LINE",
"708 400 LINE",
"572 400 LINE",
"572 464 LINE",
"492 464 LINE",
"492 400 LINE",
"368 403 OFFCURVE",
"313 438 OFFCURVE",
"313 526 CURVE SMOOTH",
"313 599 OFFCURVE",
"382 634 OFFCURVE",
"462 634 CURVE SMOOTH",
"581 634 LINE",
"581 714 LINE",
"470 714 LINE SMOOTH",
"403 714 OFFCURVE",
"348 699 OFFCURVE",
"305 672 CURVE",
"49 672 LINE",
"49 592 LINE",
"232 592 LINE",
"223 571 OFFCURVE",
"218 549 OFFCURVE",
"218 526 CURVE SMOOTH",
"218 521 OFFCURVE",
"218 517 OFFCURVE",
"219 512 CURVE",
"49 512 LINE"
);
}
);
width = 733;
}
);
category = Letter;
},
{
glyphname = brm_JU;
lastChange = "2019-09-20 20:39:33 +0000";
layers = (
{
layerId = UUID0;
paths = (
{
closed = 1;
nodes = (
"440 -159 LINE",
"440 80 LINE",
"317 80 LINE SMOOTH",
"228 80 OFFCURVE",
"173 120 OFFCURVE",
"173 188 CURVE SMOOTH",
"173 279 OFFCURVE",
"235 320 OFFCURVE",
"358 320 CURVE SMOOTH",
"422 320 LINE",
"422 400 LINE",
"358 400 LINE SMOOTH",
"231 400 OFFCURVE",
"173 437 OFFCURVE",
"173 526 CURVE SMOOTH",
"173 599 OFFCURVE",
"242 634 OFFCURVE",
"322 634 CURVE SMOOTH",
"440 634 LINE",
"440 714 LINE",
"330 714 LINE SMOOTH",
"179 714 OFFCURVE",
"78 633 OFFCURVE",
"78 526 CURVE SMOOTH",
"78 451 OFFCURVE",
"115 394 OFFCURVE",
"179 360 CURVE",
"116 327 OFFCURVE",
"78 266 OFFCURVE",
"78 187 CURVE SMOOTH",
"78 77 OFFCURVE",
"171 0 OFFCURVE",
"320 0 CURVE SMOOTH",
"360 0 LINE",
"360 -159 LINE"
);
}
);
width = 504;
}
);
category = Letter;
},
{
glyphname = brm_JUU;
lastChange = "2019-09-20 20:39:33 +0000";
layers = (
{
layerId = UUID0;
paths = (
{
closed = 1;
nodes = (
"299 -159 LINE",
"299 0 LINE",
"306 0 OFFCURVE",
"312 0 OFFCURVE",
"320 0 CURVE SMOOTH",
"360 0 LINE",
"360 -159 LINE",
"440 -159 LINE",
"440 80 LINE",
"317 80 LINE SMOOTH",
"228 80 OFFCURVE",
"173 120 OFFCURVE",
"173 188 CURVE SMOOTH",
"173 279 OFFCURVE",
"235 320 OFFCURVE",
"358 320 CURVE SMOOTH",
"422 320 LINE",
"422 400 LINE",
"358 400 LINE SMOOTH",
"231 400 OFFCURVE",
"173 437 OFFCURVE",
"173 526 CURVE SMOOTH",
"173 599 OFFCURVE",
"242 634 OFFCURVE",
"322 634 CURVE SMOOTH",
"440 634 LINE",
"440 714 LINE",
"330 714 LINE SMOOTH",
"179 714 OFFCURVE",
"78 633 OFFCURVE",
"78 526 CURVE SMOOTH",
"78 451 OFFCURVE",
"115 394 OFFCURVE",
"179 360 CURVE",
"116 327 OFFCURVE",
"78 266 OFFCURVE",
"78 187 CURVE SMOOTH",
"78 105 OFFCURVE",
"130 41 OFFCURVE",
"219 14 CURVE",
"219 -159 LINE"
);
}
);
width = 504;
}
);
category = Letter;
},
{
glyphname = brm_JHO;
lastChange = "2019-09-20 20:39:33 +0000";
layers = (
{
layerId = UUID0;
paths = (
{
closed = 1;
nodes = (
"317 0 LINE",
"317 340 LINE",
"349 319 OFFCURVE",
"398 306 OFFCURVE",
"446 306 CURVE SMOOTH",
"577 306 OFFCURVE",
"646 365 OFFCURVE",
"646 502 CURVE SMOOTH",
"646 634 LINE",
"824 634 LINE",
"824 714 LINE",
"556 714 LINE",
"556 519 LINE SMOOTH",
"556 429 OFFCURVE",
"523 390 OFFCURVE",
"436 390 CURVE SMOOTH",
"387 390 OFFCURVE",
"345 408 OFFCURVE",
"317 432 CURVE",
"317 714 LINE",
"49 714 LINE",
"49 634 LINE",
"228 634 LINE",
"228 0 LINE"
);
}
);
width = 873;
}
);
category = Letter;
},
{
glyphname = brm_JHAU;
lastChange = "2019-09-20 20:39:33 +0000";
layers = (
{
layerId = UUID0;
paths = (
{
closed = 1;
nodes = (
"317 0 LINE",
"317 340 LINE",
"349 319 OFFCURVE",
"398 306 OFFCURVE",
"446 306 CURVE SMOOTH",
"577 306 OFFCURVE",
"646 365 OFFCURVE",
"646 502 CURVE SMOOTH",
"646 634 LINE",
"824 634 LINE",
"824 714 LINE",
"556 714 LINE",
"556 519 LINE SMOOTH",
"556 429 OFFCURVE",
"523 390 OFFCURVE",
"436 390 CURVE SMOOTH",
"387 390 OFFCURVE",
"345 408 OFFCURVE",
"317 432 CURVE",
"317 714 LINE",
"49 714 LINE",
"49 634 LINE",
"228 634 LINE",
"228 554 LINE",
"49 554 LINE",
"49 474 LINE",
"228 474 LINE",
"228 0 LINE"
);
}
);
width = 873;
}
);
category = Letter;
},
{
glyphname = brm_NYO;
lastChange = "2019-09-20 20:39:33 +0000";
layers = (
{
layerId = UUID0;
paths = (
{
closed = 1;
nodes = (
"294 0 LINE",
"294 413 LINE",
"313 419 OFFCURVE",
"335 422 OFFCURVE",
"359 422 CURVE SMOOTH",
"444 422 OFFCURVE",
"479 386 OFFCURVE",
"479 292 CURVE SMOOTH",
"479 170 LINE",
"569 170 LINE",
"569 310 LINE SMOOTH",
"569 446 OFFCURVE",
"500 505 OFFCURVE",
"370 505 CURVE SMOOTH",
"344 505 OFFCURVE",
"319 501 OFFCURVE",
"294 494 CURVE",
"294 549 LINE",
"518 549 LINE",
"518 629 LINE",
"294 629 LINE",
"294 714 LINE",
"49 714 LINE",
"49 634 LINE",
"205 634 LINE",
"205 549 LINE",
"49 549 LINE",
"49 469 LINE",
"205 469 LINE",
"205 0 LINE"
);
}
);
width = 647;
}
);
category = Letter;
},
{
glyphname = brm_NYAU;
lastChange = "2019-09-20 20:39:33 +0000";
layers = (
{
layerId = UUID0;
paths = (
{
closed = 1;
nodes = (
"294 0 LINE",
"294 413 LINE",
"313 419 OFFCURVE",
"335 422 OFFCURVE",
"359 422 CURVE SMOOTH",
"444 422 OFFCURVE",
"479 386 OFFCURVE",
"479 292 CURVE SMOOTH",
"479 170 LINE",
"569 170 LINE",
"569 310 LINE SMOOTH",
"569 446 OFFCURVE",
"500 505 OFFCURVE",
"370 505 CURVE SMOOTH",
"344 505 OFFCURVE",
"319 501 OFFCURVE",
"294 494 CURVE",
"294 549 LINE",
"518 549 LINE",
"518 629 LINE",
"294 629 LINE",
"294 714 LINE",
"49 714 LINE",
"49 634 LINE",
"205 634 LINE",
"205 549 LINE",
"49 549 LINE",
"49 469 LINE",
"205 469 LINE",
"205 389 LINE",
"49 389 LINE",
"49 309 LINE",
"205 309 LINE",
"205 0 LINE"
);
}
);
width = 647;
}
);
category = Letter;
},
{
glyphname = brm_TTU;
lastChange = "2019-09-20 20:39:33 +0000";
layers = (
{
layerId = UUID0;
paths = (
{
closed = 1;
nodes = (
"437 -159 LINE",
"437 80 LINE",
"419 80 LINE SMOOTH",
"258 80 OFFCURVE",
"173 181 OFFCURVE",
"173 357 CURVE SMOOTH",
"173 531 OFFCURVE",
"264 634 OFFCURVE",
"420 634 CURVE SMOOTH",
"437 634 LINE",
"437 714 LINE",
"421 714 LINE SMOOTH",
"206 714 OFFCURVE",
"78 580 OFFCURVE",
"78 358 CURVE SMOOTH",
"78 146 OFFCURVE",
"174 21 OFFCURVE",
"357 2 CURVE",
"357 -159 LINE"
);
}
);
width = 496;
}
);
category = Letter;
},
{
glyphname = brm_TTUU;
lastChange = "2019-09-20 20:39:33 +0000";
layers = (
{
layerId = UUID0;
paths = (
{
closed = 1;
nodes = (
"295 -159 LINE",
"295 13 LINE",
"314 8 OFFCURVE",
"335 4 OFFCURVE",
"357 2 CURVE",
"357 -159 LINE",
"437 -159 LINE",
"437 80 LINE",
"419 80 LINE SMOOTH",
"258 80 OFFCURVE",
"173 181 OFFCURVE",
"173 357 CURVE SMOOTH",
"173 531 OFFCURVE",
"264 634 OFFCURVE",
"420 634 CURVE SMOOTH",
"437 634 LINE",
"437 714 LINE",
"421 714 LINE SMOOTH",
"206 714 OFFCURVE",
"78 580 OFFCURVE",
"78 358 CURVE SMOOTH",
"78 211 OFFCURVE",
"124 104 OFFCURVE",
"215 48 CURVE",
"215 -159 LINE"
);
}
);
width = 496;
}
);
category = Letter;
},
{
glyphname = brm_TTHO;
lastChange = "2019-09-20 20:39:33 +0000";
layers = (
{
layerId = UUID0;
paths = (
{
closed = 1;
nodes = (
"49 606 LINE",
"216 606 LINE",
"149 545 OFFCURVE",
"110 458 OFFCURVE",
"110 358 CURVE SMOOTH",
"110 166 OFFCURVE",
"256 27 OFFCURVE",
"441 27 CURVE SMOOTH",
"638 27 OFFCURVE",
"772 179 OFFCURVE",
"772 358 CURVE SMOOTH",
"772 461 OFFCURVE",
"732 547 OFFCURVE",
"665 606 CURVE",
"833 606 LINE",
"833 686 LINE",
"490 686 LINE",
"469 688 OFFCURVE",
"458 689 OFFCURVE",
"441 689 CURVE SMOOTH",
"424 689 OFFCURVE",
"413 688 OFFCURVE",
"391 686 CURVE",
"49 686 LINE"
);
},
{
closed = 1;
nodes = (
"205 500 OFFCURVE",
"314 605 OFFCURVE",
"441 605 CURVE SMOOTH",
"578 605 OFFCURVE",
"677 490 OFFCURVE",
"677 359 CURVE SMOOTH",
"677 219 OFFCURVE",
"569 111 OFFCURVE",
"441 111 CURVE SMOOTH",
"304 111 OFFCURVE",
"205 227 OFFCURVE",
"205 359 CURVE SMOOTH"
);
}
);
width = 882;
}
);
category = Letter;
},
{
glyphname = brm_TTHAU;
lastChange = "2019-09-20 20:39:33 +0000";
layers = (
{
layerId = UUID0;
paths = (
{
closed = 1;
nodes = (
"49 446 LINE",
"121 446 LINE",
"113 418 OFFCURVE",
"110 389 OFFCURVE",
"110 358 CURVE SMOOTH",
"110 166 OFFCURVE",
"256 27 OFFCURVE",
"441 27 CURVE SMOOTH",
"638 27 OFFCURVE",
"772 179 OFFCURVE",
"772 358 CURVE SMOOTH",
"772 461 OFFCURVE",
"732 547 OFFCURVE",
"665 606 CURVE",
"833 606 LINE",
"833 686 LINE",
"490 686 LINE",
"469 688 OFFCURVE",
"458 689 OFFCURVE",
"441 689 CURVE SMOOTH",
"424 689 OFFCURVE",
"413 688 OFFCURVE",
"391 686 CURVE",
"49 686 LINE",
"49 606 LINE",
"216 606 LINE",
"191 583 OFFCURVE",
"170 557 OFFCURVE",
"153 526 CURVE",
"49 526 LINE"
);
},
{
closed = 1;
nodes = (
"205 500 OFFCURVE",
"314 605 OFFCURVE",
"441 605 CURVE SMOOTH",
"578 605 OFFCURVE",
"677 490 OFFCURVE",
"677 359 CURVE SMOOTH",
"677 219 OFFCURVE",
"569 111 OFFCURVE",
"441 111 CURVE SMOOTH",
"304 111 OFFCURVE",
"205 227 OFFCURVE",
"205 359 CURVE SMOOTH"
);
}
);
width = 882;
}
);
category = Letter;
},
{
glyphname = brm_TTHU;
lastChange = "2019-09-20 20:39:33 +0000";
layers = (
{
layerId = UUID0;
paths = (
{
closed = 1;
nodes = (
"449 -159 LINE",
"449 29 LINE",
"625 48 OFFCURVE",
"740 191 OFFCURVE",
"740 358 CURVE SMOOTH",
"740 551 OFFCURVE",
"594 689 OFFCURVE",
"409 689 CURVE SMOOTH",
"215 689 OFFCURVE",
"78 541 OFFCURVE",
"78 358 CURVE SMOOTH",
"78 180 OFFCURVE",
"203 48 OFFCURVE",
"369 29 CURVE",
"369 -159 LINE"
);
},
{
closed = 1;
nodes = (
"173 500 OFFCURVE",
"282 605 OFFCURVE",
"409 605 CURVE SMOOTH",
"546 605 OFFCURVE",
"645 489 OFFCURVE",
"645 359 CURVE SMOOTH",
"645 220 OFFCURVE",
"538 111 OFFCURVE",
"409 111 CURVE SMOOTH",
"273 111 OFFCURVE",
"173 227 OFFCURVE",
"173 359 CURVE SMOOTH"
);
}
);
width = 818;
}
);
category = Letter;
},
{
glyphname = brm_TTHUU;
lastChange = "2019-09-20 20:39:33 +0000";
layers = (
{
layerId = UUID0;
paths = (
{
closed = 1;
nodes = (
"520 -159 LINE",
"520 44 LINE",
"655 89 OFFCURVE",
"740 215 OFFCURVE",
"740 358 CURVE SMOOTH",
"740 551 OFFCURVE",
"594 689 OFFCURVE",
"409 689 CURVE SMOOTH",
"215 689 OFFCURVE",
"78 541 OFFCURVE",
"78 358 CURVE SMOOTH",
"78 206 OFFCURVE",
"169 88 OFFCURVE",
"298 45 CURVE",
"298 -159 LINE",
"378 -159 LINE",
"378 28 LINE",
"389 27 OFFCURVE",
"398 27 OFFCURVE",
"409 27 CURVE SMOOTH",
"419 27 OFFCURVE",
"430 28 OFFCURVE",
"440 29 CURVE",
"440 -159 LINE"
);
},
{
closed = 1;
nodes = (
"173 500 OFFCURVE",
"282 605 OFFCURVE",
"409 605 CURVE SMOOTH",
"546 605 OFFCURVE",
"645 489 OFFCURVE",
"645 359 CURVE SMOOTH",
"645 220 OFFCURVE",
"538 111 OFFCURVE",
"409 111 CURVE SMOOTH",
"273 111 OFFCURVE",
"173 227 OFFCURVE",
"173 359 CURVE SMOOTH"
);
}
);
width = 818;
}
);
category = Letter;
},
{
glyphname = brm_DDHU;
lastChange = "2019-09-20 20:39:33 +0000";
layers = (
{
layerId = UUID0;
paths = (
{
closed = 1;
nodes = (
"348 -159 LINE",
"348 -9 LINE",
"467 3 OFFCURVE",
"537 64 OFFCURVE",
"537 162 CURVE SMOOTH",
"537 244 OFFCURVE",
"479 299 OFFCURVE",
"393 299 CURVE SMOOTH",
"315 299 OFFCURVE",
"266 257 OFFCURVE",
"243 194 CURVE",
"327 155 LINE",
"341 198 OFFCURVE",
"365 220 OFFCURVE",
"399 220 CURVE SMOOTH",
"427 220 OFFCURVE",
"447 201 OFFCURVE",
"447 162 CURVE SMOOTH",
"447 103 OFFCURVE",
"395 72 OFFCURVE",
"310 72 CURVE SMOOTH",
"216 72 OFFCURVE",
"159 125 OFFCURVE",
"159 211 CURVE SMOOTH",
"159 294 OFFCURVE",
"226 362 OFFCURVE",
"310 362 CURVE SMOOTH",
"355 362 LINE",
"355 714 LINE",
"265 714 LINE",
"265 437 LINE",
"151 420 OFFCURVE",
"63 324 OFFCURVE",
"63 215 CURVE SMOOTH",
"63 99 OFFCURVE",
"142 3 OFFCURVE",
"268 -10 CURVE",
"268 -159 LINE"
);
}
);
width = 600;
}
);
category = Letter;
},
{
glyphname = brm_DDHUU;
lastChange = "2019-09-20 20:39:33 +0000";
layers = (
{
layerId = UUID0;
paths = (
{
closed = 1;
nodes = (
"419 -159 LINE",
"419 6 LINE",
"494 32 OFFCURVE",
"537 85 OFFCURVE",
"537 162 CURVE SMOOTH",
"537 244 OFFCURVE",
"479 299 OFFCURVE",
"393 299 CURVE SMOOTH",
"315 299 OFFCURVE",
"266 257 OFFCURVE",
"243 194 CURVE",
"327 155 LINE",
"341 198 OFFCURVE",
"365 220 OFFCURVE",
"399 220 CURVE SMOOTH",
"427 220 OFFCURVE",
"447 201 OFFCURVE",
"447 162 CURVE SMOOTH",
"447 103 OFFCURVE",
"395 72 OFFCURVE",
"310 72 CURVE SMOOTH",
"216 72 OFFCURVE",
"159 125 OFFCURVE",
"159 211 CURVE SMOOTH",
"159 294 OFFCURVE",
"226 362 OFFCURVE",
"310 362 CURVE SMOOTH",
"355 362 LINE",
"355 714 LINE",
"265 714 LINE",
"265 437 LINE",
"151 420 OFFCURVE",
"63 324 OFFCURVE",
"63 215 CURVE SMOOTH",
"63 123 OFFCURVE",
"113 43 OFFCURVE",
"197 8 CURVE",
"197 -159 LINE",
"277 -159 LINE",
"277 -11 LINE",
"290 -12 OFFCURVE",
"293 -12 OFFCURVE",
"300 -12 CURVE SMOOTH",
"313 -12 OFFCURVE",
"326 -11 OFFCURVE",
"339 -10 CURVE",
"339 -159 LINE"
);
}
);
width = 600;
}
);
category = Letter;
},
{
glyphname = brm_NNU;
lastChange = "2019-09-20 20:39:33 +0000";
layers = (
{
layerId = UUID0;
paths = (
{
closed = 1;
nodes = (
"489 -159 LINE",
"489 80 LINE",
"314 80 LINE",
"314 634 LINE",
"489 634 LINE",
"489 714 LINE",
"49 714 LINE",
"49 634 LINE",
"224 634 LINE",
"224 80 LINE",
"49 80 LINE",
"49 0 LINE",
"409 0 LINE",
"409 -159 LINE"
);
}
);
width = 538;
}
);
category = Letter;
},
{
glyphname = brm_NNUU;
lastChange = "2019-09-20 20:39:33 +0000";
layers = (
{
layerId = UUID0;
paths = (
{
closed = 1;
nodes = (
"489 -159 LINE",
"489 80 LINE",
"314 80 LINE",
"314 634 LINE",
"489 634 LINE",
"489 714 LINE",
"49 714 LINE",
"49 634 LINE",
"224 634 LINE",
"224 80 LINE",
"49 80 LINE",
"49 0 LINE",
"268 0 LINE",
"268 -159 LINE",
"348 -159 LINE",
"348 0 LINE",
"409 0 LINE",
"409 -159 LINE"
);
}
);
width = 538;
}
);
category = Letter;
},
{
glyphname = brm_THO;
lastChange = "2019-09-20 20:39:33 +0000";
layers = (
{
layerId = UUID0;
paths = (
{
closed = 1;
nodes = (
"49 606 LINE",
"216 606 LINE",
"149 545 OFFCURVE",
"110 458 OFFCURVE",
"110 358 CURVE SMOOTH",
"110 166 OFFCURVE",
"256 27 OFFCURVE",
"441 27 CURVE SMOOTH",
"638 27 OFFCURVE",
"772 179 OFFCURVE",
"772 358 CURVE SMOOTH",
"772 461 OFFCURVE",
"732 547 OFFCURVE",
"665 606 CURVE",
"833 606 LINE",
"833 686 LINE",
"490 686 LINE",
"469 688 OFFCURVE",
"458 689 OFFCURVE",
"441 689 CURVE SMOOTH",
"424 689 OFFCURVE",
"413 688 OFFCURVE",
"391 686 CURVE",
"49 686 LINE"
);
},
{
closed = 1;
nodes = (
"205 500 OFFCURVE",
"314 605 OFFCURVE",
"441 605 CURVE SMOOTH",
"578 605 OFFCURVE",
"677 490 OFFCURVE",
"677 359 CURVE SMOOTH",
"677 219 OFFCURVE",
"569 111 OFFCURVE",
"441 111 CURVE SMOOTH",
"304 111 OFFCURVE",
"205 227 OFFCURVE",
"205 359 CURVE SMOOTH"
);
},
{
closed = 1;
nodes = (
"379 319 OFFCURVE",
"401 294 OFFCURVE",
"440 294 CURVE SMOOTH",
"480 294 OFFCURVE",
"503 321 OFFCURVE",
"503 362 CURVE SMOOTH",
"503 406 OFFCURVE",
"481 430 OFFCURVE",
"440 430 CURVE SMOOTH",
"399 430 OFFCURVE",
"379 405 OFFCURVE",
"379 362 CURVE SMOOTH"
);
}
);
width = 882;
}
);
category = Letter;
},
{
glyphname = brm_THAU;
lastChange = "2019-09-20 20:39:33 +0000";
layers = (
{
layerId = UUID0;
paths = (
{
closed = 1;
nodes = (
"49 446 LINE",
"121 446 LINE",
"113 418 OFFCURVE",
"110 389 OFFCURVE",
"110 358 CURVE SMOOTH",
"110 166 OFFCURVE",
"256 27 OFFCURVE",
"441 27 CURVE SMOOTH",
"638 27 OFFCURVE",
"772 179 OFFCURVE",
"772 358 CURVE SMOOTH",
"772 461 OFFCURVE",
"732 547 OFFCURVE",
"665 606 CURVE",
"833 606 LINE",
"833 686 LINE",
"490 686 LINE",
"469 688 OFFCURVE",
"458 689 OFFCURVE",
"441 689 CURVE SMOOTH",
"424 689 OFFCURVE",
"413 688 OFFCURVE",
"391 686 CURVE",
"49 686 LINE",
"49 606 LINE",
"216 606 LINE",
"191 583 OFFCURVE",
"170 557 OFFCURVE",
"153 526 CURVE",
"49 526 LINE"
);
},
{
closed = 1;
nodes = (
"205 500 OFFCURVE",
"314 605 OFFCURVE",
"441 605 CURVE SMOOTH",
"578 605 OFFCURVE",
"677 490 OFFCURVE",
"677 359 CURVE SMOOTH",
"677 219 OFFCURVE",
"569 111 OFFCURVE",
"441 111 CURVE SMOOTH",
"304 111 OFFCURVE",
"205 227 OFFCURVE",
"205 359 CURVE SMOOTH"
);
},
{
closed = 1;
nodes = (
"379 319 OFFCURVE",
"401 294 OFFCURVE",
"440 294 CURVE SMOOTH",
"480 294 OFFCURVE",
"503 321 OFFCURVE",
"503 362 CURVE SMOOTH",
"503 406 OFFCURVE",
"481 430 OFFCURVE",
"440 430 CURVE SMOOTH",
"399 430 OFFCURVE",
"379 405 OFFCURVE",
"379 362 CURVE SMOOTH"
);
}
);
width = 882;
}
);
category = Letter;
},
{
glyphname = brm_THU;
lastChange = "2019-09-20 20:39:33 +0000";
layers = (
{
layerId = UUID0;
paths = (
{
closed = 1;
nodes = (
"449 -159 LINE",
"449 29 LINE",
"625 48 OFFCURVE",
"740 191 OFFCURVE",
"740 358 CURVE SMOOTH",
"740 551 OFFCURVE",
"594 689 OFFCURVE",
"409 689 CURVE SMOOTH",
"215 689 OFFCURVE",
"78 541 OFFCURVE",
"78 358 CURVE SMOOTH",
"78 180 OFFCURVE",
"203 48 OFFCURVE",
"369 29 CURVE",
"369 -159 LINE"
);
},
{
closed = 1;
nodes = (
"173 500 OFFCURVE",
"282 605 OFFCURVE",
"409 605 CURVE SMOOTH",
"546 605 OFFCURVE",
"645 489 OFFCURVE",
"645 359 CURVE SMOOTH",
"645 220 OFFCURVE",
"538 111 OFFCURVE",
"409 111 CURVE SMOOTH",
"273 111 OFFCURVE",
"173 227 OFFCURVE",
"173 359 CURVE SMOOTH"
);
},
{
closed = 1;
nodes = (
"347 319 OFFCURVE",
"370 294 OFFCURVE",
"408 294 CURVE SMOOTH",
"448 294 OFFCURVE",
"471 320 OFFCURVE",
"471 362 CURVE SMOOTH",
"471 405 OFFCURVE",
"449 430 OFFCURVE",
"408 430 CURVE SMOOTH",
"368 430 OFFCURVE",
"347 405 OFFCURVE",
"347 362 CURVE SMOOTH"
);
}
);
width = 818;
}
);
category = Letter;
},
{
glyphname = brm_THUU;
lastChange = "2019-09-20 20:39:33 +0000";
layers = (
{
layerId = UUID0;
paths = (
{
closed = 1;
nodes = (
"520 -159 LINE",
"520 44 LINE",
"655 89 OFFCURVE",
"740 215 OFFCURVE",
"740 358 CURVE SMOOTH",
"740 551 OFFCURVE",
"594 689 OFFCURVE",
"409 689 CURVE SMOOTH",
"215 689 OFFCURVE",
"78 541 OFFCURVE",
"78 358 CURVE SMOOTH",
"78 206 OFFCURVE",
"169 88 OFFCURVE",
"298 45 CURVE",
"298 -159 LINE",
"378 -159 LINE",
"378 28 LINE",
"389 27 OFFCURVE",
"398 27 OFFCURVE",
"409 27 CURVE SMOOTH",
"419 27 OFFCURVE",
"430 28 OFFCURVE",
"440 29 CURVE",
"440 -159 LINE"
);
},
{
closed = 1;
nodes = (
"173 500 OFFCURVE",
"282 605 OFFCURVE",
"409 605 CURVE SMOOTH",
"546 605 OFFCURVE",
"645 489 OFFCURVE",
"645 359 CURVE SMOOTH",
"645 220 OFFCURVE",
"538 111 OFFCURVE",
"409 111 CURVE SMOOTH",
"273 111 OFFCURVE",
"173 227 OFFCURVE",
"173 359 CURVE SMOOTH"
);
},
{
closed = 1;
nodes = (
"347 319 OFFCURVE",
"370 294 OFFCURVE",
"408 294 CURVE SMOOTH",
"448 294 OFFCURVE",
"471 320 OFFCURVE",
"471 362 CURVE SMOOTH",
"471 405 OFFCURVE",
"449 430 OFFCURVE",
"408 430 CURVE SMOOTH",
"368 430 OFFCURVE",
"347 405 OFFCURVE",
"347 362 CURVE SMOOTH"
);
}
);
width = 818;
}
);
category = Letter;
},
{
glyphname = brm_DHO;
lastChange = "2019-09-20 20:39:33 +0000";
layers = (
{
layerId = UUID0;
paths = (
{
closed = 1;
nodes = (
"332 0 LINE",
"551 0 OFFCURVE",
"660 132 OFFCURVE",
"660 358 CURVE SMOOTH",
"660 469 OFFCURVE",
"630 559 OFFCURVE",
"554 634 CURVE",
"710 634 LINE",
"710 714 LINE",
"49 714 LINE",
"49 634 LINE",
"228 634 LINE",
"228 0 LINE"
);
},
{
closed = 1;
nodes = (
"317 634 LINE",
"481 634 OFFCURVE",
"565 525 OFFCURVE",
"565 357 CURVE SMOOTH",
"565 179 OFFCURVE",
"479 80 OFFCURVE",
"319 80 CURVE SMOOTH",
"317 80 LINE"
);
}
);
width = 759;
}
);
category = Letter;
},
{
glyphname = brm_DHAU;
lastChange = "2019-09-20 20:39:33 +0000";
layers = (
{
layerId = UUID0;
paths = (
{
closed = 1;
nodes = (
"49 634 LINE",
"228 634 LINE",
"228 554 LINE",
"49 554 LINE",
"49 474 LINE",
"228 474 LINE",
"228 0 LINE",
"332 0 LINE SMOOTH",
"551 0 OFFCURVE",
"660 132 OFFCURVE",
"660 358 CURVE SMOOTH",
"660 470 OFFCURVE",
"634 554 OFFCURVE",
"554 634 CURVE",
"710 634 LINE",
"710 714 LINE",
"49 714 LINE"
);
},
{
closed = 1;
nodes = (
"317 634 LINE",
"481 634 OFFCURVE",
"565 525 OFFCURVE",
"565 357 CURVE SMOOTH",
"565 179 OFFCURVE",
"479 80 OFFCURVE",
"319 80 CURVE SMOOTH",
"317 80 LINE"
);
}
);
width = 759;
}
);
category = Letter;
},
{
glyphname = brm_NU;
lastChange = "2019-09-20 20:39:33 +0000";
layers = (
{
layerId = UUID0;
paths = (
{
closed = 1;
nodes = (
"489 -159 LINE",
"489 80 LINE",
"314 80 LINE",
"314 714 LINE",
"224 714 LINE",
"224 80 LINE",
"49 80 LINE",
"49 0 LINE",
"409 0 LINE",
"409 -159 LINE"
);
}
);
width = 538;
}
);
category = Letter;
},
{
glyphname = brm_NUU;
lastChange = "2019-09-20 20:39:33 +0000";
layers = (
{
layerId = UUID0;
paths = (
{
closed = 1;
nodes = (
"489 -159 LINE",
"489 80 LINE",
"314 80 LINE",
"314 714 LINE",
"224 714 LINE",
"224 80 LINE",
"49 80 LINE",
"49 0 LINE",
"268 0 LINE",
"268 -159 LINE",
"348 -159 LINE",
"348 0 LINE",
"409 0 LINE",
"409 -159 LINE"
);
}
);
width = 538;
}
);
category = Letter;
},
{
glyphname = brm_PU;
lastChange = "2019-09-20 20:39:33 +0000";
layers = (
{
layerId = UUID0;
paths = (
{
closed = 1;
nodes = (
"354 -159 LINE",
"354 -9 LINE",
"483 5 OFFCURVE",
"531 78 OFFCURVE",
"531 250 CURVE SMOOTH",
"531 252 LINE",
"441 252 LINE",
"441 250 LINE SMOOTH",
"441 116 OFFCURVE",
"411 72 OFFCURVE",
"312 72 CURVE SMOOTH",
"212 72 OFFCURVE",
"187 111 OFFCURVE",
"187 249 CURVE SMOOTH",
"187 714 LINE",
"98 714 LINE",
"98 252 LINE SMOOTH",
"98 76 OFFCURVE",
"144 3 OFFCURVE",
"273 -10 CURVE",
"273 -159 LINE"
);
}
);
width = 609;
}
);
category = Letter;
},
{
glyphname = brm_PUU;
lastChange = "2019-09-20 20:39:33 +0000";
layers = (
{
layerId = UUID0;
paths = (
{
closed = 1;
nodes = (
"424 -159 LINE",
"424 8 LINE",
"500 42 OFFCURVE",
"531 106 OFFCURVE",
"531 250 CURVE SMOOTH",
"531 252 LINE",
"441 252 LINE",
"441 250 LINE SMOOTH",
"441 116 OFFCURVE",
"411 72 OFFCURVE",
"312 72 CURVE SMOOTH",
"212 72 OFFCURVE",
"187 111 OFFCURVE",
"187 249 CURVE SMOOTH",
"187 714 LINE",
"98 714 LINE",
"98 252 LINE SMOOTH",
"98 105 OFFCURVE",
"128 41 OFFCURVE",
"203 7 CURVE",
"203 -159 LINE",
"283 -159 LINE",
"283 -11 LINE",
"296 -12 OFFCURVE",
"301 -12 OFFCURVE",
"311 -12 CURVE SMOOTH",
"323 -12 OFFCURVE",
"328 -12 OFFCURVE",
"344 -10 CURVE",
"344 -159 LINE"
);
}
);
width = 609;
}
);
category = Letter;
},
{
glyphname = brm_PHU;
lastChange = "2019-09-20 20:39:33 +0000";
layers = (
{
layerId = UUID0;
paths = (
{
closed = 1;
nodes = (
"347 -159 LINE",
"347 -7 LINE",
"448 12 OFFCURVE",
"513 96 OFFCURVE",
"513 202 CURVE SMOOTH",
"513 320 OFFCURVE",
"435 400 OFFCURVE",
"312 400 CURVE SMOOTH",
"283 400 OFFCURVE",
"255 394 OFFCURVE",
"228 383 CURVE",
"265 308 LINE",
"284 313 OFFCURVE",
"302 316 OFFCURVE",
"321 316 CURVE SMOOTH",
"378 316 OFFCURVE",
"418 269 OFFCURVE",
"418 204 CURVE SMOOTH",
"418 116 OFFCURVE",
"379 72 OFFCURVE",
"300 72 CURVE SMOOTH",
"217 72 OFFCURVE",
"187 111 OFFCURVE",
"187 215 CURVE SMOOTH",
"187 714 LINE",
"98 714 LINE",
"98 215 LINE SMOOTH",
"98 75 OFFCURVE",
"151 1 OFFCURVE",
"267 -10 CURVE",
"267 -159 LINE"
);
}
);
width = 576;
}
);
category = Letter;
},
{
glyphname = brm_PHUU;
lastChange = "2019-09-20 20:39:33 +0000";
layers = (
{
layerId = UUID0;
paths = (
{
closed = 1;
nodes = (
"417 -159 LINE",
"417 20 LINE",
"477 57 OFFCURVE",
"513 123 OFFCURVE",
"513 202 CURVE SMOOTH",
"513 320 OFFCURVE",
"435 400 OFFCURVE",
"312 400 CURVE SMOOTH",
"283 400 OFFCURVE",
"255 394 OFFCURVE",
"228 383 CURVE",
"265 308 LINE",
"284 313 OFFCURVE",
"302 316 OFFCURVE",
"321 316 CURVE SMOOTH",
"378 316 OFFCURVE",
"418 269 OFFCURVE",
"418 204 CURVE SMOOTH",
"418 116 OFFCURVE",
"379 72 OFFCURVE",
"300 72 CURVE SMOOTH",
"217 72 OFFCURVE",
"187 111 OFFCURVE",
"187 215 CURVE SMOOTH",
"187 714 LINE",
"98 714 LINE",
"98 215 LINE SMOOTH",
"98 108 OFFCURVE",
"129 40 OFFCURVE",
"196 8 CURVE",
"196 -159 LINE",
"276 -159 LINE",
"276 -11 LINE",
"286 -12 OFFCURVE",
"292 -12 OFFCURVE",
"300 -12 CURVE SMOOTH",
"313 -12 OFFCURVE",
"325 -11 OFFCURVE",
"337 -9 CURVE",
"337 -159 LINE"
);
}
);
width = 576;
}
);
category = Letter;
},
{
glyphname = brm_BO;
lastChange = "2019-09-20 20:39:33 +0000";
layers = (
{
layerId = UUID0;
paths = (
{
closed = 1;
nodes = (
"788 70 LINE",
"788 572 LINE",
"949 572 LINE",
"949 652 LINE",
"49 652 LINE",
"49 572 LINE",
"210 572 LINE",
"210 70 LINE"
);
},
{
closed = 1;
nodes = (
"300 572 LINE",
"698 572 LINE",
"698 150 LINE",
"300 150 LINE"
);
}
);
width = 998;
}
);
category = Letter;
},
{
glyphname = brm_BAU;
lastChange = "2019-09-20 20:39:33 +0000";
layers = (
{
layerId = UUID0;
paths = (
{
closed = 1;
nodes = (
"788 70 LINE",
"788 572 LINE",
"949 572 LINE",
"949 652 LINE",
"49 652 LINE",
"49 572 LINE",
"210 572 LINE",
"210 492 LINE",
"49 492 LINE",
"49 412 LINE",
"210 412 LINE",
"210 70 LINE"
);
},
{
closed = 1;
nodes = (
"300 572 LINE",
"698 572 LINE",
"698 150 LINE",
"300 150 LINE"
);
}
);
width = 998;
}
);
category = Letter;
},
{
glyphname = brm_BU;
lastChange = "2019-09-20 20:39:33 +0000";
layers = (
{
layerId = UUID0;
paths = (
{
closed = 1;
nodes = (
"426 -110 LINE",
"426 70 LINE",
"675 70 LINE",
"675 652 LINE",
"98 652 LINE",
"98 70 LINE",
"346 70 LINE",
"346 -110 LINE"
);
},
{
closed = 1;
nodes = (
"187 572 LINE",
"585 572 LINE",
"585 150 LINE",
"187 150 LINE"
);
}
);
width = 773;
}
);
category = Letter;
},
{
glyphname = brm_BUU;
lastChange = "2019-09-20 20:39:33 +0000";
layers = (
{
layerId = UUID0;
paths = (
{
closed = 1;
nodes = (
"497 -110 LINE",
"497 70 LINE",
"675 70 LINE",
"675 652 LINE",
"98 652 LINE",
"98 70 LINE",
"275 70 LINE",
"275 -110 LINE",
"355 -110 LINE",
"355 70 LINE",
"417 70 LINE",
"417 -110 LINE"
);
},
{
closed = 1;
nodes = (
"187 572 LINE",
"585 572 LINE",
"585 150 LINE",
"187 150 LINE"
);
}
);
width = 773;
}
);
category = Letter;
},
{
glyphname = brm_MO;
lastChange = "2019-09-20 20:39:33 +0000";
layers = (
{
layerId = UUID0;
paths = (
{
closed = 1;
nodes = (
"665 674 LINE",
"665 550 OFFCURVE",
"577 498 OFFCURVE",
"484 442 CURVE",
"393 496 OFFCURVE",
"303 550 OFFCURVE",
"303 674 CURVE SMOOTH",
"303 714 LINE",
"34 714 LINE",
"34 634 LINE",
"215 634 LINE",
"229 520 OFFCURVE",
"296 458 OFFCURVE",
"407 394 CURVE",
"312 333 OFFCURVE",
"271 263 OFFCURVE",
"271 174 CURVE SMOOTH",
"271 57 OFFCURVE",
"347 -12 OFFCURVE",
"482 -12 CURVE SMOOTH",
"621 -12 OFFCURVE",
"697 57 OFFCURVE",
"697 174 CURVE SMOOTH",
"697 262 OFFCURVE",
"658 332 OFFCURVE",
"562 395 CURVE",
"695 478 OFFCURVE",
"741 534 OFFCURVE",
"752 634 CURVE",
"934 634 LINE",
"934 714 LINE",
"665 714 LINE"
);
},
{
closed = 1;
nodes = (
"565 299 OFFCURVE",
"602 246 OFFCURVE",
"602 178 CURVE SMOOTH",
"602 106 OFFCURVE",
"558 72 OFFCURVE",
"482 72 CURVE SMOOTH",
"410 72 OFFCURVE",
"366 107 OFFCURVE",
"366 178 CURVE SMOOTH",
"366 246 OFFCURVE",
"405 299 OFFCURVE",
"485 350 CURVE"
);
}
);
width = 968;
}
);
category = Letter;
},
{
glyphname = brm_MAU;
lastChange = "2019-09-20 20:39:33 +0000";
layers = (
{
layerId = UUID0;
paths = (
{
closed = 1;
nodes = (
"34 474 LINE",
"295 474 LINE",
"320 450 OFFCURVE",
"357 423 OFFCURVE",
"407 394 CURVE",
"312 333 OFFCURVE",
"271 263 OFFCURVE",
"271 174 CURVE SMOOTH",
"271 57 OFFCURVE",
"347 -12 OFFCURVE",
"482 -12 CURVE SMOOTH",
"621 -12 OFFCURVE",
"697 57 OFFCURVE",
"697 174 CURVE SMOOTH",
"697 262 OFFCURVE",
"658 332 OFFCURVE",
"562 395 CURVE",
"695 478 OFFCURVE",
"741 534 OFFCURVE",
"752 634 CURVE",
"934 634 LINE",
"934 714 LINE",
"665 714 LINE",
"665 674 LINE SMOOTH",
"665 550 OFFCURVE",
"577 498 OFFCURVE",
"484 442 CURVE",
"393 496 OFFCURVE",
"303 550 OFFCURVE",
"303 674 CURVE SMOOTH",
"303 714 LINE",
"34 714 LINE",
"34 634 LINE",
"215 634 LINE",
"218 603 OFFCURVE",
"226 578 OFFCURVE",
"237 554 CURVE",
"34 554 LINE"
);
},
{
closed = 1;
nodes = (
"565 299 OFFCURVE",
"602 246 OFFCURVE",
"602 178 CURVE SMOOTH",
"602 106 OFFCURVE",
"558 72 OFFCURVE",
"482 72 CURVE SMOOTH",
"410 72 OFFCURVE",
"366 107 OFFCURVE",
"366 178 CURVE SMOOTH",
"366 246 OFFCURVE",
"405 299 OFFCURVE",
"485 350 CURVE"
);
}
);
width = 968;
}
);
category = Letter;
},
{
glyphname = brm_MU;
lastChange = "2019-09-20 20:39:33 +0000";
layers = (
{
layerId = UUID0;
paths = (
{
closed = 1;
nodes = (
"389 -159 LINE",
"389 -9 LINE",
"500 3 OFFCURVE",
"562 68 OFFCURVE",
"562 174 CURVE SMOOTH",
"562 262 OFFCURVE",
"523 332 OFFCURVE",
"427 395 CURVE",
"569 481 OFFCURVE",
"620 547 OFFCURVE",
"620 674 CURVE SMOOTH",
"620 714 LINE",
"530 714 LINE",
"530 674 LINE SMOOTH",
"530 550 OFFCURVE",
"437 495 OFFCURVE",
"349 442 CURVE",
"238 507 OFFCURVE",
"168 563 OFFCURVE",
"168 674 CURVE SMOOTH",
"168 714 LINE",
"78 714 LINE",
"78 674 LINE SMOOTH",
"78 534 OFFCURVE",
"156 459 OFFCURVE",
"272 394 CURVE",
"178 333 OFFCURVE",
"136 264 OFFCURVE",
"136 174 CURVE SMOOTH",
"136 68 OFFCURVE",
"198 2 OFFCURVE",
"309 -10 CURVE",
"309 -159 LINE"
);
},
{
closed = 1;
nodes = (
"275 72 OFFCURVE",
"231 106 OFFCURVE",
"231 178 CURVE SMOOTH",
"231 246 OFFCURVE",
"270 299 OFFCURVE",
"351 350 CURVE",
"431 299 OFFCURVE",
"467 246 OFFCURVE",
"467 178 CURVE SMOOTH",
"467 106 OFFCURVE",
"423 72 OFFCURVE",
"347 72 CURVE SMOOTH"
);
}
);
width = 698;
}
);
category = Letter;
},
{
glyphname = brm_MUU;
lastChange = "2019-09-20 20:39:33 +0000";
layers = (
{
layerId = UUID0;
paths = (
{
closed = 1;
nodes = (
"460 -159 LINE",
"460 8 LINE",
"526 36 OFFCURVE",
"562 93 OFFCURVE",
"562 174 CURVE SMOOTH",
"562 262 OFFCURVE",
"523 332 OFFCURVE",
"427 395 CURVE",
"569 481 OFFCURVE",
"620 547 OFFCURVE",
"620 674 CURVE SMOOTH",
"620 714 LINE",
"530 714 LINE",
"530 674 LINE SMOOTH",
"530 560 OFFCURVE",
"458 507 OFFCURVE",
"349 442 CURVE",
"239 508 OFFCURVE",
"168 559 OFFCURVE",
"168 674 CURVE SMOOTH",
"168 714 LINE",
"78 714 LINE",
"78 674 LINE SMOOTH",
"78 540 OFFCURVE",
"145 467 OFFCURVE",
"272 394 CURVE",
"178 333 OFFCURVE",
"136 264 OFFCURVE",
"136 174 CURVE SMOOTH",
"136 93 OFFCURVE",
"172 36 OFFCURVE",
"238 7 CURVE",
"238 -159 LINE",
"318 -159 LINE",
"318 -10 LINE",
"333 -12 OFFCURVE",
"339 -12 OFFCURVE",
"347 -12 CURVE SMOOTH",
"358 -12 OFFCURVE",
"369 -11 OFFCURVE",
"380 -10 CURVE",
"380 -159 LINE"
);
},
{
closed = 1;
nodes = (
"431 299 OFFCURVE",
"467 246 OFFCURVE",
"467 178 CURVE SMOOTH",
"467 106 OFFCURVE",
"423 72 OFFCURVE",
"347 72 CURVE SMOOTH",
"275 72 OFFCURVE",
"231 106 OFFCURVE",
"231 178 CURVE SMOOTH",
"231 246 OFFCURVE",
"270 299 OFFCURVE",
"351 350 CURVE"
);
}
);
width = 698;
}
);
category = Letter;
},
{
glyphname = brm_YU;
lastChange = "2019-09-20 20:39:33 +0000";
layers = (
{
layerId = UUID0;
paths = (
{
closed = 1;
nodes = (
"591 -159 LINE",
"591 -9 LINE",
"695 4 OFFCURVE",
"743 70 OFFCURVE",
"743 218 CURVE SMOOTH",
"743 251 LINE",
"653 251 LINE",
"653 218 LINE SMOOTH",
"653 108 OFFCURVE",
"628 72 OFFCURVE",
"553 72 CURVE SMOOTH",
"473 72 OFFCURVE",
"448 107 OFFCURVE",
"448 208 CURVE SMOOTH",
"448 714 LINE",
"358 714 LINE",
"358 208 LINE SMOOTH",
"358 111 OFFCURVE",
"333 72 OFFCURVE",
"254 72 CURVE SMOOTH",
"179 72 OFFCURVE",
"153 108 OFFCURVE",
"153 218 CURVE SMOOTH",
"153 251 LINE",
"63 251 LINE",
"63 218 LINE SMOOTH",
"63 53 OFFCURVE",
"123 -12 OFFCURVE",
"259 -12 CURVE SMOOTH",
"326 -12 OFFCURVE",
"374 6 OFFCURVE",
"403 42 CURVE",
"427 13 OFFCURVE",
"462 -4 OFFCURVE",
"511 -10 CURVE",
"511 -159 LINE"
);
}
);
width = 807;
}
);
category = Letter;
},
{
glyphname = brm_YUU;
lastChange = "2019-09-20 20:39:33 +0000";
layers = (
{
layerId = UUID0;
paths = (
{
closed = 1;
nodes = (
"662 -159 LINE",
"662 13 LINE",
"716 46 OFFCURVE",
"743 108 OFFCURVE",
"743 218 CURVE SMOOTH",
"743 251 LINE",
"653 251 LINE",
"653 218 LINE SMOOTH",
"653 108 OFFCURVE",
"628 72 OFFCURVE",
"553 72 CURVE SMOOTH",
"473 72 OFFCURVE",
"448 107 OFFCURVE",
"448 208 CURVE SMOOTH",
"448 714 LINE",
"358 714 LINE",
"358 208 LINE SMOOTH",
"358 111 OFFCURVE",
"333 72 OFFCURVE",
"254 72 CURVE SMOOTH",
"179 72 OFFCURVE",
"153 108 OFFCURVE",
"153 218 CURVE SMOOTH",
"153 251 LINE",
"63 251 LINE",
"63 218 LINE SMOOTH",
"63 53 OFFCURVE",
"123 -12 OFFCURVE",
"259 -12 CURVE SMOOTH",
"326 -12 OFFCURVE",
"374 6 OFFCURVE",
"403 42 CURVE",
"413 29 OFFCURVE",
"425 19 OFFCURVE",
"440 11 CURVE",
"440 -159 LINE",
"520 -159 LINE",
"520 -11 LINE",
"531 -12 OFFCURVE",
"538 -12 OFFCURVE",
"547 -12 CURVE SMOOTH",
"559 -12 OFFCURVE",
"571 -11 OFFCURVE",
"582 -10 CURVE",
"582 -159 LINE"
);
}
);
width = 807;
}
);
category = Letter;
},
{
glyphname = brm_LU;
lastChange = "2019-09-20 20:39:33 +0000";
layers = (
{
layerId = UUID0;
paths = (
{
closed = 1;
nodes = (
"458 -159 LINE",
"458 -10 LINE",
"586 3 OFFCURVE",
"635 77 OFFCURVE",
"635 254 CURVE SMOOTH",
"635 714 LINE",
"545 714 LINE",
"545 251 LINE SMOOTH",
"545 117 OFFCURVE",
"519 73 OFFCURVE",
"421 73 CURVE SMOOTH",
"321 73 OFFCURVE",
"291 120 OFFCURVE",
"291 251 CURVE SMOOTH",
"291 255 LINE",
"49 255 LINE",
"49 175 LINE",
"205 175 LINE",
"220 57 OFFCURVE",
"271 2 OFFCURVE",
"377 -9 CURVE",
"377 -159 LINE"
);
}
);
width = 732;
}
);
category = Letter;
},
{
glyphname = brm_LUU;
lastChange = "2019-09-20 20:39:33 +0000";
layers = (
{
layerId = UUID0;
paths = (
{
closed = 1;
nodes = (
"528 -159 LINE",
"528 7 LINE",
"603 40 OFFCURVE",
"635 108 OFFCURVE",
"635 254 CURVE SMOOTH",
"635 714 LINE",
"545 714 LINE",
"545 251 LINE SMOOTH",
"545 117 OFFCURVE",
"519 73 OFFCURVE",
"421 73 CURVE SMOOTH",
"321 73 OFFCURVE",
"291 120 OFFCURVE",
"291 251 CURVE SMOOTH",
"291 255 LINE",
"49 255 LINE",
"49 175 LINE",
"205 175 LINE",
"216 84 OFFCURVE",
"247 36 OFFCURVE",
"307 9 CURVE",
"307 -159 LINE",
"387 -159 LINE",
"387 -10 LINE",
"397 -11 OFFCURVE",
"409 -12 OFFCURVE",
"421 -12 CURVE SMOOTH",
"431 -12 OFFCURVE",
"437 -12 OFFCURVE",
"448 -11 CURVE",
"448 -159 LINE"
);
}
);
width = 732;
}
);
category = Letter;
},
{
glyphname = brm_VU;
lastChange = "2019-09-20 20:39:33 +0000";
layers = (
{
layerId = UUID0;
paths = (
{
closed = 1;
nodes = (
"294 -159 LINE",
"294 -8 LINE",
"386 11 OFFCURVE",
"445 87 OFFCURVE",
"445 171 CURVE SMOOTH",
"445 256 OFFCURVE",
"386 330 OFFCURVE",
"299 350 CURVE",
"299 714 LINE",
"209 714 LINE",
"209 350 LINE",
"123 329 OFFCURVE",
"63 256 OFFCURVE",
"63 171 CURVE SMOOTH",
"63 87 OFFCURVE",
"122 11 OFFCURVE",
"214 -8 CURVE",
"214 -159 LINE"
);
},
{
closed = 1;
nodes = (
"153 229 OFFCURVE",
"197 276 OFFCURVE",
"254 276 CURVE SMOOTH",
"312 276 OFFCURVE",
"355 229 OFFCURVE",
"355 171 CURVE SMOOTH",
"355 115 OFFCURVE",
"311 67 OFFCURVE",
"254 67 CURVE SMOOTH",
"197 67 OFFCURVE",
"153 115 OFFCURVE",
"153 171 CURVE SMOOTH"
);
}
);
width = 509;
}
);
category = Letter;
},
{
glyphname = brm_VUU;
lastChange = "2019-09-20 20:39:33 +0000";
layers = (
{
layerId = UUID0;
paths = (
{
closed = 1;
nodes = (
"365 -159 LINE",
"365 22 LINE",
"415 56 OFFCURVE",
"445 111 OFFCURVE",
"445 171 CURVE SMOOTH",
"445 256 OFFCURVE",
"386 330 OFFCURVE",
"299 350 CURVE",
"299 714 LINE",
"209 714 LINE",
"209 350 LINE",
"123 329 OFFCURVE",
"63 256 OFFCURVE",
"63 171 CURVE SMOOTH",
"63 110 OFFCURVE",
"93 56 OFFCURVE",
"144 21 CURVE",
"144 -159 LINE",
"224 -159 LINE",
"224 -9 LINE",
"233 -11 OFFCURVE",
"244 -12 OFFCURVE",
"254 -12 CURVE SMOOTH",
"265 -12 OFFCURVE",
"275 -11 OFFCURVE",
"285 -9 CURVE",
"285 -159 LINE"
);
},
{
closed = 1;
nodes = (
"153 229 OFFCURVE",
"197 276 OFFCURVE",
"254 276 CURVE SMOOTH",
"312 276 OFFCURVE",
"355 229 OFFCURVE",
"355 171 CURVE SMOOTH",
"355 115 OFFCURVE",
"311 67 OFFCURVE",
"254 67 CURVE SMOOTH",
"197 67 OFFCURVE",
"153 115 OFFCURVE",
"153 171 CURVE SMOOTH"
);
}
);
width = 509;
}
);
category = Letter;
},
{
glyphname = brm_SSU;
lastChange = "2019-09-20 20:39:33 +0000";
layers = (
{
layerId = UUID0;
paths = (
{
closed = 1;
nodes = (
"354 -159 LINE",
"354 -9 LINE",
"483 5 OFFCURVE",
"531 78 OFFCURVE",
"531 250 CURVE SMOOTH",
"531 252 LINE",
"441 252 LINE",
"441 250 LINE SMOOTH",
"441 116 OFFCURVE",
"411 72 OFFCURVE",
"312 72 CURVE SMOOTH",
"212 72 OFFCURVE",
"187 111 OFFCURVE",
"187 249 CURVE SMOOTH",
"187 365 LINE",
"466 456 LINE",
"441 531 LINE",
"187 448 LINE",
"187 714 LINE",
"98 714 LINE",
"98 252 LINE SMOOTH",
"98 76 OFFCURVE",
"144 3 OFFCURVE",
"273 -10 CURVE",
"273 -159 LINE"
);
}
);
width = 609;
}
);
category = Letter;
},
{
glyphname = brm_SSUU;
lastChange = "2019-09-20 20:39:33 +0000";
layers = (
{
layerId = UUID0;
paths = (
{
closed = 1;
nodes = (
"424 -159 LINE",
"424 8 LINE",
"500 42 OFFCURVE",
"531 106 OFFCURVE",
"531 250 CURVE SMOOTH",
"531 252 LINE",
"441 252 LINE",
"441 250 LINE SMOOTH",
"441 116 OFFCURVE",
"411 72 OFFCURVE",
"312 72 CURVE SMOOTH",
"212 72 OFFCURVE",
"187 111 OFFCURVE",
"187 249 CURVE SMOOTH",
"187 365 LINE",
"466 456 LINE",
"441 531 LINE",
"187 448 LINE",
"187 714 LINE",
"98 714 LINE",
"98 252 LINE SMOOTH",
"98 105 OFFCURVE",
"128 41 OFFCURVE",
"203 7 CURVE",
"203 -159 LINE",
"283 -159 LINE",
"283 -11 LINE",
"295 -12 OFFCURVE",
"301 -12 OFFCURVE",
"311 -12 CURVE SMOOTH",
"323 -12 OFFCURVE",
"330 -12 OFFCURVE",
"344 -10 CURVE",
"344 -159 LINE"
);
}
);
width = 609;
}
);
category = Letter;
},
{
glyphname = brm_SU;
lastChange = "2019-09-20 20:39:33 +0000";
layers = (
{
layerId = UUID0;
paths = (
{
closed = 1;
nodes = (
"622 -159 LINE",
"622 -10 LINE",
"757 5 OFFCURVE",
"814 85 OFFCURVE",
"814 250 CURVE SMOOTH",
"814 252 LINE",
"725 252 LINE",
"725 250 LINE SMOOTH",
"725 122 OFFCURVE",
"680 72 OFFCURVE",
"581 72 CURVE SMOOTH",
"482 72 OFFCURVE",
"442 116 OFFCURVE",
"442 249 CURVE SMOOTH",
"442 714 LINE",
"352 714 LINE",
"352 348 LINE",
"328 355 OFFCURVE",
"303 359 OFFCURVE",
"277 359 CURVE SMOOTH",
"147 359 OFFCURVE",
"78 300 OFFCURVE",
"78 163 CURVE SMOOTH",
"78 0 LINE",
"168 0 LINE",
"168 146 LINE SMOOTH",
"168 237 OFFCURVE",
"199 275 OFFCURVE",
"288 275 CURVE SMOOTH",
"312 275 OFFCURVE",
"334 272 OFFCURVE",
"352 267 CURVE",
"352 252 LINE SMOOTH",
"352 83 OFFCURVE",
"410 3 OFFCURVE",
"542 -10 CURVE",
"542 -159 LINE"
);
}
);
width = 878;
}
);
category = Letter;
},
{
glyphname = brm_SUU;
lastChange = "2019-09-20 20:39:33 +0000";
layers = (
{
layerId = UUID0;
paths = (
{
closed = 1;
nodes = (
"693 -159 LINE",
"693 7 LINE",
"776 41 OFFCURVE",
"814 113 OFFCURVE",
"814 250 CURVE SMOOTH",
"814 252 LINE",
"725 252 LINE",
"725 250 LINE SMOOTH",
"725 122 OFFCURVE",
"680 72 OFFCURVE",
"581 72 CURVE SMOOTH",
"482 72 OFFCURVE",
"442 116 OFFCURVE",
"442 249 CURVE SMOOTH",
"442 714 LINE",
"352 714 LINE",
"352 348 LINE",
"328 355 OFFCURVE",
"303 359 OFFCURVE",
"277 359 CURVE SMOOTH",
"147 359 OFFCURVE",
"78 300 OFFCURVE",
"78 163 CURVE SMOOTH",
"78 0 LINE",
"168 0 LINE",
"168 146 LINE SMOOTH",
"168 237 OFFCURVE",
"199 275 OFFCURVE",
"288 275 CURVE SMOOTH",
"312 275 OFFCURVE",
"334 272 OFFCURVE",
"352 267 CURVE",
"352 252 LINE SMOOTH",
"352 116 OFFCURVE",
"389 40 OFFCURVE",
"471 6 CURVE",
"471 -159 LINE",
"551 -159 LINE",
"551 -11 LINE",
"562 -12 OFFCURVE",
"570 -12 OFFCURVE",
"580 -12 CURVE SMOOTH",
"591 -12 OFFCURVE",
"602 -11 OFFCURVE",
"613 -10 CURVE",
"613 -159 LINE"
);
}
);
width = 878;
}
);
category = Letter;
},
{
glyphname = brm_HU;
lastChange = "2019-09-20 20:39:33 +0000";
layers = (
{
layerId = UUID0;
paths = (
{
closed = 1;
nodes = (
"354 -159 LINE",
"354 -9 LINE",
"461 2 OFFCURVE",
"514 58 OFFCURVE",
"527 175 CURVE",
"684 175 LINE",
"684 255 LINE",
"441 255 LINE",
"441 118 OFFCURVE",
"413 72 OFFCURVE",
"312 72 CURVE SMOOTH",
"212 72 OFFCURVE",
"187 111 OFFCURVE",
"187 249 CURVE SMOOTH",
"187 714 LINE",
"98 714 LINE",
"98 252 LINE SMOOTH",
"98 77 OFFCURVE",
"144 2 OFFCURVE",
"274 -10 CURVE",
"274 -159 LINE"
);
}
);
width = 732;
}
);
category = Letter;
},
{
glyphname = brm_HUU;
lastChange = "2019-09-20 20:39:33 +0000";
layers = (
{
layerId = UUID0;
paths = (
{
closed = 1;
nodes = (
"425 -159 LINE",
"425 8 LINE",
"484 34 OFFCURVE",
"518 87 OFFCURVE",
"527 175 CURVE",
"684 175 LINE",
"684 255 LINE",
"441 255 LINE",
"441 118 OFFCURVE",
"413 72 OFFCURVE",
"312 72 CURVE SMOOTH",
"212 72 OFFCURVE",
"187 111 OFFCURVE",
"187 249 CURVE SMOOTH",
"187 714 LINE",
"98 714 LINE",
"98 252 LINE SMOOTH",
"98 106 OFFCURVE",
"129 38 OFFCURVE",
"204 6 CURVE",
"204 -159 LINE",
"284 -159 LINE",
"284 -11 LINE",
"296 -12 OFFCURVE",
"301 -12 OFFCURVE",
"311 -12 CURVE SMOOTH",
"323 -12 OFFCURVE",
"334 -11 OFFCURVE",
"345 -10 CURVE",
"345 -159 LINE"
);
}
);
width = 732;
}
);
category = Letter;
},
{
glyphname = brm_LLU;
lastChange = "2019-09-20 20:39:33 +0000";
layers = (
{
layerId = UUID0;
paths = (
{
closed = 1;
nodes = (
"458 -159 LINE",
"458 -10 LINE",
"586 2 OFFCURVE",
"635 76 OFFCURVE",
"635 252 CURVE SMOOTH",
"635 266 LINE",
"653 272 OFFCURVE",
"675 275 OFFCURVE",
"701 275 CURVE SMOOTH",
"788 275 OFFCURVE",
"821 236 OFFCURVE",
"821 146 CURVE SMOOTH",
"821 0 LINE",
"911 0 LINE",
"911 163 LINE SMOOTH",
"911 300 OFFCURVE",
"842 359 OFFCURVE",
"711 359 CURVE SMOOTH",
"685 359 OFFCURVE",
"659 355 OFFCURVE",
"635 347 CURVE",
"635 714 LINE",
"545 714 LINE",
"545 249 LINE SMOOTH",
"545 113 OFFCURVE",
"521 72 OFFCURVE",
"421 72 CURVE SMOOTH",
"320 72 OFFCURVE",
"291 119 OFFCURVE",
"291 255 CURVE",
"49 255 LINE",
"49 175 LINE",
"205 175 LINE",
"218 57 OFFCURVE",
"271 3 OFFCURVE",
"377 -9 CURVE",
"377 -159 LINE"
);
}
);
width = 989;
}
);
category = Letter;
},
{
glyphname = brm_LLUU;
lastChange = "2019-09-20 20:39:33 +0000";
layers = (
{
layerId = UUID0;
paths = (
{
closed = 1;
nodes = (
"528 -159 LINE",
"528 7 LINE",
"603 39 OFFCURVE",
"635 105 OFFCURVE",
"635 252 CURVE SMOOTH",
"635 266 LINE",
"653 272 OFFCURVE",
"675 275 OFFCURVE",
"701 275 CURVE SMOOTH",
"788 275 OFFCURVE",
"821 236 OFFCURVE",
"821 146 CURVE SMOOTH",
"821 0 LINE",
"911 0 LINE",
"911 163 LINE SMOOTH",
"911 300 OFFCURVE",
"842 359 OFFCURVE",
"711 359 CURVE SMOOTH",
"685 359 OFFCURVE",
"659 355 OFFCURVE",
"635 347 CURVE",
"635 714 LINE",
"545 714 LINE",
"545 249 LINE SMOOTH",
"545 113 OFFCURVE",
"521 72 OFFCURVE",
"421 72 CURVE SMOOTH",
"320 72 OFFCURVE",
"291 119 OFFCURVE",
"291 255 CURVE",
"49 255 LINE",
"49 175 LINE",
"205 175 LINE",
"215 87 OFFCURVE",
"249 34 OFFCURVE",
"307 8 CURVE",
"307 -159 LINE",
"387 -159 LINE",
"387 -10 LINE",
"397 -11 OFFCURVE",
"409 -12 OFFCURVE",
"421 -12 CURVE SMOOTH",
"431 -12 OFFCURVE",
"439 -12 OFFCURVE",
"448 -11 CURVE",
"448 -159 LINE"
);
}
);
width = 989;
}
);
category = Letter;
},
{
glyphname = brm_LLLO;
lastChange = "2019-09-20 20:39:33 +0000";
layers = (
{
layerId = UUID0;
paths = (
{
closed = 1;
nodes = (
"49 487 LINE",
"238 487 LINE",
"251 409 OFFCURVE",
"319 349 OFFCURVE",
"395 333 CURVE",
"395 259 LINE",
"176 259 LINE",
"176 0 LINE",
"266 0 LINE",
"266 179 LINE",
"485 179 LINE",
"485 333 LINE",
"563 349 OFFCURVE",
"626 410 OFFCURVE",
"642 487 CURVE",
"831 487 LINE",
"831 567 LINE",
"641 567 LINE",
"623 654 OFFCURVE",
"540 724 OFFCURVE",
"440 724 CURVE SMOOTH",
"343 724 OFFCURVE",
"257 657 OFFCURVE",
"239 567 CURVE",
"49 567 LINE"
);
},
{
closed = 1;
nodes = (
"320 579 OFFCURVE",
"351 624 OFFCURVE",
"398 640 CURVE",
"398 412 LINE",
"349 429 OFFCURVE",
"320 473 OFFCURVE",
"320 525 CURVE SMOOTH"
);
},
{
closed = 1;
nodes = (
"560 473 OFFCURVE",
"531 429 OFFCURVE",
"482 412 CURVE",
"482 640 LINE",
"529 624 OFFCURVE",
"560 580 OFFCURVE",
"560 525 CURVE SMOOTH"
);
}
);
width = 880;
}
);
category = Letter;
},
{
glyphname = brm_LLLAU;
lastChange = "2019-09-20 20:39:33 +0000";
layers = (
{
layerId = UUID0;
paths = (
{
closed = 1;
nodes = (
"49 567 LINE",
"239 567 LINE",
"236 554 OFFCURVE",
"234 540 OFFCURVE",
"234 526 CURVE SMOOTH",
"234 511 OFFCURVE",
"235 498 OFFCURVE",
"238 487 CURVE",
"49 487 LINE",
"49 407 LINE",
"275 407 LINE",
"308 367 OFFCURVE",
"348 343 OFFCURVE",
"395 333 CURVE",
"395 259 LINE",
"176 259 LINE",
"176 0 LINE",
"266 0 LINE",
"266 179 LINE",
"485 179 LINE",
"485 333 LINE",
"563 349 OFFCURVE",
"626 410 OFFCURVE",
"642 487 CURVE",
"831 487 LINE",
"831 567 LINE",
"641 567 LINE",
"623 654 OFFCURVE",
"540 724 OFFCURVE",
"440 724 CURVE SMOOTH",
"379 724 OFFCURVE",
"314 694 OFFCURVE",
"277 647 CURVE",
"49 647 LINE"
);
},
{
closed = 1;
nodes = (
"320 579 OFFCURVE",
"351 624 OFFCURVE",
"398 640 CURVE",
"398 412 LINE",
"349 429 OFFCURVE",
"320 473 OFFCURVE",
"320 525 CURVE SMOOTH"
);
},
{
closed = 1;
nodes = (
"560 473 OFFCURVE",
"531 429 OFFCURVE",
"482 412 CURVE",
"482 640 LINE",
"529 624 OFFCURVE",
"560 580 OFFCURVE",
"560 525 CURVE SMOOTH"
);
}
);
width = 880;
}
);
category = Letter;
},
{
glyphname = brm_RRO;
lastChange = "2019-09-20 20:39:33 +0000";
layers = (
{
layerId = UUID0;
paths = (
{
closed = 1;
nodes = (
"49 498 LINE",
"205 498 LINE",
"218 413 OFFCURVE",
"282 360 OFFCURVE",
"387 359 CURVE",
"387 318 LINE",
"362 326 OFFCURVE",
"337 330 OFFCURVE",
"312 330 CURVE SMOOTH",
"173 330 OFFCURVE",
"112 268 OFFCURVE",
"112 139 CURVE SMOOTH",
"112 0 LINE",
"202 0 LINE",
"202 122 LINE SMOOTH",
"202 211 OFFCURVE",
"236 246 OFFCURVE",
"322 246 CURVE SMOOTH",
"347 246 OFFCURVE",
"368 243 OFFCURVE",
"387 237 CURVE",
"387 0 LINE",
"477 0 LINE",
"477 439 LINE",
"393 439 LINE SMOOTH",
"341 439 OFFCURVE",
"310 461 OFFCURVE",
"297 498 CURVE",
"477 498 LINE",
"477 578 LINE",
"297 578 LINE",
"309 615 OFFCURVE",
"338 634 OFFCURVE",
"393 634 CURVE SMOOTH",
"477 634 LINE",
"477 714 LINE",
"391 714 LINE SMOOTH",
"286 714 OFFCURVE",
"221 667 OFFCURVE",
"206 578 CURVE",
"49 578 LINE"
);
}
);
width = 574;
}
);
category = Letter;
},
{
glyphname = brm_RRAU;
lastChange = "2019-09-20 20:39:33 +0000";
layers = (
{
layerId = UUID0;
paths = (
{
closed = 1;
nodes = (
"49 417 LINE",
"240 417 LINE",
"272 381 OFFCURVE",
"320 360 OFFCURVE",
"387 359 CURVE",
"387 318 LINE",
"362 326 OFFCURVE",
"337 330 OFFCURVE",
"312 330 CURVE SMOOTH",
"173 330 OFFCURVE",
"112 268 OFFCURVE",
"112 139 CURVE SMOOTH",
"112 0 LINE",
"202 0 LINE",
"202 122 LINE SMOOTH",
"202 211 OFFCURVE",
"236 246 OFFCURVE",
"322 246 CURVE SMOOTH",
"347 246 OFFCURVE",
"368 243 OFFCURVE",
"387 237 CURVE",
"387 0 LINE",
"477 0 LINE",
"477 439 LINE",
"393 439 LINE SMOOTH",
"341 439 OFFCURVE",
"310 461 OFFCURVE",
"297 498 CURVE",
"477 498 LINE",
"477 578 LINE",
"297 578 LINE",
"309 615 OFFCURVE",
"338 634 OFFCURVE",
"393 634 CURVE SMOOTH",
"477 634 LINE",
"477 714 LINE",
"391 714 LINE SMOOTH",
"323 714 OFFCURVE",
"274 695 OFFCURVE",
"242 658 CURVE",
"49 658 LINE",
"49 578 LINE",
"206 578 LINE",
"203 563 OFFCURVE",
"202 550 OFFCURVE",
"202 535 CURVE SMOOTH",
"202 522 OFFCURVE",
"203 509 OFFCURVE",
"205 498 CURVE",
"49 498 LINE"
);
}
);
width = 574;
}
);
category = Letter;
},
{
glyphname = brm_NNNO;
lastChange = "2019-09-20 20:39:33 +0000";
layers = (
{
layerId = UUID0;
paths = (
{
closed = 1;
nodes = (
"49 482 LINE",
"234 482 LINE",
"234 79 LINE",
"119 79 LINE",
"119 0 LINE",
"619 0 LINE",
"619 79 LINE",
"324 79 LINE",
"324 497 LINE SMOOTH",
"324 604 OFFCURVE",
"351 642 OFFCURVE",
"429 642 CURVE SMOOTH",
"505 642 OFFCURVE",
"529 605 OFFCURVE",
"529 496 CURVE SMOOTH",
"529 482 LINE",
"795 482 LINE",
"795 562 LINE",
"615 562 LINE",
"599 677 OFFCURVE",
"539 726 OFFCURVE",
"423 726 CURVE SMOOTH",
"308 726 OFFCURVE",
"254 677 OFFCURVE",
"238 562 CURVE",
"49 562 LINE"
);
}
);
width = 844;
}
);
category = Letter;
},
{
glyphname = brm_NNNAU;
lastChange = "2019-09-20 20:39:33 +0000";
layers = (
{
layerId = UUID0;
paths = (
{
closed = 1;
nodes = (
"49 402 LINE",
"234 402 LINE",
"234 79 LINE",
"119 79 LINE",
"119 0 LINE",
"619 0 LINE",
"619 79 LINE",
"324 79 LINE",
"324 497 LINE SMOOTH",
"324 604 OFFCURVE",
"351 642 OFFCURVE",
"429 642 CURVE SMOOTH",
"505 642 OFFCURVE",
"529 605 OFFCURVE",
"529 496 CURVE SMOOTH",
"529 482 LINE",
"795 482 LINE",
"795 562 LINE",
"615 562 LINE",
"599 677 OFFCURVE",
"539 726 OFFCURVE",
"423 726 CURVE SMOOTH",
"341 726 OFFCURVE",
"287 698 OFFCURVE",
"260 642 CURVE",
"49 642 LINE",
"49 562 LINE",
"238 562 LINE",
"235 541 OFFCURVE",
"234 519 OFFCURVE",
"234 494 CURVE SMOOTH",
"234 482 LINE",
"49 482 LINE"
);
}
);
width = 844;
}
);
category = Letter;
},
{
glyphname = brm_NNNU;
lastChange = "2019-09-20 20:39:33 +0000";
layers = (
{
layerId = UUID0;
paths = (
{
closed = 1;
nodes = (
"549 -159 LINE",
"549 79 LINE",
"254 79 LINE",
"254 497 LINE SMOOTH",
"254 604 OFFCURVE",
"281 642 OFFCURVE",
"359 642 CURVE SMOOTH",
"434 642 OFFCURVE",
"459 605 OFFCURVE",
"459 496 CURVE SMOOTH",
"459 482 LINE",
"549 482 LINE",
"549 496 LINE SMOOTH",
"549 662 OFFCURVE",
"487 726 OFFCURVE",
"354 726 CURVE SMOOTH",
"220 726 OFFCURVE",
"165 660 OFFCURVE",
"165 494 CURVE SMOOTH",
"165 79 LINE",
"49 79 LINE",
"49 0 LINE",
"469 0 LINE",
"469 -159 LINE"
);
}
);
width = 627;
}
);
category = Letter;
},
{
glyphname = brm_NNNUU;
lastChange = "2019-09-20 20:39:33 +0000";
layers = (
{
layerId = UUID0;
paths = (
{
closed = 1;
nodes = (
"549 -159 LINE",
"549 79 LINE",
"254 79 LINE",
"254 497 LINE SMOOTH",
"254 604 OFFCURVE",
"281 642 OFFCURVE",
"359 642 CURVE SMOOTH",
"434 642 OFFCURVE",
"459 605 OFFCURVE",
"459 496 CURVE SMOOTH",
"459 482 LINE",
"549 482 LINE",
"549 496 LINE SMOOTH",
"549 662 OFFCURVE",
"487 726 OFFCURVE",
"354 726 CURVE SMOOTH",
"220 726 OFFCURVE",
"165 660 OFFCURVE",
"165 494 CURVE SMOOTH",
"165 79 LINE",
"49 79 LINE",
"49 0 LINE",
"327 0 LINE",
"327 -159 LINE",
"407 -159 LINE",
"407 0 LINE",
"469 0 LINE",
"469 -159 LINE"
);
}
);
width = 627;
}
);
category = Letter;
},
{
glyphname = candrabindu.alt;
lastChange = "2019-09-20 20:39:33 +0000";
layers = (
{
anchors = (
{
name = _Anchor31;
position = "{0, 478}";
}
);
layerId = UUID0;
paths = (
{
closed = 1;
nodes = (
"0 506 OFFCURVE",
"22 480 OFFCURVE",
"61 480 CURVE SMOOTH",
"101 480 OFFCURVE",
"124 507 OFFCURVE",
"124 548 CURVE SMOOTH",
"124 592 OFFCURVE",
"102 616 OFFCURVE",
"61 616 CURVE SMOOTH",
"21 616 OFFCURVE",
"0 591 OFFCURVE",
"0 548 CURVE SMOOTH"
);
}
);
width = 0;
}
);
category = Mark;
subCategory = Nonspacing;
},
{
glyphname = u1107F;
lastChange = "2019-09-20 20:39:33 +0000";
layers = (
{
layerId = UUID0;
paths = (
{
closed = 1;
nodes = (
"41 593 LINE",
"95 593 LINE",
"95 687 LINE",
"189 687 LINE",
"189 741 LINE",
"41 741 LINE"
);
},
{
closed = 1;
nodes = (
"248 687 LINE",
"380 687 LINE",
"380 741 LINE",
"248 741 LINE"
);
},
{
closed = 1;
nodes = (
"439 687 LINE",
"572 687 LINE",
"572 741 LINE",
"439 741 LINE"
);
},
{
closed = 1;
nodes = (
"630 687 LINE",
"763 687 LINE",
"763 741 LINE",
"630 741 LINE"
);
},
{
closed = 1;
nodes = (
"821 687 LINE",
"916 687 LINE",
"916 593 LINE",
"969 593 LINE",
"969 741 LINE",
"821 741 LINE"
);
},
{
closed = 1;
nodes = (
"95 402 LINE",
"95 534 LINE",
"41 534 LINE",
"41 402 LINE"
);
},
{
closed = 1;
nodes = (
"969 402 LINE",
"969 534 LINE",
"916 534 LINE",
"916 402 LINE"
);
},
{
closed = 1;
nodes = (
"163 450 LINE",
"163 164 LINE",
"264 164 LINE SMOOTH",
"325 164 OFFCURVE",
"363 195 OFFCURVE",
"363 247 CURVE SMOOTH",
"363 292 OFFCURVE",
"340 307 OFFCURVE",
"311 313 CURVE",
"311 317 LINE",
"339 322 OFFCURVE",
"355 345 OFFCURVE",
"355 377 CURVE SMOOTH",
"355 431 OFFCURVE",
"318 450 OFFCURVE",
"247 450 CURVE SMOOTH"
);
},
{
closed = 1;
nodes = (
"785 161 OFFCURVE",
"825 190 OFFCURVE",
"825 256 CURVE SMOOTH",
"825 450 LINE",
"764 450 LINE",
"764 254 LINE SMOOTH",
"764 221 OFFCURVE",
"746 212 OFFCURVE",
"722 212 CURVE SMOOTH",
"709 212 OFFCURVE",
"699 214 OFFCURVE",
"689 216 CURVE",
"689 166 LINE",
"698 163 OFFCURVE",
"711 161 OFFCURVE",
"728 161 CURVE SMOOTH"
);
},
{
closed = 1;
nodes = (
"223 337 LINE",
"223 400 LINE",
"252 400 LINE SMOOTH",
"282 400 OFFCURVE",
"295 391 OFFCURVE",
"295 369 CURVE SMOOTH",
"295 348 OFFCURVE",
"285 337 OFFCURVE",
"255 337 CURVE SMOOTH"
);
},
{
closed = 1;
nodes = (
"95 210 LINE",
"95 343 LINE",
"41 343 LINE",
"41 210 LINE"
);
},
{
closed = 1;
nodes = (
"969 210 LINE",
"969 343 LINE",
"916 343 LINE",
"916 210 LINE"
);
},
{
closed = 1;
nodes = (
"223 289 LINE",
"257 289 LINE SMOOTH",
"291 289 OFFCURVE",
"301 274 OFFCURVE",
"301 253 CURVE SMOOTH",
"301 229 OFFCURVE",
"291 214 OFFCURVE",
"259 214 CURVE SMOOTH",
"223 214 LINE"
);
},
{
closed = 1;
nodes = (
"95 19 LINE",
"95 151 LINE",
"41 151 LINE",
"41 19 LINE"
);
},
{
closed = 1;
nodes = (
"969 19 LINE",
"969 151 LINE",
"916 151 LINE",
"916 19 LINE"
);
},
{
closed = 1;
nodes = (
"41 -187 LINE",
"189 -187 LINE",
"189 -134 LINE",
"95 -134 LINE",
"95 -39 LINE",
"41 -39 LINE"
);
},
{
closed = 1;
nodes = (
"821 -187 LINE",
"969 -187 LINE",
"969 -39 LINE",
"916 -39 LINE",
"916 -134 LINE",
"821 -134 LINE"
);
},
{
closed = 1;
nodes = (
"248 -187 LINE",
"380 -187 LINE",
"380 -134 LINE",
"248 -134 LINE"
);
},
{
closed = 1;
nodes = (
"439 -187 LINE",
"572 -187 LINE",
"572 -134 LINE",
"439 -134 LINE"
);
},
{
closed = 1;
nodes = (
"630 -187 LINE",
"763 -187 LINE",
"763 -134 LINE",
"630 -134 LINE"
);
},
{
closed = 1;
nodes = (
"659 450 LINE",
"597 450 LINE",
"597 320 LINE SMOOTH",
"597 299 OFFCURVE",
"600 261 OFFCURVE",
"601 249 CURVE",
"467 450 LINE",
"395 450 LINE",
"395 164 LINE",
"456 164 LINE",
"456 294 LINE SMOOTH",
"456 318 OFFCURVE",
"454 350 OFFCURVE",
"453 366 CURVE",
"587 164 LINE",
"659 164 LINE"
);
}
);
width = 1000;
}
);
unicode = 1107F;
category = Letter;
},
{
glyphname = brm_SVA;
lastChange = "2019-09-20 20:39:33 +0000";
layers = (
{
anchors = (
{
name = Anchor13;
position = "{380, 717}";
},
{
name = Anchor14;
position = "{380, 717}";
},
{
name = Anchor15;
position = "{397, 717}";
},
{
name = Anchor16;
position = "{390, 786}";
},
{
name = Anchor17;
position = "{400, 717}";
},
{
name = Anchor18;
position = "{400, 754}";
},
{
name = Anchor19;
position = "{400, 593}";
},
{
name = Anchor21;
position = "{585, -293}";
},
{
name = Anchor23;
position = "{585, -229}";
},
{
name = Anchor26;
position = "{470, -293}";
}
);
layerId = UUID0;
paths = (
{
closed = 1;
nodes = (
"423 -231 OFFCURVE",
"493 -303 OFFCURVE",
"585 -303 CURVE SMOOTH",
"677 -303 OFFCURVE",
"747 -231 OFFCURVE",
"747 -144 CURVE SMOOTH",
"747 -83 OFFCURVE",
"710 -30 OFFCURVE",
"659 -3 CURVE",
"774 23 OFFCURVE",
"814 114 OFFCURVE",
"814 249 CURVE SMOOTH",
"814 252 LINE",
"725 252 LINE",
"725 250 LINE SMOOTH",
"725 135 OFFCURVE",
"689 72 OFFCURVE",
"581 72 CURVE SMOOTH",
"474 72 OFFCURVE",
"442 127 OFFCURVE",
"442 249 CURVE SMOOTH",
"442 714 LINE",
"352 714 LINE",
"352 348 LINE",
"328 355 OFFCURVE",
"303 359 OFFCURVE",
"277 359 CURVE SMOOTH",
"147 359 OFFCURVE",
"78 300 OFFCURVE",
"78 163 CURVE SMOOTH",
"78 0 LINE",
"168 0 LINE",
"168 144 LINE SMOOTH",
"168 236 OFFCURVE",
"199 275 OFFCURVE",
"287 275 CURVE SMOOTH",
"311 275 OFFCURVE",
"334 272 OFFCURVE",
"352 267 CURVE",
"352 252 LINE SMOOTH",
"352 117 OFFCURVE",
"389 21 OFFCURVE",
"507 -4 CURVE",
"456 -31 OFFCURVE",
"423 -83 OFFCURVE",
"423 -144 CURVE SMOOTH"
);
},
{
closed = 1;
nodes = (
"506 -101 OFFCURVE",
"542 -65 OFFCURVE",
"585 -65 CURVE SMOOTH",
"629 -65 OFFCURVE",
"665 -101 OFFCURVE",
"665 -144 CURVE SMOOTH",
"665 -188 OFFCURVE",
"629 -223 OFFCURVE",
"585 -223 CURVE SMOOTH",
"542 -223 OFFCURVE",
"506 -188 OFFCURVE",
"506 -144 CURVE SMOOTH"
);
}
);
width = 878;
}
);
category = Letter;
},
{
glyphname = brm_KSSA;
lastChange = "2019-09-20 20:39:33 +0000";
layers = (
{
anchors = (
{
name = Anchor13;
position = "{375, 717}";
},
{
name = Anchor14;
position = "{375, 717}";
},
{
name = Anchor15;
position = "{375, 717}";
},
{
name = Anchor16;
position = "{375, 786}";
},
{
name = Anchor17;
position = "{375, 717}";
},
{
name = Anchor18;
position = "{375, 754}";
},
{
name = Anchor19;
position = "{375, 593}";
},
{
name = Anchor21;
position = "{534, -293}";
},
{
name = Anchor23;
position = "{520, -217}";
},
{
name = Anchor26;
position = "{410, -293}";
}
);
layerId = UUID0;
paths = (
{
closed = 1;
nodes = (
"627 -40 LINE",
"627 -77 LINE SMOOTH",
"627 -167 OFFCURVE",
"597 -209 OFFCURVE",
"522 -209 CURVE SMOOTH",
"453 -209 OFFCURVE",
"422 -172 OFFCURVE",
"422 -77 CURVE SMOOTH",
"422 72 LINE",
"644 144 LINE",
"623 221 LINE",
"422 155 LINE",
"422 333 LINE",
"676 333 LINE",
"676 412 LINE",
"422 412 LINE",
"422 714 LINE",
"332 714 LINE",
"332 412 LINE",
"78 412 LINE",
"78 333 LINE",
"332 333 LINE",
"332 -77 LINE SMOOTH",
"332 -216 OFFCURVE",
"388 -293 OFFCURVE",
"522 -293 CURVE SMOOTH",
"660 -293 OFFCURVE",
"717 -216 OFFCURVE",
"717 -77 CURVE SMOOTH",
"717 -40 LINE"
);
}
);
width = 795;
}
);
category = Letter;
},
{
glyphname = brm_JNYA;
lastChange = "2019-09-20 20:39:33 +0000";
layers = (
{
anchors = (
{
name = Anchor13;
position = "{341, 717}";
},
{
name = Anchor14;
position = "{341, 717}";
},
{
name = Anchor15;
position = "{366, 717}";
},
{
name = Anchor16;
position = "{273, 786}";
},
{
name = Anchor17;
position = "{273, 717}";
},
{
name = Anchor18;
position = "{273, 754}";
},
{
name = Anchor19;
position = "{168, 549}";
},
{
name = Anchor21;
position = "{402, -293}";
},
{
name = Anchor23;
position = "{237, -293}";
},
{
name = Anchor26;
position = "{320, -293}";
}
);
layerId = UUID0;
paths = (
{
closed = 1;
nodes = (
"411 192 LINE",
"317 192 LINE SMOOTH",
"228 192 OFFCURVE",
"173 212 OFFCURVE",
"173 271 CURVE SMOOTH",
"173 353 OFFCURVE",
"235 374 OFFCURVE",
"358 374 CURVE SMOOTH",
"393 374 LINE",
"393 454 LINE",
"358 454 LINE SMOOTH",
"231 454 OFFCURVE",
"173 477 OFFCURVE",
"173 555 CURVE SMOOTH",
"173 613 OFFCURVE",
"232 629 OFFCURVE",
"322 629 CURVE SMOOTH",
"411 629 LINE",
"411 709 LINE",
"330 709 LINE SMOOTH",
"179 709 OFFCURVE",
"78 662 OFFCURVE",
"78 556 CURVE SMOOTH",
"78 480 OFFCURVE",
"115 447 OFFCURVE",
"179 414 CURVE",
"116 380 OFFCURVE",
"78 349 OFFCURVE",
"78 271 CURVE SMOOTH",
"78 182 OFFCURVE",
"137 134 OFFCURVE",
"237 118 CURVE",
"237 -293 LINE",
"327 -293 LINE",
"327 -76 LINE",
"346 -69 OFFCURVE",
"367 -66 OFFCURVE",
"391 -66 CURVE SMOOTH",
"449 -66 OFFCURVE",
"462 -93 OFFCURVE",
"462 -162 CURVE SMOOTH",
"462 -220 LINE",
"552 -220 LINE",
"552 -162 LINE SMOOTH",
"552 -47 OFFCURVE",
"507 17 OFFCURVE",
"402 17 CURVE SMOOTH",
"376 17 OFFCURVE",
"351 13 OFFCURVE",
"327 6 CURVE",
"327 112 LINE",
"411 112 LINE"
);
}
);
width = 616;
}
);
category = Letter;
},
{
glyphname = brm_num100.2;
lastChange = "2019-09-20 20:39:33 +0000";
layers = (
{
layerId = UUID0;
paths = (
{
closed = 1;
nodes = (
"92 557 LINE",
"118 588 OFFCURVE",
"148 604 OFFCURVE",
"184 604 CURVE SMOOTH",
"223 604 OFFCURVE",
"253 585 OFFCURVE",
"253 560 CURVE SMOOTH",
"253 537 OFFCURVE",
"248 509 OFFCURVE",
"247 493 CURVE",
"337 502 LINE",
"339 585 OFFCURVE",
"391 646 OFFCURVE",
"472 646 CURVE SMOOTH",
"539 646 OFFCURVE",
"585 597 OFFCURVE",
"585 525 CURVE SMOOTH",
"585 433 OFFCURVE",
"528 334 OFFCURVE",
"384 156 CURVE SMOOTH",
"258 0 LINE",
"365 0 LINE",
"518 189 OFFCURVE",
"552 232 OFFCURVE",
"597 301 CURVE",
"988 301 LINE",
"988 381 LINE",
"640 381 LINE",
"663 431 OFFCURVE",
"676 479 OFFCURVE",
"676 528 CURVE SMOOTH",
"676 646 OFFCURVE",
"597 726 OFFCURVE",
"472 726 CURVE SMOOTH",
"402 726 OFFCURVE",
"341 696 OFFCURVE",
"304 649 CURVE",
"279 672 OFFCURVE",
"241 684 OFFCURVE",
"189 684 CURVE SMOOTH",
"127 684 OFFCURVE",
"70 653 OFFCURVE",
"29 607 CURVE"
);
}
);
width = 1086;
}
);
category = Letter;
},
{
glyphname = brm_num100.3;
lastChange = "2019-09-20 20:39:33 +0000";
layers = (
{
layerId = UUID0;
paths = (
{
closed = 1;
nodes = (
"988 283 LINE",
"585 283 LINE",
"610 318 OFFCURVE",
"632 362 OFFCURVE",
"647 398 CURVE",
"988 398 LINE",
"988 478 LINE",
"671 478 LINE",
"674 495 OFFCURVE",
"676 511 OFFCURVE",
"676 528 CURVE SMOOTH",
"676 646 OFFCURVE",
"597 726 OFFCURVE",
"472 726 CURVE SMOOTH",
"402 726 OFFCURVE",
"341 696 OFFCURVE",
"304 649 CURVE",
"279 672 OFFCURVE",
"241 684 OFFCURVE",
"189 684 CURVE SMOOTH",
"127 684 OFFCURVE",
"70 653 OFFCURVE",
"29 607 CURVE",
"92 557 LINE",
"118 588 OFFCURVE",
"148 604 OFFCURVE",
"184 604 CURVE SMOOTH",
"223 604 OFFCURVE",
"253 585 OFFCURVE",
"253 560 CURVE SMOOTH",
"253 537 OFFCURVE",
"248 511 OFFCURVE",
"247 493 CURVE",
"337 502 LINE",
"339 585 OFFCURVE",
"391 646 OFFCURVE",
"472 646 CURVE SMOOTH",
"539 646 OFFCURVE",
"585 597 OFFCURVE",
"585 525 CURVE SMOOTH",
"585 433 OFFCURVE",
"528 334 OFFCURVE",
"384 156 CURVE SMOOTH",
"258 0 LINE",
"365 0 LINE",
"471 131 LINE SMOOTH",
"492 157 OFFCURVE",
"510 180 OFFCURVE",
"527 203 CURVE",
"988 203 LINE"
);
}
);
width = 1086;
}
);
category = Letter;
},
{
glyphname = brm_num100.4;
lastChange = "2019-09-20 20:39:33 +0000";
layers = (
{
layerId = UUID0;
paths = (
{
closed = 1;
nodes = (
"365 0 LINE",
"471 131 LINE SMOOTH",
"577 261 OFFCURVE",
"676 399 OFFCURVE",
"676 528 CURVE SMOOTH",
"676 646 OFFCURVE",
"598 726 OFFCURVE",
"472 726 CURVE SMOOTH",
"401 726 OFFCURVE",
"341 697 OFFCURVE",
"304 649 CURVE",
"279 672 OFFCURVE",
"241 684 OFFCURVE",
"189 684 CURVE SMOOTH",
"128 684 OFFCURVE",
"70 654 OFFCURVE",
"29 607 CURVE",
"92 557 LINE",
"117 588 OFFCURVE",
"148 604 OFFCURVE",
"184 604 CURVE SMOOTH",
"223 604 OFFCURVE",
"253 585 OFFCURVE",
"253 560 CURVE SMOOTH",
"253 543 OFFCURVE",
"249 509 OFFCURVE",
"247 493 CURVE",
"337 502 LINE",
"340 586 OFFCURVE",
"391 646 OFFCURVE",
"472 646 CURVE SMOOTH",
"539 646 OFFCURVE",
"585 597 OFFCURVE",
"585 525 CURVE SMOOTH",
"585 412 OFFCURVE",
"492 290 OFFCURVE",
"384 156 CURVE SMOOTH",
"258 0 LINE"
);
},
{
closed = 1;
nodes = (
"890 36 LINE",
"890 301 LINE",
"1144 301 LINE",
"1144 381 LINE",
"890 381 LINE",
"890 634 LINE",
"801 634 LINE",
"801 381 LINE",
"547 381 LINE",
"547 301 LINE",
"801 301 LINE",
"801 36 LINE"
);
}
);
width = 1242;
}
);
category = Letter;
},
{
glyphname = brm_num100.5;
lastChange = "2019-09-20 20:39:33 +0000";
layers = (
{
layerId = UUID0;
paths = (
{
closed = 1;
nodes = (
"365 0 LINE",
"471 131 LINE SMOOTH",
"577 261 OFFCURVE",
"676 399 OFFCURVE",
"676 528 CURVE SMOOTH",
"676 646 OFFCURVE",
"598 726 OFFCURVE",
"472 726 CURVE SMOOTH",
"401 726 OFFCURVE",
"341 697 OFFCURVE",
"304 649 CURVE",
"279 672 OFFCURVE",
"241 684 OFFCURVE",
"189 684 CURVE SMOOTH",
"128 684 OFFCURVE",
"70 654 OFFCURVE",
"29 607 CURVE",
"92 557 LINE",
"117 588 OFFCURVE",
"148 604 OFFCURVE",
"184 604 CURVE SMOOTH",
"223 604 OFFCURVE",
"253 585 OFFCURVE",
"253 560 CURVE SMOOTH",
"253 543 OFFCURVE",
"249 509 OFFCURVE",
"247 493 CURVE",
"337 502 LINE",
"340 586 OFFCURVE",
"391 646 OFFCURVE",
"472 646 CURVE SMOOTH",
"539 646 OFFCURVE",
"585 597 OFFCURVE",
"585 525 CURVE SMOOTH",
"585 412 OFFCURVE",
"492 290 OFFCURVE",
"384 156 CURVE SMOOTH",
"258 0 LINE"
);
},
{
closed = 1;
nodes = (
"719 0 LINE",
"719 413 LINE",
"738 419 OFFCURVE",
"760 422 OFFCURVE",
"784 422 CURVE SMOOTH",
"871 422 OFFCURVE",
"904 383 OFFCURVE",
"904 292 CURVE SMOOTH",
"904 170 LINE",
"994 170 LINE",
"994 310 LINE SMOOTH",
"994 446 OFFCURVE",
"924 505 OFFCURVE",
"795 505 CURVE SMOOTH",
"769 505 OFFCURVE",
"744 501 OFFCURVE",
"719 494 CURVE",
"719 714 LINE",
"629 714 LINE",
"629 0 LINE"
);
}
);
width = 1092;
}
);
category = Letter;
},
{
glyphname = brm_num100.6;
lastChange = "2019-09-20 20:39:33 +0000";
layers = (
{
layerId = UUID0;
paths = (
{
closed = 1;
nodes = (
"365 0 LINE",
"471 131 LINE SMOOTH",
"577 261 OFFCURVE",
"676 399 OFFCURVE",
"676 528 CURVE SMOOTH",
"676 646 OFFCURVE",
"598 726 OFFCURVE",
"472 726 CURVE SMOOTH",
"401 726 OFFCURVE",
"341 697 OFFCURVE",
"304 649 CURVE",
"279 672 OFFCURVE",
"241 684 OFFCURVE",
"189 684 CURVE SMOOTH",
"128 684 OFFCURVE",
"70 654 OFFCURVE",
"29 607 CURVE",
"92 557 LINE",
"117 588 OFFCURVE",
"148 604 OFFCURVE",
"184 604 CURVE SMOOTH",
"223 604 OFFCURVE",
"253 585 OFFCURVE",
"253 560 CURVE SMOOTH",
"253 543 OFFCURVE",
"249 509 OFFCURVE",
"247 493 CURVE",
"337 502 LINE",
"340 586 OFFCURVE",
"391 646 OFFCURVE",
"472 646 CURVE SMOOTH",
"539 646 OFFCURVE",
"585 597 OFFCURVE",
"585 525 CURVE SMOOTH",
"585 412 OFFCURVE",
"492 290 OFFCURVE",
"384 156 CURVE SMOOTH",
"258 0 LINE"
);
},
{
closed = 1;
nodes = (
"980 -10 OFFCURVE",
"1016 -8 OFFCURVE",
"1053 -4 CURVE",
"1053 77 LINE",
"1018 72 OFFCURVE",
"984 70 OFFCURVE",
"951 70 CURVE SMOOTH",
"784 70 OFFCURVE",
"715 121 OFFCURVE",
"715 225 CURVE SMOOTH",
"715 289 OFFCURVE",
"770 334 OFFCURVE",
"832 334 CURVE SMOOTH",
"841 334 OFFCURVE",
"851 333 OFFCURVE",
"863 331 CURVE SMOOTH",
"911 321 LINE",
"911 401 LINE",
"863 411 LINE SMOOTH",
"790 426 OFFCURVE",
"733 477 OFFCURVE",
"733 550 CURVE SMOOTH",
"733 606 OFFCURVE",
"775 643 OFFCURVE",
"834 643 CURVE SMOOTH",
"890 643 OFFCURVE",
"930 626 OFFCURVE",
"973 589 CURVE",
"1047 632 LINE",
"981 696 OFFCURVE",
"931 723 OFFCURVE",
"834 723 CURVE SMOOTH",
"718 723 OFFCURVE",
"642 635 OFFCURVE",
"642 549 CURVE SMOOTH",
"642 472 OFFCURVE",
"664 425 OFFCURVE",
"735 373 CURVE",
"666 342 OFFCURVE",
"625 285 OFFCURVE",
"625 217 CURVE SMOOTH",
"625 65 OFFCURVE",
"727 -10 OFFCURVE",
"946 -10 CURVE SMOOTH"
);
}
);
width = 1141;
}
);
category = Letter;
},
{
glyphname = brm_num100.7;
lastChange = "2019-09-20 20:39:33 +0000";
layers = (
{
layerId = UUID0;
paths = (
{
closed = 1;
nodes = (
"365 0 LINE",
"471 131 LINE SMOOTH",
"577 261 OFFCURVE",
"676 399 OFFCURVE",
"676 528 CURVE SMOOTH",
"676 646 OFFCURVE",
"598 726 OFFCURVE",
"472 726 CURVE SMOOTH",
"401 726 OFFCURVE",
"341 697 OFFCURVE",
"304 649 CURVE",
"279 672 OFFCURVE",
"241 684 OFFCURVE",
"189 684 CURVE SMOOTH",
"128 684 OFFCURVE",
"70 654 OFFCURVE",
"29 607 CURVE",
"92 557 LINE",
"117 588 OFFCURVE",
"148 604 OFFCURVE",
"184 604 CURVE SMOOTH",
"223 604 OFFCURVE",
"253 585 OFFCURVE",
"253 560 CURVE SMOOTH",
"253 543 OFFCURVE",
"249 509 OFFCURVE",
"247 493 CURVE",
"337 502 LINE",
"340 586 OFFCURVE",
"391 646 OFFCURVE",
"472 646 CURVE SMOOTH",
"539 646 OFFCURVE",
"585 597 OFFCURVE",
"585 525 CURVE SMOOTH",
"585 412 OFFCURVE",
"492 290 OFFCURVE",
"384 156 CURVE SMOOTH",
"258 0 LINE"
);
},
{
closed = 1;
nodes = (
"739 0 LINE",
"845 131 LINE SMOOTH",
"946 255 OFFCURVE",
"1050 398 OFFCURVE",
"1050 528 CURVE SMOOTH",
"1050 649 OFFCURVE",
"969 726 OFFCURVE",
"846 726 CURVE SMOOTH",
"717 726 OFFCURVE",
"630 649 OFFCURVE",
"630 528 CURVE SMOOTH",
"630 504 OFFCURVE",
"633 482 OFFCURVE",
"639 461 CURVE",
"728 473 LINE",
"723 492 OFFCURVE",
"721 511 OFFCURVE",
"721 531 CURVE SMOOTH",
"721 607 OFFCURVE",
"766 646 OFFCURVE",
"846 646 CURVE SMOOTH",
"913 646 OFFCURVE",
"959 597 OFFCURVE",
"959 525 CURVE SMOOTH",
"959 414 OFFCURVE",
"863 284 OFFCURVE",
"758 155 CURVE SMOOTH",
"632 0 LINE"
);
}
);
width = 1138;
}
);
category = Letter;
},
{
glyphname = brm_num100.8;
lastChange = "2019-09-20 20:39:33 +0000";
layers = (
{
layerId = UUID0;
paths = (
{
closed = 1;
nodes = (
"365 0 LINE",
"471 131 LINE SMOOTH",
"577 261 OFFCURVE",
"676 399 OFFCURVE",
"676 528 CURVE SMOOTH",
"676 646 OFFCURVE",
"598 726 OFFCURVE",
"472 726 CURVE SMOOTH",
"401 726 OFFCURVE",
"341 697 OFFCURVE",
"304 649 CURVE",
"279 672 OFFCURVE",
"241 684 OFFCURVE",
"189 684 CURVE SMOOTH",
"128 684 OFFCURVE",
"70 654 OFFCURVE",
"29 607 CURVE",
"92 557 LINE",
"117 588 OFFCURVE",
"148 604 OFFCURVE",
"184 604 CURVE SMOOTH",
"223 604 OFFCURVE",
"253 585 OFFCURVE",
"253 560 CURVE SMOOTH",
"253 543 OFFCURVE",
"249 509 OFFCURVE",
"247 493 CURVE",
"337 502 LINE",
"340 586 OFFCURVE",
"391 646 OFFCURVE",
"472 646 CURVE SMOOTH",
"539 646 OFFCURVE",
"585 597 OFFCURVE",
"585 525 CURVE SMOOTH",
"585 412 OFFCURVE",
"492 290 OFFCURVE",
"384 156 CURVE SMOOTH",
"258 0 LINE"
);
},
{
closed = 1;
nodes = (
"835 0 LINE",
"941 131 LINE SMOOTH",
"1008 213 OFFCURVE",
"1057 276 OFFCURVE",
"1057 348 CURVE SMOOTH",
"1057 417 OFFCURVE",
"1008 464 OFFCURVE",
"932 464 CURVE SMOOTH",
"835 464 LINE SMOOTH",
"750 464 OFFCURVE",
"720 499 OFFCURVE",
"720 592 CURVE SMOOTH",
"720 714 LINE",
"630 714 LINE",
"630 575 LINE SMOOTH",
"630 443 OFFCURVE",
"689 385 OFFCURVE",
"824 385 CURVE SMOOTH",
"916 385 LINE SMOOTH",
"945 385 OFFCURVE",
"966 367 OFFCURVE",
"966 339 CURVE SMOOTH",
"966 306 OFFCURVE",
"941 263 OFFCURVE",
"869 174 CURVE SMOOTH",
"728 0 LINE"
);
}
);
width = 1145;
}
);
category = Letter;
},
{
glyphname = brm_num100.9;
lastChange = "2019-09-20 20:39:33 +0000";
layers = (
{
layerId = UUID0;
paths = (
{
closed = 1;
nodes = (
"92 557 LINE",
"118 588 OFFCURVE",
"148 604 OFFCURVE",
"184 604 CURVE SMOOTH",
"223 604 OFFCURVE",
"253 585 OFFCURVE",
"253 560 CURVE SMOOTH",
"253 537 OFFCURVE",
"248 514 OFFCURVE",
"247 493 CURVE",
"337 502 LINE",
"339 585 OFFCURVE",
"391 646 OFFCURVE",
"472 646 CURVE SMOOTH",
"539 646 OFFCURVE",
"585 597 OFFCURVE",
"585 525 CURVE SMOOTH",
"585 433 OFFCURVE",
"528 334 OFFCURVE",
"384 156 CURVE SMOOTH",
"258 0 LINE",
"365 0 LINE",
"471 131 LINE SMOOTH",
"587 275 OFFCURVE",
"676 398 OFFCURVE",
"676 528 CURVE SMOOTH",
"676 568 OFFCURVE",
"667 604 OFFCURVE",
"649 634 CURVE",
"773 634 LINE SMOOTH",
"857 634 OFFCURVE",
"896 614 OFFCURVE",
"896 561 CURVE SMOOTH",
"896 502 OFFCURVE",
"869 474 OFFCURVE",
"793 433 CURVE SMOOTH",
"716 392 OFFCURVE",
"690 366 OFFCURVE",
"690 308 CURVE SMOOTH",
"690 0 LINE",
"780 0 LINE",
"780 276 LINE SMOOTH",
"780 318 OFFCURVE",
"800 348 OFFCURVE",
"845 371 CURVE SMOOTH",
"930 415 OFFCURVE",
"986 446 OFFCURVE",
"986 571 CURVE SMOOTH",
"986 666 OFFCURVE",
"916 714 OFFCURVE",
"784 714 CURVE SMOOTH",
"548 714 LINE",
"525 721 OFFCURVE",
"500 726 OFFCURVE",
"472 726 CURVE SMOOTH",
"402 726 OFFCURVE",
"341 696 OFFCURVE",
"304 649 CURVE",
"279 672 OFFCURVE",
"241 684 OFFCURVE",
"189 684 CURVE SMOOTH",
"127 684 OFFCURVE",
"70 653 OFFCURVE",
"29 607 CURVE"
);
}
);
width = 1074;
}
);
category = Letter;
},
{
glyphname = brm_num100.10;
lastChange = "2019-09-20 20:39:33 +0000";
layers = (
{
layerId = UUID0;
paths = (
{
closed = 1;
nodes = (
"365 0 LINE",
"471 131 LINE SMOOTH",
"577 261 OFFCURVE",
"676 399 OFFCURVE",
"676 528 CURVE SMOOTH",
"676 646 OFFCURVE",
"598 726 OFFCURVE",
"472 726 CURVE SMOOTH",
"401 726 OFFCURVE",
"341 697 OFFCURVE",
"304 649 CURVE",
"279 672 OFFCURVE",
"241 684 OFFCURVE",
"189 684 CURVE SMOOTH",
"128 684 OFFCURVE",
"70 654 OFFCURVE",
"29 607 CURVE",
"92 557 LINE",
"117 588 OFFCURVE",
"148 604 OFFCURVE",
"184 604 CURVE SMOOTH",
"223 604 OFFCURVE",
"253 585 OFFCURVE",
"253 560 CURVE SMOOTH",
"253 543 OFFCURVE",
"249 509 OFFCURVE",
"247 493 CURVE",
"337 502 LINE",
"340 586 OFFCURVE",
"391 646 OFFCURVE",
"472 646 CURVE SMOOTH",
"539 646 OFFCURVE",
"585 597 OFFCURVE",
"585 525 CURVE SMOOTH",
"585 412 OFFCURVE",
"492 290 OFFCURVE",
"384 156 CURVE SMOOTH",
"258 0 LINE"
);
},
{
closed = 1;
nodes = (
"996 -15 OFFCURVE",
"1101 32 OFFCURVE",
"1156 117 CURVE",
"1203 58 OFFCURVE",
"1280 24 OFFCURVE",
"1384 24 CURVE",
"1384 104 LINE",
"1269 104 OFFCURVE",
"1198 170 OFFCURVE",
"1198 266 CURVE SMOOTH",
"1198 370 OFFCURVE",
"1268 433 OFFCURVE",
"1384 433 CURVE",
"1384 512 LINE",
"1283 512 OFFCURVE",
"1204 477 OFFCURVE",
"1157 417 CURVE",
"1104 501 OFFCURVE",
"997 552 OFFCURVE",
"864 552 CURVE SMOOTH",
"658 552 OFFCURVE",
"527 441 OFFCURVE",
"527 269 CURVE SMOOTH",
"527 98 OFFCURVE",
"666 -15 OFFCURVE",
"860 -15 CURVE SMOOTH"
);
},
{
closed = 1;
nodes = (
"707 65 OFFCURVE",
"618 141 OFFCURVE",
"618 269 CURVE SMOOTH",
"618 400 OFFCURVE",
"708 472 OFFCURVE",
"861 472 CURVE SMOOTH",
"1016 472 OFFCURVE",
"1107 400 OFFCURVE",
"1107 269 CURVE SMOOTH",
"1107 140 OFFCURVE",
"1018 65 OFFCURVE",
"863 65 CURVE SMOOTH"
);
}
);
width = 1473;
}
);
category = Letter;
},
{
glyphname = brm_num100.20;
lastChange = "2019-09-20 20:39:33 +0000";
layers = (
{
layerId = UUID0;
paths = (
{
closed = 1;
nodes = (
"365 0 LINE",
"471 131 LINE SMOOTH",
"577 261 OFFCURVE",
"676 399 OFFCURVE",
"676 528 CURVE SMOOTH",
"676 646 OFFCURVE",
"598 726 OFFCURVE",
"472 726 CURVE SMOOTH",
"401 726 OFFCURVE",
"341 697 OFFCURVE",
"304 649 CURVE",
"279 672 OFFCURVE",
"241 684 OFFCURVE",
"189 684 CURVE SMOOTH",
"128 684 OFFCURVE",
"70 654 OFFCURVE",
"29 607 CURVE",
"92 557 LINE",
"117 588 OFFCURVE",
"148 604 OFFCURVE",
"184 604 CURVE SMOOTH",
"223 604 OFFCURVE",
"253 585 OFFCURVE",
"253 560 CURVE SMOOTH",
"253 543 OFFCURVE",
"249 509 OFFCURVE",
"247 493 CURVE",
"337 502 LINE",
"340 586 OFFCURVE",
"391 646 OFFCURVE",
"472 646 CURVE SMOOTH",
"539 646 OFFCURVE",
"585 597 OFFCURVE",
"585 525 CURVE SMOOTH",
"585 412 OFFCURVE",
"492 290 OFFCURVE",
"384 156 CURVE SMOOTH",
"258 0 LINE"
);
},
{
closed = 1;
nodes = (
"1107 -10 OFFCURVE",
"1227 126 OFFCURVE",
"1227 358 CURVE SMOOTH",
"1227 590 OFFCURVE",
"1108 725 OFFCURVE",
"903 725 CURVE SMOOTH",
"692 725 OFFCURVE",
"576 595 OFFCURVE",
"576 359 CURVE SMOOTH",
"576 122 OFFCURVE",
"693 -10 OFFCURVE",
"902 -10 CURVE SMOOTH"
);
},
{
closed = 1;
nodes = (
"757 68 OFFCURVE",
"675 160 OFFCURVE",
"667 333 CURVE",
"1135 333 LINE",
"1128 158 OFFCURVE",
"1049 68 OFFCURVE",
"902 68 CURVE SMOOTH"
);
},
{
closed = 1;
nodes = (
"684 565 OFFCURVE",
"764 646 OFFCURVE",
"903 646 CURVE SMOOTH",
"1042 646 OFFCURVE",
"1119 568 OFFCURVE",
"1134 412 CURVE",
"669 412 LINE"
);
}
);
width = 1315;
}
);
category = Letter;
},
{
glyphname = brm_num100.30;
lastChange = "2019-09-20 20:39:33 +0000";
layers = (
{
layerId = UUID0;
paths = (
{
closed = 1;
nodes = (
"92 557 LINE",
"118 588 OFFCURVE",
"148 604 OFFCURVE",
"184 604 CURVE SMOOTH",
"223 604 OFFCURVE",
"253 585 OFFCURVE",
"253 560 CURVE SMOOTH",
"253 537 OFFCURVE",
"248 514 OFFCURVE",
"247 493 CURVE",
"337 502 LINE",
"339 585 OFFCURVE",
"391 646 OFFCURVE",
"472 646 CURVE SMOOTH",
"539 646 OFFCURVE",
"585 597 OFFCURVE",
"585 525 CURVE SMOOTH",
"585 433 OFFCURVE",
"528 334 OFFCURVE",
"384 156 CURVE SMOOTH",
"258 0 LINE",
"365 0 LINE",
"471 131 LINE SMOOTH",
"587 275 OFFCURVE",
"676 398 OFFCURVE",
"676 528 CURVE SMOOTH",
"676 537 OFFCURVE",
"676 541 OFFCURVE",
"674 554 CURVE",
"847 554 LINE",
"926 521 OFFCURVE",
"985 435 OFFCURVE",
"985 368 CURVE SMOOTH",
"985 251 OFFCURVE",
"882 203 OFFCURVE",
"725 144 CURVE SMOOTH",
"548 77 OFFCURVE",
"464 17 OFFCURVE",
"464 -107 CURVE",
"555 -107 LINE",
"555 -55 OFFCURVE",
"585 -14 OFFCURVE",
"642 21 CURVE SMOOTH",
"671 39 OFFCURVE",
"728 65 OFFCURVE",
"815 99 CURVE SMOOTH",
"993 168 OFFCURVE",
"1076 234 OFFCURVE",
"1076 353 CURVE SMOOTH",
"1076 435 OFFCURVE",
"1043 501 OFFCURVE",
"977 554 CURVE",
"1237 554 LINE",
"1237 634 LINE",
"649 634 LINE",
"616 691 OFFCURVE",
"554 726 OFFCURVE",
"472 726 CURVE SMOOTH",
"402 726 OFFCURVE",
"341 696 OFFCURVE",
"304 649 CURVE",
"279 672 OFFCURVE",
"241 684 OFFCURVE",
"189 684 CURVE SMOOTH",
"127 684 OFFCURVE",
"70 653 OFFCURVE",
"29 607 CURVE"
);
}
);
width = 1349;
}
);
category = Letter;
},
{
glyphname = brm_num100.40;
lastChange = "2019-09-20 20:39:33 +0000";
layers = (
{
layerId = UUID0;
paths = (
{
closed = 1;
nodes = (
"92 557 LINE",
"118 588 OFFCURVE",
"148 604 OFFCURVE",
"184 604 CURVE SMOOTH",
"223 604 OFFCURVE",
"253 585 OFFCURVE",
"253 560 CURVE SMOOTH",
"253 537 OFFCURVE",
"248 514 OFFCURVE",
"247 493 CURVE",
"337 502 LINE",
"339 585 OFFCURVE",
"391 646 OFFCURVE",
"472 646 CURVE SMOOTH",
"539 646 OFFCURVE",
"585 597 OFFCURVE",
"585 525 CURVE SMOOTH",
"585 433 OFFCURVE",
"528 334 OFFCURVE",
"384 156 CURVE SMOOTH",
"258 0 LINE",
"365 0 LINE",
"471 131 LINE SMOOTH",
"565 247 OFFCURVE",
"639 347 OFFCURVE",
"667 458 CURVE",
"718 428 OFFCURVE",
"791 412 OFFCURVE",
"891 412 CURVE SMOOTH",
"905 412 OFFCURVE",
"917 412 OFFCURVE",
"937 413 CURVE",
"705 172 LINE",
"750 92 LINE",
"810 92 LINE SMOOTH",
"891 92 OFFCURVE",
"952 89 OFFCURVE",
"991 82 CURVE SMOOTH",
"1103 62 OFFCURVE",
"1152 8 OFFCURVE",
"1152 -107 CURVE",
"1243 -107 LINE",
"1243 -11 OFFCURVE",
"1214 60 OFFCURVE",
"1158 105 CURVE SMOOTH",
"1102 150 OFFCURVE",
"1019 172 OFFCURVE",
"871 172 CURVE SMOOTH",
"815 172 LINE",
"1254 634 LINE",
"1151 634 LINE",
"1037 515 LINE",
"1004 496 OFFCURVE",
"975 490 OFFCURVE",
"909 490 CURVE SMOOTH",
"786 490 OFFCURVE",
"713 512 OFFCURVE",
"674 556 CURVE",
"663 658 OFFCURVE",
"586 726 OFFCURVE",
"472 726 CURVE SMOOTH",
"402 726 OFFCURVE",
"341 696 OFFCURVE",
"304 649 CURVE",
"279 672 OFFCURVE",
"241 684 OFFCURVE",
"189 684 CURVE SMOOTH",
"127 684 OFFCURVE",
"70 653 OFFCURVE",
"29 607 CURVE"
);
}
);
width = 1303;
}
);
category = Letter;
},
{
glyphname = brm_num100.50;
lastChange = "2019-09-20 20:39:33 +0000";
layers = (
{
layerId = UUID0;
paths = (
{
closed = 1;
nodes = (
"365 0 LINE",
"471 131 LINE SMOOTH",
"577 261 OFFCURVE",
"676 399 OFFCURVE",
"676 528 CURVE SMOOTH",
"676 646 OFFCURVE",
"598 726 OFFCURVE",
"472 726 CURVE SMOOTH",
"401 726 OFFCURVE",
"341 697 OFFCURVE",
"304 649 CURVE",
"279 672 OFFCURVE",
"241 684 OFFCURVE",
"189 684 CURVE SMOOTH",
"128 684 OFFCURVE",
"70 654 OFFCURVE",
"29 607 CURVE",
"92 557 LINE",
"117 588 OFFCURVE",
"148 604 OFFCURVE",
"184 604 CURVE SMOOTH",
"223 604 OFFCURVE",
"253 585 OFFCURVE",
"253 560 CURVE SMOOTH",
"253 543 OFFCURVE",
"249 509 OFFCURVE",
"247 493 CURVE",
"337 502 LINE",
"340 586 OFFCURVE",
"391 646 OFFCURVE",
"472 646 CURVE SMOOTH",
"539 646 OFFCURVE",
"585 597 OFFCURVE",
"585 525 CURVE SMOOTH",
"585 412 OFFCURVE",
"492 290 OFFCURVE",
"384 156 CURVE SMOOTH",
"258 0 LINE"
);
},
{
closed = 1;
nodes = (
"891 -117 OFFCURVE",
"968 -25 OFFCURVE",
"1010 104 CURVE SMOOTH",
"1054 239 OFFCURVE",
"1062 404 OFFCURVE",
"1070 565 CURVE",
"1070 634 LINE",
"614 634 LINE",
"614 554 LINE",
"984 554 LINE",
"976 393 OFFCURVE",
"963 272 OFFCURVE",
"946 192 CURVE SMOOTH",
"916 54 OFFCURVE",
"869 -33 OFFCURVE",
"748 -33 CURVE SMOOTH",
"665 -33 OFFCURVE",
"623 4 OFFCURVE",
"623 77 CURVE SMOOTH",
"623 97 OFFCURVE",
"625 116 OFFCURVE",
"630 135 CURVE",
"541 147 LINE",
"535 126 OFFCURVE",
"532 104 OFFCURVE",
"532 80 CURVE SMOOTH",
"532 20 OFFCURVE",
"552 -28 OFFCURVE",
"591 -63 CURVE SMOOTH",
"631 -99 OFFCURVE",
"683 -117 OFFCURVE",
"748 -117 CURVE SMOOTH"
);
}
);
width = 1167;
}
);
category = Letter;
},
{
glyphname = brm_num100.60;
lastChange = "2019-09-20 20:39:33 +0000";
layers = (
{
layerId = UUID0;
paths = (
{
closed = 1;
nodes = (
"365 0 LINE",
"471 131 LINE SMOOTH",
"577 261 OFFCURVE",
"676 399 OFFCURVE",
"676 528 CURVE SMOOTH",
"676 646 OFFCURVE",
"598 726 OFFCURVE",
"472 726 CURVE SMOOTH",
"401 726 OFFCURVE",
"341 697 OFFCURVE",
"304 649 CURVE",
"279 672 OFFCURVE",
"241 684 OFFCURVE",
"189 684 CURVE SMOOTH",
"128 684 OFFCURVE",
"70 654 OFFCURVE",
"29 607 CURVE",
"92 557 LINE",
"117 588 OFFCURVE",
"148 604 OFFCURVE",
"184 604 CURVE SMOOTH",
"223 604 OFFCURVE",
"253 585 OFFCURVE",
"253 560 CURVE SMOOTH",
"253 543 OFFCURVE",
"249 509 OFFCURVE",
"247 493 CURVE",
"337 502 LINE",
"340 586 OFFCURVE",
"391 646 OFFCURVE",
"472 646 CURVE SMOOTH",
"539 646 OFFCURVE",
"585 597 OFFCURVE",
"585 525 CURVE SMOOTH",
"585 412 OFFCURVE",
"492 290 OFFCURVE",
"384 156 CURVE SMOOTH",
"258 0 LINE"
);
},
{
closed = 1;
nodes = (
"911 36 LINE",
"911 634 LINE",
"821 634 LINE",
"821 381 LINE",
"567 381 LINE",
"567 301 LINE",
"821 301 LINE",
"821 36 LINE"
);
}
);
width = 1027;
}
);
category = Letter;
},
{
glyphname = brm_num100.70;
lastChange = "2019-09-20 20:39:33 +0000";
layers = (
{
layerId = UUID0;
paths = (
{
closed = 1;
nodes = (
"92 557 LINE",
"118 588 OFFCURVE",
"148 604 OFFCURVE",
"184 604 CURVE SMOOTH",
"223 604 OFFCURVE",
"253 585 OFFCURVE",
"253 560 CURVE SMOOTH",
"253 537 OFFCURVE",
"248 514 OFFCURVE",
"247 493 CURVE",
"337 502 LINE",
"339 585 OFFCURVE",
"391 646 OFFCURVE",
"472 646 CURVE SMOOTH",
"539 646 OFFCURVE",
"585 597 OFFCURVE",
"585 525 CURVE SMOOTH",
"585 433 OFFCURVE",
"528 334 OFFCURVE",
"384 156 CURVE SMOOTH",
"258 0 LINE",
"365 0 LINE",
"471 131 LINE SMOOTH",
"566 248 OFFCURVE",
"646 356 OFFCURVE",
"668 464 CURVE",
"699 450 OFFCURVE",
"738 442 OFFCURVE",
"787 441 CURVE",
"532 29 LINE",
"605 -14 LINE",
"761 238 LINE",
"817 213 OFFCURVE",
"845 175 OFFCURVE",
"845 122 CURVE SMOOTH",
"845 61 OFFCURVE",
"811 -5 OFFCURVE",
"743 -75 CURVE",
"815 -117 LINE",
"894 -42 OFFCURVE",
"936 43 OFFCURVE",
"936 127 CURVE SMOOTH",
"936 203 OFFCURVE",
"884 279 OFFCURVE",
"806 311 CURVE",
"979 591 LINE",
"906 634 LINE",
"840 528 LINE",
"836 524 OFFCURVE",
"796 521 OFFCURVE",
"782 521 CURVE SMOOTH",
"740 521 OFFCURVE",
"701 532 OFFCURVE",
"674 558 CURVE",
"661 659 OFFCURVE",
"585 726 OFFCURVE",
"472 726 CURVE SMOOTH",
"402 726 OFFCURVE",
"341 696 OFFCURVE",
"304 649 CURVE",
"279 672 OFFCURVE",
"241 684 OFFCURVE",
"189 684 CURVE SMOOTH",
"127 684 OFFCURVE",
"70 653 OFFCURVE",
"29 607 CURVE"
);
}
);
width = 1067;
}
);
category = Letter;
},
{
glyphname = brm_num100.80;
lastChange = "2019-09-20 20:39:33 +0000";
layers = (
{
layerId = UUID0;
paths = (
{
closed = 1;
nodes = (
"365 0 LINE",
"471 131 LINE SMOOTH",
"577 261 OFFCURVE",
"676 399 OFFCURVE",
"676 528 CURVE SMOOTH",
"676 646 OFFCURVE",
"598 726 OFFCURVE",
"472 726 CURVE SMOOTH",
"401 726 OFFCURVE",
"341 697 OFFCURVE",
"304 649 CURVE",
"279 672 OFFCURVE",
"241 684 OFFCURVE",
"189 684 CURVE SMOOTH",
"128 684 OFFCURVE",
"70 654 OFFCURVE",
"29 607 CURVE",
"92 557 LINE",
"117 588 OFFCURVE",
"148 604 OFFCURVE",
"184 604 CURVE SMOOTH",
"223 604 OFFCURVE",
"253 585 OFFCURVE",
"253 560 CURVE SMOOTH",
"253 543 OFFCURVE",
"249 509 OFFCURVE",
"247 493 CURVE",
"337 502 LINE",
"340 586 OFFCURVE",
"391 646 OFFCURVE",
"472 646 CURVE SMOOTH",
"539 646 OFFCURVE",
"585 597 OFFCURVE",
"585 525 CURVE SMOOTH",
"585 412 OFFCURVE",
"492 290 OFFCURVE",
"384 156 CURVE SMOOTH",
"258 0 LINE"
);
},
{
closed = 1;
nodes = (
"1144 -10 OFFCURVE",
"1346 75 OFFCURVE",
"1346 269 CURVE SMOOTH",
"1346 461 OFFCURVE",
"1148 552 OFFCURVE",
"935 552 CURVE SMOOTH",
"722 552 OFFCURVE",
"523 461 OFFCURVE",
"523 269 CURVE SMOOTH",
"523 75 OFFCURVE",
"724 -10 OFFCURVE",
"934 -10 CURVE SMOOTH"
);
},
{
closed = 1;
nodes = (
"717 83 OFFCURVE",
"614 156 OFFCURVE",
"614 269 CURVE SMOOTH",
"614 386 OFFCURVE",
"714 459 OFFCURVE",
"890 470 CURVE",
"890 72 LINE"
);
},
{
closed = 1;
nodes = (
"979 470 LINE",
"1156 457 OFFCURVE",
"1255 385 OFFCURVE",
"1255 269 CURVE SMOOTH",
"1255 157 OFFCURVE",
"1151 83 OFFCURVE",
"979 72 CURVE"
);
}
);
width = 1434;
}
);
category = Letter;
},
{
glyphname = brm_num100.90;
lastChange = "2019-09-20 20:39:33 +0000";
layers = (
{
layerId = UUID0;
paths = (
{
closed = 1;
nodes = (
"365 0 LINE",
"471 131 LINE SMOOTH",
"577 261 OFFCURVE",
"676 399 OFFCURVE",
"676 528 CURVE SMOOTH",
"676 646 OFFCURVE",
"598 726 OFFCURVE",
"472 726 CURVE SMOOTH",
"401 726 OFFCURVE",
"341 697 OFFCURVE",
"304 649 CURVE",
"279 672 OFFCURVE",
"241 684 OFFCURVE",
"189 684 CURVE SMOOTH",
"128 684 OFFCURVE",
"70 654 OFFCURVE",
"29 607 CURVE",
"92 557 LINE",
"117 588 OFFCURVE",
"148 604 OFFCURVE",
"184 604 CURVE SMOOTH",
"223 604 OFFCURVE",
"253 585 OFFCURVE",
"253 560 CURVE SMOOTH",
"253 543 OFFCURVE",
"249 509 OFFCURVE",
"247 493 CURVE",
"337 502 LINE",
"340 586 OFFCURVE",
"391 646 OFFCURVE",
"472 646 CURVE SMOOTH",
"539 646 OFFCURVE",
"585 597 OFFCURVE",
"585 525 CURVE SMOOTH",
"585 412 OFFCURVE",
"492 290 OFFCURVE",
"384 156 CURVE SMOOTH",
"258 0 LINE"
);
},
{
closed = 1;
nodes = (
"1121 -10 OFFCURVE",
"1235 137 OFFCURVE",
"1235 358 CURVE SMOOTH",
"1235 578 OFFCURVE",
"1121 725 OFFCURVE",
"907 725 CURVE SMOOTH",
"694 725 OFFCURVE",
"576 591 OFFCURVE",
"576 359 CURVE SMOOTH",
"576 124 OFFCURVE",
"695 -10 OFFCURVE",
"906 -10 CURVE SMOOTH"
);
},
{
closed = 1;
nodes = (
"740 88 OFFCURVE",
"674 181 OFFCURVE",
"667 333 CURVE",
"861 333 LINE",
"861 71 LINE"
);
},
{
closed = 1;
nodes = (
"950 333 LINE",
"1144 333 LINE",
"1136 177 OFFCURVE",
"1070 87 OFFCURVE",
"950 71 CURVE"
);
},
{
closed = 1;
nodes = (
"681 543 OFFCURVE",
"745 626 OFFCURVE",
"861 643 CURVE",
"861 412 LINE",
"669 412 LINE"
);
},
{
closed = 1;
nodes = (
"950 643 LINE",
"1062 628 OFFCURVE",
"1129 549 OFFCURVE",
"1142 412 CURVE",
"950 412 LINE"
);
}
);
width = 1323;
}
);
category = Letter;
},
{
glyphname = brm_num100.100;
lastChange = "2019-09-20 20:39:33 +0000";
layers = (
{
layerId = UUID0;
paths = (
{
closed = 1;
nodes = (
"365 0 LINE",
"471 131 LINE SMOOTH",
"577 261 OFFCURVE",
"676 399 OFFCURVE",
"676 528 CURVE SMOOTH",
"676 646 OFFCURVE",
"598 726 OFFCURVE",
"472 726 CURVE SMOOTH",
"401 726 OFFCURVE",
"341 697 OFFCURVE",
"304 649 CURVE",
"279 672 OFFCURVE",
"241 684 OFFCURVE",
"189 684 CURVE SMOOTH",
"128 684 OFFCURVE",
"70 654 OFFCURVE",
"29 607 CURVE",
"92 557 LINE",
"117 588 OFFCURVE",
"148 604 OFFCURVE",
"184 604 CURVE SMOOTH",
"223 604 OFFCURVE",
"253 585 OFFCURVE",
"253 560 CURVE SMOOTH",
"253 543 OFFCURVE",
"249 509 OFFCURVE",
"247 493 CURVE",
"337 502 LINE",
"340 586 OFFCURVE",
"391 646 OFFCURVE",
"472 646 CURVE SMOOTH",
"539 646 OFFCURVE",
"585 597 OFFCURVE",
"585 525 CURVE SMOOTH",
"585 412 OFFCURVE",
"492 290 OFFCURVE",
"384 156 CURVE SMOOTH",
"258 0 LINE"
);
},
{
closed = 1;
nodes = (
"897 0 LINE",
"1003 131 LINE SMOOTH",
"1109 261 OFFCURVE",
"1208 399 OFFCURVE",
"1208 528 CURVE SMOOTH",
"1208 646 OFFCURVE",
"1130 726 OFFCURVE",
"1004 726 CURVE SMOOTH",
"933 726 OFFCURVE",
"873 697 OFFCURVE",
"836 649 CURVE",
"811 672 OFFCURVE",
"773 684 OFFCURVE",
"721 684 CURVE SMOOTH",
"660 684 OFFCURVE",
"602 654 OFFCURVE",
"561 607 CURVE",
"624 557 LINE",
"649 588 OFFCURVE",
"680 604 OFFCURVE",
"716 604 CURVE SMOOTH",
"755 604 OFFCURVE",
"785 585 OFFCURVE",
"785 560 CURVE SMOOTH",
"785 543 OFFCURVE",
"781 509 OFFCURVE",
"779 493 CURVE",
"869 502 LINE",
"872 586 OFFCURVE",
"923 646 OFFCURVE",
"1004 646 CURVE SMOOTH",
"1071 646 OFFCURVE",
"1117 597 OFFCURVE",
"1117 525 CURVE SMOOTH",
"1117 412 OFFCURVE",
"1024 290 OFFCURVE",
"916 156 CURVE SMOOTH",
"790 0 LINE"
);
}
);
width = 1296;
}
);
category = Letter;
},
{
glyphname = brm_num100.1000;
lastChange = "2019-09-20 20:39:33 +0000";
layers = (
{
layerId = UUID0;
paths = (
{
closed = 1;
nodes = (
"365 0 LINE",
"471 131 LINE SMOOTH",
"577 261 OFFCURVE",
"676 399 OFFCURVE",
"676 528 CURVE SMOOTH",
"676 646 OFFCURVE",
"598 726 OFFCURVE",
"472 726 CURVE SMOOTH",
"401 726 OFFCURVE",
"341 697 OFFCURVE",
"304 649 CURVE",
"279 672 OFFCURVE",
"241 684 OFFCURVE",
"189 684 CURVE SMOOTH",
"128 684 OFFCURVE",
"70 654 OFFCURVE",
"29 607 CURVE",
"92 557 LINE",
"117 588 OFFCURVE",
"148 604 OFFCURVE",
"184 604 CURVE SMOOTH",
"223 604 OFFCURVE",
"253 585 OFFCURVE",
"253 560 CURVE SMOOTH",
"253 543 OFFCURVE",
"249 509 OFFCURVE",
"247 493 CURVE",
"337 502 LINE",
"340 586 OFFCURVE",
"391 646 OFFCURVE",
"472 646 CURVE SMOOTH",
"539 646 OFFCURVE",
"585 597 OFFCURVE",
"585 525 CURVE SMOOTH",
"585 412 OFFCURVE",
"492 290 OFFCURVE",
"384 156 CURVE SMOOTH",
"258 0 LINE"
);
},
{
closed = 1;
nodes = (
"783 115 OFFCURVE",
"921 328 OFFCURVE",
"921 544 CURVE SMOOTH",
"921 667 OFFCURVE",
"872 724 OFFCURVE",
"769 724 CURVE SMOOTH",
"663 724 OFFCURVE",
"593 640 OFFCURVE",
"593 541 CURVE SMOOTH",
"593 430 OFFCURVE",
"640 389 OFFCURVE",
"744 389 CURVE SMOOTH",
"759 389 OFFCURVE",
"781 392 OFFCURVE",
"810 397 CURVE",
"775 270 OFFCURVE",
"686 165 OFFCURVE",
"523 64 CURVE",
"544 -10 LINE"
);
},
{
closed = 1;
nodes = (
"696 470 OFFCURVE",
"681 489 OFFCURVE",
"681 533 CURVE SMOOTH",
"681 605 OFFCURVE",
"709 643 OFFCURVE",
"762 643 CURVE SMOOTH",
"811 643 OFFCURVE",
"831 617 OFFCURVE",
"831 558 CURVE SMOOTH",
"831 531 OFFCURVE",
"830 505 OFFCURVE",
"827 480 CURVE",
"788 473 OFFCURVE",
"760 470 OFFCURVE",
"743 470 CURVE SMOOTH"
);
}
);
width = 1009;
}
);
category = Letter;
},
{
glyphname = brm_num1000.2;
lastChange = "2019-09-20 20:39:33 +0000";
layers = (
{
layerId = UUID0;
paths = (
{
closed = 1;
nodes = (
"109 -10 LINE",
"257 68 OFFCURVE",
"365 178 OFFCURVE",
"427 301 CURVE",
"798 301 LINE",
"798 381 LINE",
"460 381 LINE",
"477 434 OFFCURVE",
"486 489 OFFCURVE",
"486 544 CURVE SMOOTH",
"486 667 OFFCURVE",
"436 724 OFFCURVE",
"334 724 CURVE SMOOTH",
"231 724 OFFCURVE",
"158 644 OFFCURVE",
"158 541 CURVE SMOOTH",
"158 430 OFFCURVE",
"205 389 OFFCURVE",
"309 389 CURVE SMOOTH",
"323 389 OFFCURVE",
"345 392 OFFCURVE",
"375 397 CURVE",
"340 270 OFFCURVE",
"252 167 OFFCURVE",
"88 64 CURVE"
);
},
{
closed = 1;
nodes = (
"396 531 OFFCURVE",
"394 505 OFFCURVE",
"392 480 CURVE",
"354 474 OFFCURVE",
"326 470 OFFCURVE",
"308 470 CURVE SMOOTH",
"262 470 OFFCURVE",
"246 488 OFFCURVE",
"246 533 CURVE SMOOTH",
"246 605 OFFCURVE",
"274 643 OFFCURVE",
"327 643 CURVE SMOOTH",
"376 643 OFFCURVE",
"396 617 OFFCURVE",
"396 558 CURVE SMOOTH"
);
}
);
width = 896;
}
);
category = Letter;
},
{
glyphname = brm_num1000.3;
lastChange = "2019-09-20 20:39:33 +0000";
layers = (
{
layerId = UUID0;
paths = (
{
closed = 1;
nodes = (
"798 283 LINE",
"417 283 LINE",
"437 320 OFFCURVE",
"454 358 OFFCURVE",
"465 398 CURVE",
"798 398 LINE",
"798 478 LINE",
"482 478 LINE",
"485 500 OFFCURVE",
"486 522 OFFCURVE",
"486 544 CURVE SMOOTH",
"486 667 OFFCURVE",
"436 724 OFFCURVE",
"334 724 CURVE SMOOTH",
"231 724 OFFCURVE",
"158 644 OFFCURVE",
"158 541 CURVE SMOOTH",
"158 430 OFFCURVE",
"205 389 OFFCURVE",
"309 389 CURVE SMOOTH",
"323 389 OFFCURVE",
"345 392 OFFCURVE",
"375 397 CURVE",
"340 270 OFFCURVE",
"252 167 OFFCURVE",
"88 64 CURVE",
"109 -10 LINE",
"216 46 OFFCURVE",
"303 120 OFFCURVE",
"366 203 CURVE",
"798 203 LINE"
);
},
{
closed = 1;
nodes = (
"396 531 OFFCURVE",
"394 505 OFFCURVE",
"392 480 CURVE",
"354 474 OFFCURVE",
"326 470 OFFCURVE",
"308 470 CURVE SMOOTH",
"262 470 OFFCURVE",
"246 488 OFFCURVE",
"246 533 CURVE SMOOTH",
"246 605 OFFCURVE",
"274 643 OFFCURVE",
"327 643 CURVE SMOOTH",
"376 643 OFFCURVE",
"396 617 OFFCURVE",
"396 558 CURVE SMOOTH"
);
}
);
width = 896;
}
);
category = Letter;
},
{
glyphname = brm_num1000.4;
lastChange = "2019-09-20 20:39:33 +0000";
layers = (
{
layerId = UUID0;
paths = (
{
closed = 1;
nodes = (
"719 36 LINE",
"719 301 LINE",
"973 301 LINE",
"973 381 LINE",
"719 381 LINE",
"719 634 LINE",
"630 634 LINE",
"630 381 LINE",
"376 381 LINE",
"376 301 LINE",
"630 301 LINE",
"630 36 LINE"
);
},
{
closed = 1;
nodes = (
"348 115 OFFCURVE",
"486 328 OFFCURVE",
"486 544 CURVE SMOOTH",
"486 667 OFFCURVE",
"437 724 OFFCURVE",
"334 724 CURVE SMOOTH",
"228 724 OFFCURVE",
"158 640 OFFCURVE",
"158 541 CURVE SMOOTH",
"158 430 OFFCURVE",
"205 389 OFFCURVE",
"309 389 CURVE SMOOTH",
"324 389 OFFCURVE",
"346 392 OFFCURVE",
"375 397 CURVE",
"340 270 OFFCURVE",
"251 165 OFFCURVE",
"88 64 CURVE",
"109 -10 LINE"
);
},
{
closed = 1;
nodes = (
"261 470 OFFCURVE",
"246 489 OFFCURVE",
"246 533 CURVE SMOOTH",
"246 605 OFFCURVE",
"274 643 OFFCURVE",
"327 643 CURVE SMOOTH",
"376 643 OFFCURVE",
"396 617 OFFCURVE",
"396 558 CURVE SMOOTH",
"396 531 OFFCURVE",
"395 505 OFFCURVE",
"392 480 CURVE",
"353 473 OFFCURVE",
"325 470 OFFCURVE",
"308 470 CURVE SMOOTH"
);
}
);
width = 1071;
}
);
category = Letter;
},
{
glyphname = brm_num1000.5;
lastChange = "2019-09-20 20:39:33 +0000";
layers = (
{
layerId = UUID0;
paths = (
{
closed = 1;
nodes = (
"553 0 LINE",
"553 413 LINE",
"572 419 OFFCURVE",
"594 422 OFFCURVE",
"618 422 CURVE SMOOTH",
"705 422 OFFCURVE",
"738 383 OFFCURVE",
"738 292 CURVE SMOOTH",
"738 170 LINE",
"828 170 LINE",
"828 310 LINE SMOOTH",
"828 446 OFFCURVE",
"758 505 OFFCURVE",
"629 505 CURVE SMOOTH",
"603 505 OFFCURVE",
"578 501 OFFCURVE",
"553 494 CURVE",
"553 714 LINE",
"463 714 LINE",
"463 0 LINE"
);
},
{
closed = 1;
nodes = (
"348 115 OFFCURVE",
"486 328 OFFCURVE",
"486 544 CURVE SMOOTH",
"486 667 OFFCURVE",
"437 724 OFFCURVE",
"334 724 CURVE SMOOTH",
"228 724 OFFCURVE",
"158 640 OFFCURVE",
"158 541 CURVE SMOOTH",
"158 430 OFFCURVE",
"205 389 OFFCURVE",
"309 389 CURVE SMOOTH",
"324 389 OFFCURVE",
"346 392 OFFCURVE",
"375 397 CURVE",
"340 270 OFFCURVE",
"251 165 OFFCURVE",
"88 64 CURVE",
"109 -10 LINE"
);
},
{
closed = 1;
nodes = (
"261 470 OFFCURVE",
"246 489 OFFCURVE",
"246 533 CURVE SMOOTH",
"246 605 OFFCURVE",
"274 643 OFFCURVE",
"327 643 CURVE SMOOTH",
"376 643 OFFCURVE",
"396 617 OFFCURVE",
"396 558 CURVE SMOOTH",
"396 531 OFFCURVE",
"395 505 OFFCURVE",
"392 480 CURVE",
"353 473 OFFCURVE",
"325 470 OFFCURVE",
"308 470 CURVE SMOOTH"
);
}
);
width = 926;
}
);
category = Letter;
},
{
glyphname = brm_num1000.6;
lastChange = "2019-09-20 20:39:33 +0000";
layers = (
{
layerId = UUID0;
paths = (
{
closed = 1;
nodes = (
"809 -10 OFFCURVE",
"845 -8 OFFCURVE",
"882 -4 CURVE",
"882 77 LINE",
"847 72 OFFCURVE",
"813 70 OFFCURVE",
"780 70 CURVE SMOOTH",
"613 70 OFFCURVE",
"544 121 OFFCURVE",
"544 225 CURVE SMOOTH",
"544 289 OFFCURVE",
"599 334 OFFCURVE",
"661 334 CURVE SMOOTH",
"670 334 OFFCURVE",
"680 333 OFFCURVE",
"692 331 CURVE SMOOTH",
"740 321 LINE",
"740 401 LINE",
"692 411 LINE SMOOTH",
"619 426 OFFCURVE",
"562 477 OFFCURVE",
"562 550 CURVE SMOOTH",
"562 606 OFFCURVE",
"604 643 OFFCURVE",
"663 643 CURVE SMOOTH",
"719 643 OFFCURVE",
"759 626 OFFCURVE",
"802 589 CURVE",
"876 632 LINE",
"810 696 OFFCURVE",
"760 723 OFFCURVE",
"663 723 CURVE SMOOTH",
"547 723 OFFCURVE",
"471 635 OFFCURVE",
"471 549 CURVE SMOOTH",
"471 472 OFFCURVE",
"493 425 OFFCURVE",
"564 373 CURVE",
"495 342 OFFCURVE",
"454 285 OFFCURVE",
"454 217 CURVE SMOOTH",
"454 65 OFFCURVE",
"556 -10 OFFCURVE",
"775 -10 CURVE SMOOTH"
);
},
{
closed = 1;
nodes = (
"348 115 OFFCURVE",
"486 328 OFFCURVE",
"486 544 CURVE SMOOTH",
"486 667 OFFCURVE",
"437 724 OFFCURVE",
"334 724 CURVE SMOOTH",
"228 724 OFFCURVE",
"158 640 OFFCURVE",
"158 541 CURVE SMOOTH",
"158 430 OFFCURVE",
"205 389 OFFCURVE",
"309 389 CURVE SMOOTH",
"324 389 OFFCURVE",
"346 392 OFFCURVE",
"375 397 CURVE",
"340 270 OFFCURVE",
"251 165 OFFCURVE",
"88 64 CURVE",
"109 -10 LINE"
);
},
{
closed = 1;
nodes = (
"261 470 OFFCURVE",
"246 489 OFFCURVE",
"246 533 CURVE SMOOTH",
"246 605 OFFCURVE",
"274 643 OFFCURVE",
"327 643 CURVE SMOOTH",
"376 643 OFFCURVE",
"396 617 OFFCURVE",
"396 558 CURVE SMOOTH",
"396 531 OFFCURVE",
"395 505 OFFCURVE",
"392 480 CURVE",
"353 473 OFFCURVE",
"325 470 OFFCURVE",
"308 470 CURVE SMOOTH"
);
}
);
width = 970;
}
);
category = Letter;
},
{
glyphname = brm_num1000.7;
lastChange = "2019-09-20 20:39:33 +0000";
layers = (
{
layerId = UUID0;
paths = (
{
closed = 1;
nodes = (
"109 -10 LINE",
"351 117 OFFCURVE",
"486 330 OFFCURVE",
"486 544 CURVE SMOOTH",
"486 549 OFFCURVE",
"486 554 OFFCURVE",
"486 559 CURVE",
"498 616 OFFCURVE",
"546 646 OFFCURVE",
"616 646 CURVE SMOOTH",
"684 646 OFFCURVE",
"729 597 OFFCURVE",
"729 525 CURVE SMOOTH",
"729 433 OFFCURVE",
"672 335 OFFCURVE",
"528 156 CURVE SMOOTH",
"402 0 LINE",
"510 0 LINE",
"615 131 LINE SMOOTH",
"675 205 OFFCURVE",
"717 262 OFFCURVE",
"741 301 CURVE SMOOTH",
"790 379 OFFCURVE",
"820 454 OFFCURVE",
"820 528 CURVE SMOOTH",
"820 646 OFFCURVE",
"741 726 OFFCURVE",
"616 726 CURVE SMOOTH",
"550 726 OFFCURVE",
"495 705 OFFCURVE",
"457 668 CURVE",
"432 706 OFFCURVE",
"391 724 OFFCURVE",
"334 724 CURVE SMOOTH",
"231 724 OFFCURVE",
"158 644 OFFCURVE",
"158 541 CURVE SMOOTH",
"158 430 OFFCURVE",
"205 389 OFFCURVE",
"309 389 CURVE SMOOTH",
"323 389 OFFCURVE",
"345 392 OFFCURVE",
"375 397 CURVE",
"340 270 OFFCURVE",
"252 167 OFFCURVE",
"88 64 CURVE"
);
},
{
closed = 1;
nodes = (
"396 531 OFFCURVE",
"394 505 OFFCURVE",
"392 480 CURVE",
"354 474 OFFCURVE",
"326 470 OFFCURVE",
"308 470 CURVE SMOOTH",
"262 470 OFFCURVE",
"246 488 OFFCURVE",
"246 533 CURVE SMOOTH",
"246 605 OFFCURVE",
"274 643 OFFCURVE",
"327 643 CURVE SMOOTH",
"376 643 OFFCURVE",
"396 617 OFFCURVE",
"396 558 CURVE SMOOTH"
);
}
);
width = 908;
}
);
category = Letter;
},
{
glyphname = brm_num1000.8;
lastChange = "2019-09-20 20:39:33 +0000";
layers = (
{
layerId = UUID0;
paths = (
{
closed = 1;
nodes = (
"669 0 LINE",
"775 131 LINE SMOOTH",
"842 213 OFFCURVE",
"891 276 OFFCURVE",
"891 348 CURVE SMOOTH",
"891 417 OFFCURVE",
"842 464 OFFCURVE",
"766 464 CURVE SMOOTH",
"669 464 LINE SMOOTH",
"584 464 OFFCURVE",
"554 499 OFFCURVE",
"554 592 CURVE SMOOTH",
"554 714 LINE",
"464 714 LINE",
"464 575 LINE SMOOTH",
"464 443 OFFCURVE",
"523 385 OFFCURVE",
"658 385 CURVE SMOOTH",
"750 385 LINE SMOOTH",
"779 385 OFFCURVE",
"800 367 OFFCURVE",
"800 339 CURVE SMOOTH",
"800 306 OFFCURVE",
"775 263 OFFCURVE",
"703 174 CURVE SMOOTH",
"562 0 LINE"
);
},
{
closed = 1;
nodes = (
"348 115 OFFCURVE",
"486 328 OFFCURVE",
"486 544 CURVE SMOOTH",
"486 667 OFFCURVE",
"437 724 OFFCURVE",
"334 724 CURVE SMOOTH",
"228 724 OFFCURVE",
"158 640 OFFCURVE",
"158 541 CURVE SMOOTH",
"158 430 OFFCURVE",
"205 389 OFFCURVE",
"309 389 CURVE SMOOTH",
"324 389 OFFCURVE",
"346 392 OFFCURVE",
"375 397 CURVE",
"340 270 OFFCURVE",
"251 165 OFFCURVE",
"88 64 CURVE",
"109 -10 LINE"
);
},
{
closed = 1;
nodes = (
"261 470 OFFCURVE",
"246 489 OFFCURVE",
"246 533 CURVE SMOOTH",
"246 605 OFFCURVE",
"274 643 OFFCURVE",
"327 643 CURVE SMOOTH",
"376 643 OFFCURVE",
"396 617 OFFCURVE",
"396 558 CURVE SMOOTH",
"396 531 OFFCURVE",
"395 505 OFFCURVE",
"392 480 CURVE",
"353 473 OFFCURVE",
"325 470 OFFCURVE",
"308 470 CURVE SMOOTH"
);
}
);
width = 979;
}
);
category = Letter;
},
{
glyphname = brm_num1000.9;
lastChange = "2019-09-20 20:39:33 +0000";
layers = (
{
layerId = UUID0;
paths = (
{
closed = 1;
nodes = (
"109 -10 LINE",
"351 117 OFFCURVE",
"486 330 OFFCURVE",
"486 544 CURVE SMOOTH",
"486 579 OFFCURVE",
"482 609 OFFCURVE",
"474 634 CURVE",
"611 634 LINE SMOOTH",
"695 634 OFFCURVE",
"734 614 OFFCURVE",
"734 561 CURVE SMOOTH",
"734 502 OFFCURVE",
"708 474 OFFCURVE",
"631 433 CURVE SMOOTH",
"554 392 OFFCURVE",
"528 366 OFFCURVE",
"528 308 CURVE SMOOTH",
"528 0 LINE",
"618 0 LINE",
"618 276 LINE SMOOTH",
"618 318 OFFCURVE",
"639 347 OFFCURVE",
"684 371 CURVE SMOOTH",
"769 416 OFFCURVE",
"824 445 OFFCURVE",
"824 571 CURVE SMOOTH",
"824 666 OFFCURVE",
"754 714 OFFCURVE",
"623 714 CURVE SMOOTH",
"398 714 LINE",
"379 720 OFFCURVE",
"358 724 OFFCURVE",
"334 724 CURVE SMOOTH",
"231 724 OFFCURVE",
"158 644 OFFCURVE",
"158 541 CURVE SMOOTH",
"158 430 OFFCURVE",
"205 389 OFFCURVE",
"309 389 CURVE SMOOTH",
"323 389 OFFCURVE",
"345 392 OFFCURVE",
"375 397 CURVE",
"340 270 OFFCURVE",
"252 167 OFFCURVE",
"88 64 CURVE"
);
},
{
closed = 1;
nodes = (
"396 531 OFFCURVE",
"394 505 OFFCURVE",
"392 480 CURVE",
"354 474 OFFCURVE",
"326 470 OFFCURVE",
"308 470 CURVE SMOOTH",
"262 470 OFFCURVE",
"246 488 OFFCURVE",
"246 533 CURVE SMOOTH",
"246 605 OFFCURVE",
"274 643 OFFCURVE",
"327 643 CURVE SMOOTH",
"376 643 OFFCURVE",
"396 617 OFFCURVE",
"396 558 CURVE SMOOTH"
);
}
);
width = 912;
}
);
category = Letter;
},
